<svg xmlns="http://www.w3.org/2000/svg" width="111" height="111" fill-rule="evenodd"><path d="M95.817 39.89c-1.35 1.262-2.876 2.342-4.542 3.19v3.94h-.897c1.485 0 2.7 1.198 2.7 2.674s-1.205 2.674-2.7 2.674c1.485 0 2.7 1.198 2.7 2.674s-1.205 2.674-2.7 2.674H74.24c-1.485 0-2.7-1.198-2.7-2.674s1.205-2.674 2.7-2.674c-1.485 0-2.7-1.198-2.7-2.674s1.205-2.674 2.7-2.674h-.897v-3.94c-1.666-.848-3.192-1.93-4.542-3.19H5.203v15.833l8.966 8.39v-15.31h43.036v28.52H28.3l28.578 26.738h48.753c2.966 0 5.38-2.4 5.38-5.348V39.89H95.817z" fill="#54da83"/><g fill="#333"><circle cx="14.323" cy="34.016" r="1.79"/><circle cx="21.484" cy="34.016" r="1.79"/><circle cx="28.645" cy="34.016" r="1.79"/><path d="M32.937 78.774H59.08V46.548H12.532V59.57l-6.907-6.5c-1.742-1.64-3.223-1.257-3.778-1.02S0 53.105 0 55.5v50.13A5.38 5.38 0 0 0 5.371 111h53.7c2.344 0 3.153-1.158 3.427-1.85s.482-2.1-1.226-3.697l-28.335-26.68zM16.113 50.13H55.5v25.065H29.132L16.113 62.94v-12.8zM5.37 107.42a1.79 1.79 0 0 1-1.79-1.79v-1.8h3.58v-3.58H3.58v-3.58h3.58V93.1H3.58v-3.6h3.58v-3.58H3.58v-3.58h3.58v-3.58H3.58V75.2h3.58v-3.6H3.58v-3.58h3.58v-3.58H3.58v-8.388l54.567 51.355H5.37zm7.162-30.64v21.688h23.043L12.532 76.78zm3.58 8.287l10.434 9.82H16.113v-9.82zM111 10.742V0h-10.742v3.58H64.452V0H53.7v10.742h10.742V7.16h6.053c-5.8 3.85-9.634 10.434-9.634 17.903H10.73a5.38 5.38 0 0 0-5.371 5.371v12.532h65.216c.344.226.666.478 1.026.686v2.023c-1.08.818-1.8 2.102-1.8 3.56 0 1.012.35 1.935.917 2.685a4.42 4.42 0 0 0-.917 2.684 4.48 4.48 0 0 0 4.476 4.476H90.4a4.48 4.48 0 0 0 4.476-4.476c0-1.012-.35-1.935-.917-2.685a4.43 4.43 0 0 0 .917-2.685c0-1.457-.7-2.74-1.8-3.56V43.65c.36-.208.682-.46 1.026-.686H111v-12.53a5.38 5.38 0 0 0-5.371-5.371h-1.8c0-7.47-3.835-14.052-9.634-17.903h6.053v3.58l10.742.002zM57.3 7.16V3.58h3.58v3.58H57.3zM8.952 30.435a1.79 1.79 0 0 1 1.79-1.79h50.462a21.28 21.28 0 0 0 5.197 10.742H8.952v-8.952zm73.403-1.8c-1.975 0-3.58-1.606-3.58-3.58s1.606-3.58 3.58-3.58 3.58 1.606 3.58 3.58-1.606 3.58-3.58 3.58zM90.4 48.34a.9.9 0 0 1 .895.895.9.9 0 0 1-.895.895H74.298a.9.9 0 0 1-.895-.895.9.9 0 0 1 .895-.895H90.4zm0 7.16H74.298a.9.9 0 0 1-.895-.895.9.9 0 0 1 .895-.895H90.4a.9.9 0 0 1 .895.895.9.9 0 0 1-.895.895zm15.218-26.855a1.79 1.79 0 0 1 1.79 1.79v8.952h-9.1c2.705-3 4.517-6.7 5.197-10.742h2.123zm-5.37-3.58c0 6.744-3.744 12.85-9.768 15.93l-.974.5v3.262h-5.37V31.972c3.08-.8 5.37-3.58 5.37-6.907a7.17 7.17 0 0 0-7.161-7.161 7.17 7.17 0 0 0-7.161 7.161c0 3.328 2.3 6.107 5.37 6.907v12.786h-5.37v-3.262l-.974-.5c-6.024-3.083-9.768-9.188-9.768-15.932 0-9.872 8.03-17.903 17.903-17.903s17.903 8.03 17.903 17.903zm7.16-21.484v3.58h-3.58V3.58h3.58z" fill-rule="nonzero"/><path d="M62.66 64.452h41.177v3.58H62.66zm0 7.16h41.177v3.58H62.66zm0 7.162h41.177v3.58H62.66zm0 7.16h41.177v3.58H62.66z"/></g></svg>