<svg xmlns="http://www.w3.org/2000/svg" width="124" height="103" fill-rule="evenodd"><path d="M43.727 48.4H15.733V24.205h27.994zm31.993 0H47.726V24.205H75.72zm31.993 0H79.72V24.205h27.994z" fill="#54da83"/><g fill="#333"><path d="M115.482 0H7.964C3.572 0 0 3.62 0 8.068v72.616c0 4.45 3.572 8.068 7.964 8.068h35.84v10.086H29.866v4.034H93.58v-4.034H79.643V88.753h35.84c4.392 0 7.964-3.62 7.964-8.068V8.068c0-4.45-3.572-8.068-7.964-8.068zM75.66 98.838H47.786V88.753H75.66V98.84zm43.804-18.154c0 2.225-1.786 4.034-3.982 4.034H7.964c-2.196 0-3.982-1.8-3.982-4.034V8.068c0-2.225 1.786-4.034 3.982-4.034h107.518c2.196 0 3.982 1.8 3.982 4.034v72.616zm-111.5 0h107.518V8.068H7.964v72.616zm3.982-68.582H111.5V76.65H11.946V12.103z" fill-rule="nonzero"/><ellipse cx="17.92" cy="18.154" rx="1.991" ry="2.017"/><ellipse cx="23.893" cy="18.154" rx="1.991" ry="2.017"/><ellipse cx="29.866" cy="18.154" rx="1.991" ry="2.017"/><path d="M15.93 52.445h59.73v4.034H15.93zm0 8.068h59.73v4.034H15.93zm0 8.07h59.73v4.034H15.93zm65.704-16.137h25.884v4.034H81.634zm0 8.067h25.884v4.034H81.634zm0 8.07h25.884v4.034H81.634z"/></g></svg>