<svg xmlns="http://www.w3.org/2000/svg" width="112" height="111" fill-rule="evenodd"><path d="M47.98 47.044a3.89 3.89 0 0 1 .263-1.95v.002l-2.656-2.588 5.436-1.766 2.158.3c-1.723-1.876-.997-4.887 1.47-5.762l11.506-4.078c-4.64-4.977-11.316-8.123-18.76-8.123-14 0-25.368 11.07-25.368 24.728s11.358 24.728 25.368 24.728c5.152 0 9.935-1.507 13.938-4.077L49.2 56.638l-1.23-9.594zm9.036.083l3.066 5.98 7.248 5.3 4.63-4.513.36-1.545-1.97-3.36-13.335-1.858z" fill="#54da83"/><path d="M107.856 88.776l-4.887 1.205-7.2-15.596-2.247-19.942 3.327.47a4.57 4.57 0 0 0 .658.045c1.963 0 3.742-1.232 4.377-3.114a4.48 4.48 0 0 0-.45-3.832c-.72-1.153-1.918-1.925-3.278-2.118l-4.15-.586V8.912C94.014 3.998 89.96 0 84.974 0H9.04C4.055 0 0 3.998 0 8.912c0 4.303 3.112 7.903 7.232 8.732v92.867h72.246l.14.488 3.48-.98-3.104-10.705 25.49-6.283 3.088 9.13 3.428-1.128-4.144-12.258zm-8.454 2.082L83.38 94.806 79.3 82.74 66.365 71.818l-15.832-15.61-1.152-9.074a2.26 2.26 0 0 1 .065-.877l.09-.223a2.33 2.33 0 0 1 .833-1.059 2.49 2.49 0 0 1 3.072.385 2.24 2.24 0 0 1 .324.465l4.47 8.82 8.828 6.527 7.508-7.402-1.26-2.176 16.523 2.328 2.38 21.136 7.187 15.8zm-68.65-30.594c1.17.212 2.368.34 3.6.34 4.62 0 9.016-1.588 12.533-4.413l.212 1.677L59.83 70.414a16.25 16.25 0 0 1-12.822 6.231c-8.973 0-16.272-7.196-16.272-16.042 0-.114.014-.225.016-.34zm57.95-16.398l.08.702-21.278-2.998-1.472-2.538-7.64 1.255-4.58-.645c-.175-.374-.217-.8-.1-1.22.15-.594.573-1.055 1.163-1.266l13.663-4.898 20.177 11.607zm-31.706.364c-.103-.2-.215-.397-.34-.583l33.668 4.74-.336 1.952-32.193-4.535-.8-1.576zm-12.354.522l1.206 1.19c-.087.538-.125 1.086-.054 1.636l.28 2.216c-1.012-1.5-1.754-3.173-2.197-4.932.25-.046.5-.073.765-.11zm24.24-16.41l-15.256 5.47c-.233.084-.438.216-.654.328-.8-2.1-1.953-4.035-3.383-5.716a16.33 16.33 0 0 1 10.074-3.467c4.334 0 8.39 1.74 11.374 4.627l-2.155-1.24zm-18.67 9.165c-.005.018-.016.034-.02.053-.146.578-.16 1.16-.114 1.738l-5.83 1.916c-.28.037-.562.068-.837.118-.004-.114-.02-.223-.02-.335 0-3.807 1.358-7.303 3.612-10.057 1.535 1.873 2.654 4.1 3.21 6.567zm-10.437 3.5c0 .44.047.873.076 1.3-5.983 2.248-10.48 7.22-12.08 13.35-5.7-2.497-9.69-8.123-9.69-14.66 0-8.846 7.3-16.042 16.272-16.042 3.768 0 7.28 1.3 10.074 3.467-2.898 3.406-4.65 7.79-4.65 12.575zm.658 4.936a19.25 19.25 0 0 0 4.003 7.638c-2.85 2.226-6.382 3.47-10.085 3.47-1.07 0-2.115-.11-3.128-.305 1.204-4.846 4.62-8.82 9.2-10.802zm29.63 7.244l-3.34 3.292L61.09 52.3l-1.325-2.613 9.013 1.27 1.287 2.22zm28.302-3.294a.96.96 0 0 1 .098.834c-.154.453-.62.736-1.092.665l-3.8-.535.336-1.952 3.746.528a.99.99 0 0 1 .712.46zm-7.968-40.97v31.802l-3.616-2.08V14.26h-1.808c-3 0-5.424-2.4-5.424-5.347s2.434-5.347 5.424-5.347 5.424 2.4 5.424 5.347zm-86.782 0c0-2.948 2.434-5.347 5.424-5.347H77.8c-1.148 1.494-1.855 3.333-1.855 5.347s.707 3.854 1.855 5.347H9.04c-3 0-5.424-2.4-5.424-5.347zm71.876 87.84l2.952 10.196H10.848V17.824h72.32v18.732l-5.115-2.94C75.02 26.28 67.723 21.39 59.663 21.39a19.97 19.97 0 0 0-12.656 4.494 20.02 20.02 0 0 0-12.656-4.494c-10.965 0-19.888 8.796-19.888 19.607 0 8.317 5.3 15.423 12.72 18.268-.03.444-.063.888-.063 1.34 0 10.81 8.922 19.607 19.888 19.607a19.89 19.89 0 0 0 15.406-7.253l1.497 1.476 12.274 10.374 3.676 10.868-4.368 1.077z" fill="#333" fill-rule="nonzero"/></svg>