<svg xmlns="http://www.w3.org/2000/svg" width="20" height="12" fill="#000" fill-rule="evenodd"><path d="M8.228 5.444c.415-.2.73-.422.944-.663.383-.433.57-1.007.57-1.72 0-.693-.19-1.285-.566-1.78C8.546.472 7.48.058 5.973.037H0v11.667h5.57c.628 0 1.21-.05 1.746-.157s1.003-.3 1.396-.586a3.29 3.29 0 0 0 .875-.918c.367-.548.55-1.17.55-1.86 0-.67-.16-1.24-.48-1.71s-.8-.812-1.43-1.03zm-5.764-3.38h2.7c.59 0 1.08.06 1.46.182.442.176.664.534.664 1.08 0 .49-.17.83-.502 1.024s-.772.29-1.307.29H2.464V2.063zm4.254 7.41C6.42 9.61 6 9.68 5.465 9.68h-3v-3.11h3.042c.53.004.943.07 1.238.196.525.227.786.644.786 1.252 0 .718-.27 1.2-.812 1.457z" fill-rule="nonzero"/><path d="M12.78.58h5.296v1.452H12.78z"/><path d="M19.916 6.312a4.06 4.06 0 0 0-.73-1.784c-.414-.58-.94-1.007-1.578-1.276s-1.352-.406-2.15-.404c-1.34 0-2.426.4-3.267 1.196s-1.26 1.945-1.26 3.44c0 1.595.464 2.747 1.396 3.454s2 1.06 3.22 1.06c1.474 0 2.62-.42 3.44-1.257.524-.53.82-1.05.885-1.56h-2.44a1.9 1.9 0 0 1-.492.593c-.34.263-.782.395-1.325.395-.516 0-.954-.11-1.32-.325-.602-.347-.918-.955-.957-1.82h6.66c.01-.745-.015-1.318-.08-1.713zm-6.52.224c.087-.56.3-1.006.637-1.335s.815-.493 1.426-.494c.564 0 1.035.154 1.42.464s.593.766.636 1.365h-4.12z" fill-rule="nonzero"/></svg>