<svg xmlns="http://www.w3.org/2000/svg" width="12" height="12"><path d="M7.726 6.192c-.1-.1-.1-.274 0-.384l4.1-4.1c.1-.1.164-.274.164-.384s-.055-.274-.164-.384l-.767-.767c-.1-.1-.274-.164-.384-.164-.164 0-.274.055-.384.164l-4.1 4.1c-.1.1-.274.1-.384 0L1.7.164C1.59.055 1.425 0 1.315 0S1.04.055.932.164L.164.932c-.1.1-.164.274-.164.384s.055.274.164.384l4.1 4.1c.1.1.1.274 0 .384l-4.1 4.1c-.1.1-.164.274-.164.384s.055.274.164.384l.767.767c.1.1.274.164.384.164s.274-.055.384-.164l4.1-4.1c.1-.1.274-.1.384 0l4.1 4.1c.1.1.274.164.384.164s.274-.055.384-.164l.767-.767c.1-.1.164-.274.164-.384s-.055-.274-.164-.384l-4.1-4.1z" fill="#ffc7ce" fill-rule="evenodd"/></svg>