<svg xmlns="http://www.w3.org/2000/svg" width="20" height="20"><path d="M9.983 0C4.47 0 0 4.47 0 9.983s4.47 9.983 9.983 9.983 9.983-4.47 9.983-9.983S15.496 0 9.983 0zm8.073 9.265a25.87 25.87 0 0 0-5.343.355c-.206-.493-.416-.967-.627-1.418l.39-.19c1.565-.79 2.865-1.81 3.877-3.04.977 1.237 1.565 2.718 1.702 4.293zm-3.035-5.63c-.945 1.204-2.206 2.17-3.77 2.894l-.518-.944c-.862-1.515-1.684-2.722-2.3-3.558.505-.097 1.024-.147 1.55-.147 1.853 0 3.6.618 5.038 1.756zm-10.77.618a8.11 8.11 0 0 1 2.292-1.612c.6.767 1.562 2.12 2.58 3.916l.356.645c-.783.242-1.623.437-2.52.583a24.16 24.16 0 0 1-4.852.272c.347-1.428 1.08-2.738 2.144-3.803zm-2.374 5.73l.001-.058c.346.018.787.034 1.3.034 1.086 0 2.498-.068 4.033-.314 1.108-.178 2.152-.43 3.124-.75a34.76 34.76 0 0 1 .512 1.137c-1.245.335-2.388.773-3.413 1.3-1.663.87-3.018 2.002-4.038 3.37-.987-1.37-1.52-3.007-1.52-4.728zm2.816 6.142c1.426-2.09 3.725-3.544 6.85-4.338.627 1.723 1.163 3.65 1.472 5.715-.95.384-1.977.585-3.033.585-1.962 0-3.818-.693-5.29-1.963zm11.02-.41c-.3.3-.618.572-.953.817a31.69 31.69 0 0 0-1.358-5.122c1.97-.31 3.7-.3 4.603-.265-.246 1.724-1.038 3.317-2.292 4.57z" fill="#000" fill-rule="nonzero"/></svg>