<svg xmlns="http://www.w3.org/2000/svg" width="20" height="20" fill="#54da83" fill-rule="evenodd"><path d="M14.48 0H5.52A5.53 5.53 0 0 0 0 5.52v8.96A5.53 5.53 0 0 0 5.52 20h8.96A5.53 5.53 0 0 0 20 14.481V5.52A5.53 5.53 0 0 0 14.48 0zm3.745 14.48a3.75 3.75 0 0 1-3.745 3.745H5.52a3.75 3.75 0 0 1-3.745-3.745V5.52A3.75 3.75 0 0 1 5.52 1.775h8.96a3.75 3.75 0 0 1 3.745 3.745v8.96zM10 5c-2.757 0-5 2.243-5 5s2.243 5 5 5 5-2.243 5-5-2.243-5-5-5zm0 8.278A3.28 3.28 0 0 1 6.722 10 3.28 3.28 0 0 1 10 6.722 3.28 3.28 0 0 1 13.278 10 3.28 3.28 0 0 1 10 13.278z" fill-rule="nonzero"/><path d="M15 3.75c-.328 0-.65.133-.883.366s-.367.555-.367.884A1.26 1.26 0 0 0 15 6.25a1.26 1.26 0 0 0 .884-.366A1.26 1.26 0 0 0 16.25 5c0-.33-.133-.652-.366-.884S15.33 3.75 15 3.75z"/></svg>