<svg xmlns="http://www.w3.org/2000/svg" xmlns:xlink="http://www.w3.org/1999/xlink" width="205" height="38"><defs><circle id="A" cx="18.82" cy="18.82" r="18.82"/></defs><g fill-rule="evenodd"><mask id="B" fill="#fff"><use xlink:href="#A"/></mask><use fill="#66df90" fill-rule="nonzero" xlink:href="#A"/><g mask="url(#B)" fill="#fff"><path d="M13.348 37.64c-1.472.002-7.18-4.366-7.18-4.366 10.916-2.406 26.637-25.23 26.447-25.166S15.468 23.31 14.77 23.31s-4.342-2.528-4.406-3.682C10.302 18.484 22 4.458 21.82 4.33S8.658 17.12 7.644 17.12s-5.59-3.95-4.88-4.155C7.89 11.485 13.74 6.755 24.23-.656c.374-.264 4.39 2.887 4.518 3.398S14.33 21.15 14.33 21.15c.2.383 18.995-18.305 19.813-18.142.394.078 4.17 2.838 4.17 3.67S18.36 37.634 13.348 37.64"/></g><path d="M62.446 11.89l-5.37 9.85v6.147H53.42v-6.147l-5.37-9.85h4.16l3.04 6.17 3.04-6.17h4.16zm5.98 12.477h6.4v3.52H64.77V11.89h9.94v3.52h-6.284v2.65h5.713v3.474h-5.713v2.834zm13.247 3.52l-5.2-15.997h4l3.542 11.77 3.542-11.77h4l-5.2 15.997h-4.662zm18.594-15.997c4.41 0 7.77 3.474 7.77 7.998s-3.36 7.998-7.77 7.998h-6.4V11.89h6.4zm0 12.477c2.514 0 4.25-1.737 4.25-4.48s-1.737-4.48-4.25-4.48h-2.742v8.958h2.742zm18.41 3.84c-4.593 0-8.318-3.61-8.318-8.318s3.725-8.318 8.318-8.318 8.318 3.61 8.318 8.318-3.725 8.318-8.318 8.318zm0-3.565c2.605 0 4.662-1.897 4.662-4.753s-2.057-4.753-4.662-4.753-4.662 1.897-4.662 4.753 2.057 4.753 4.662 4.753zm24.262 3.245h-4.16l-5.12-7.404v7.404h-3.656V11.89h3.656v6.947l4.9-6.947h4.16l-5.393 7.793 5.622 8.204zm2.323-15.997h3.656v15.997h-3.656V11.89zm23.348 0v15.997h-3.656v-9.3l-4.136 6.787h-.41l-4.136-6.787v9.3h-3.656V11.89h3.656l4.342 7.107 4.342-7.107h3.656zm11.327 16.317c-4.593 0-8.318-3.61-8.318-8.318s3.725-8.318 8.318-8.318 8.318 3.61 8.318 8.318-3.725 8.318-8.318 8.318zm0-3.565c2.605 0 4.662-1.897 4.662-4.753s-2.057-4.753-4.662-4.753-4.662 1.897-4.662 4.753 2.057 4.753 4.662 4.753zm14.48 3.245l-5.2-15.997h4l3.542 11.77 3.542-11.77h4l-5.2 15.997h-4.662z" fill="#000"/></g></svg>