<svg xmlns="http://www.w3.org/2000/svg" width="16" height="13" fill="#54da83" fill-rule="nonzero"><path d="M15.065 13c.36 0 .67-.12.935-.36L11.472 8l-.313.23-.825.598a5.04 5.04 0 0 1-.843.438c-.35.15-.678.224-.98.224H8.5c-.303 0-.63-.074-.98-.224s-.632-.295-.843-.438l-.825-.598L5.53 8 1 12.64a1.35 1.35 0 0 0 .935.361h13.13zM.903 4.788A4.76 4.76 0 0 1 0 4v7l4-4.055L.903 4.788zm14.203 0L12 6.946 16 11V4c-.256.3-.555.553-.894.788zM14.57 0H1.428C.97 0 .617.155.37.464S0 1.16 0 1.625c0 .375.164.78.5 1.22s.676.78 1.045 1.03l3.27 2.27.9.63.133.095.246.177.482.34.464.3a2.71 2.71 0 0 0 .513.241 1.42 1.42 0 0 0 .446.08h.018a1.42 1.42 0 0 0 .446-.08c.16-.054.332-.134.513-.24l.464-.3.482-.34.246-.177.134-.095 4.18-2.902a4.48 4.48 0 0 0 1.1-1.098C15.885 2.348 16 1.9 16 1.43a1.37 1.37 0 0 0-.424-1.01A1.38 1.38 0 0 0 14.571 0z"/></svg>