<svg xmlns="http://www.w3.org/2000/svg" width="111" height="111" fill-rule="evenodd"><g fill="#333"><path d="M102.048 100.087V43.782c0-3.052-2.444-5.532-5.446-5.532H78.774v3.638h17.828c1.03 0 1.865.85 1.865 1.895v56.305H59.08v1.82h-7.16v-1.82H12.532V43.782c0-1.044.836-1.895 1.865-1.895h17.828V38.25H14.398c-3.002 0-5.446 2.48-5.446 5.532v56.305H0v6.022c0 2.697 2.16 4.89 4.814 4.89h101.37c2.655 0 4.814-2.193 4.814-4.89v-6.022h-8.952zm5.37 6.022c0 .69-.553 1.253-1.234 1.253H4.814c-.68 0-1.234-.564-1.234-1.253v-2.384H48.34v1.82H62.66v-1.82h44.758v2.384z" fill-rule="nonzero"/><path d="M16.172 96.75h78.656v-51H75.164v3.642h16.1v43.715H19.747V49.392h16.088V45.75H16.172zM53.662 0h3.675v5.25h-3.675zM37.187 5.8l3.18-1.874 2.57 4.547-3.18 1.874zm-12.03 13.645l1.836-3.246 4.455 2.627-1.836 3.246zM21.318 33h5.146v3.75h-5.146zM83.8 33h5.146v3.75H83.8z"/></g><path d="M67.63 67.5H40.85v-1.828c0-5.428-1.88-10.708-5.436-15.376-4.152-5.444-5.947-12.257-5.05-19.182C31.84 19.688 41.037 10.457 52.23 9.163c7.112-.82 14.246 1.486 19.548 6.335S80.126 27.3 80.126 34.59c0 5.845-1.88 11.348-5.436 15.913-3.4 4.372-5.275 9.72-5.275 15.054v1.828l-1.785.113z" fill="#54da83"/><g fill="#333"><path d="M46.11 47.852v15.936h-5.413c-2.984 0-5.413 2.448-5.413 5.456 0 1.937 1.014 3.632 2.528 4.6-.448.795-.724 1.7-.724 2.675 0 1.937 1.014 3.632 2.528 4.6-.448.795-.724 1.7-.724 2.675 0 3.008 2.43 5.456 5.413 5.456H65.96c2.984 0 5.413-2.448 5.413-5.456 0-.977-.276-1.88-.724-2.675 1.514-.968 2.528-2.663 2.528-4.6 0-.977-.276-1.88-.724-2.675 1.514-.968 2.528-2.663 2.528-4.6 0-3.008-2.43-5.456-5.413-5.456h-5.412V47.852c2.174-1.47 3.61-3.968 3.61-6.798 0-4.512-3.643-8.184-8.12-8.184h-9.022c-2.486 0-4.51-2.04-4.51-4.547s2.024-4.547 4.51-4.547h9.022c2.486 0 4.51 2.04 4.51 4.547v.91h3.61v-.91c0-4.512-3.643-8.184-8.12-8.184h-2.706V16.5h-3.61v3.637h-2.706c-4.477 0-8.12 3.672-8.12 8.184s3.643 8.184 8.12 8.184h9.022c2.486 0 4.51 2.04 4.51 4.547S62.13 45.6 59.644 45.6h-9.022c-2.486 0-4.51-2.04-4.51-4.547v-.91h-3.61v.91c0 2.832 1.435 5.33 3.61 6.798zm23.457 28.667c0 1.004-.8 1.82-1.805 1.82h-25.26c-.994 0-1.805-.815-1.805-1.82s.8-1.82 1.805-1.82h25.26c.994 0 1.805.815 1.805 1.82zm-3.61 9.093H44.307c-.994 0-1.805-.815-1.805-1.82s.8-1.82 1.805-1.82H65.96c.994 0 1.805.815 1.805 1.82s-.8 1.82-1.805 1.82zm5.413-16.368c0 1.004-.8 1.82-1.805 1.82h-28.87c-.994 0-1.805-.815-1.805-1.82s.8-1.82 1.805-1.82h28.87c.995 0 1.805.815 1.805 1.82zM53.33 49.237v3.637h3.61v-3.637h2.706c.31 0 .603-.058.902-.093v14.643H49.72V49.144c.3.035.594.093.902.093h2.706z" fill-rule="nonzero"/><path d="M79.553 18.815l4.455-2.626 1.836 3.246-4.455 2.626zM68.06 8.462l2.57-4.548 3.18 1.874-2.57 4.548z"/></g></svg>