<svg xmlns="http://www.w3.org/2000/svg" width="111" height="104" fill-rule="evenodd"><ellipse fill="#54da83" cx="55.117" cy="62.923" rx="32.152" ry="32.415"/><path d="M105.63 21.46H91.303c-.016-2.32-1.507-4.278-3.577-5.025V12.58C87.726 5.644 82.075 0 75.133 0h-39.23c-6.945 0-12.63 5.644-12.63 12.58v3.843c-1.79.74-3.56 2.706-3.577 5.038H5.37C2.4 21.46 0 23.868 0 26.826v71.536c0 2.958 2.4 5.365 5.37 5.365H105.63c2.96 0 5.37-2.407 5.37-5.365V26.826c0-2.958-2.4-5.365-5.37-5.365zm-68.036 0c-.016-2.32-1.507-4.278-3.577-5.025v-2.52a3.19 3.19 0 0 1 3.187-3.183h36.594a3.19 3.19 0 0 1 3.187 3.183v2.52c-2.07.747-3.56 2.708-3.577 5.025H37.593zM78.8 19.673h7.1a1.83 1.83 0 0 1 1.826 1.789H76.984a1.83 1.83 0 0 1 1.826-1.789zM26.855 12.58c0-4.965 4.078-9.003 9.048-9.003h39.23a9.02 9.02 0 0 1 9.013 9.003v3.516h-3.58v-2.182c0-3.727-3.036-6.76-6.767-6.76H37.203c-3.73 0-6.767 3.033-6.767 6.76v2.182h-3.58V12.58zM25.1 19.673h7.1a1.83 1.83 0 0 1 1.826 1.789H23.274a1.83 1.83 0 0 1 1.826-1.789zM5.37 25.038H105.63c.987 0 1.79.803 1.79 1.79V48.5l-19.926 2.654c-4.714-13.12-17.255-22.55-31.993-22.55s-27.28 9.428-31.993 22.55L3.58 48.5V26.826c0-.985.804-1.79 1.79-1.79zm69.065 35.768c-.018-.552-.05-1.096-.086-1.64 1.642-.823 2.782-2.504 2.782-4.46 0-2.56-1.94-4.653-4.426-4.948a38.73 38.73 0 0 0-1.142-3.362c2.234-1.202 4.33-2.677 6.275-4.378 4.626 5.01 7.58 11.557 8.005 18.79H74.436zM57.3 33.556c2.567 1.787 6.58 5.268 9.585 11.102-3.03 1.222-6.263 1.92-9.585 2.112V33.556zM47.212 38.6c0 .79-.643 1.43-1.432 1.43s-1.432-.642-1.432-1.43.643-1.43 1.432-1.43 1.432.642 1.432 1.43zm-2.444 4.906a5.09 5.09 0 0 0 1.011.102c2.764 0 5.013-2.246 5.013-5.008 0-.792-.202-1.533-.532-2.2 1.27-1.218 2.462-2.153 3.448-2.84v13.21c-3.323-.193-6.554-.9-9.583-2.1.202-.39.426-.77.643-1.153zm8.94 6.84v10.458H40.155c.172-4.67 1.015-8.972 2.52-12.87 3.482 1.417 7.208 2.212 11.036 2.41zm0 14.035v10.426c-.13.007-.26.02-.4.03-.857-1.53-2.48-2.58-4.357-2.58-2.594 0-4.708 1.985-4.963 4.508a31.37 31.37 0 0 0-1.316.506c-1.378-3.555-2.313-7.84-2.505-12.887l13.53-.002zm-3.316 12.88c0 .79-.643 1.43-1.432 1.43s-1.432-.642-1.432-1.43.643-1.43 1.432-1.43 1.432.642 1.432 1.43zm-5.425 2.995c.915 1.214 2.356 2.012 3.992 2.012 2.226 0 4.096-1.467 4.748-3.476V91.63c-2.553-1.783-6.524-5.28-9.526-11.072l.786-.3zm12.32 11.4V78.43c3.312.197 6.535.923 9.57 2.146-3.007 5.852-7 9.32-9.57 11.08zm0-16.845v-10.43h13.53c-.188 5.06-1.1 9.343-2.47 12.892-3.5-1.427-7.236-2.262-11.06-2.462zm0-14.007V50.347c3.828-.198 7.55-.994 11.032-2.41.33.855.634 1.75.91 2.688-1.282.908-2.127 2.395-2.127 4.08 0 2.286 1.55 4.198 3.65 4.795.03.43.043.867.06 1.306H57.3v.002zm14.83-4.67c-.79 0-1.432-.642-1.432-1.43s.643-1.43 1.432-1.43 1.432.642 1.432 1.43-.64 1.43-1.432 1.43zm-2.012-13.03c-2.326-4.564-5.2-7.842-7.754-10.108a30.34 30.34 0 0 1 12.912 6.524c-1.608 1.38-3.33 2.58-5.158 3.584zm-22.465-9.144c-.438-.177-.91-.275-1.402-.32.8-.256 1.617-.463 2.442-.653-.342.304-.686.63-1.04.973zm-5.883 7.6c-.294.512-.59 1.023-.857 1.55-1.83-1.003-3.555-2.21-5.167-3.59 1.885-1.615 3.973-3 6.214-4.1-.727.87-1.182 1.972-1.182 3.19 0 1.11.376 2.128.992 2.96zm-8.6.454c1.944 1.7 4.04 3.176 6.273 4.378-1.724 4.37-2.68 9.19-2.857 14.41h-11.42c.424-7.232 3.377-13.78 8.005-18.79zm3.402 22.366c.192 5.684 1.275 10.46 2.832 14.438-2.234 1.205-4.34 2.654-6.257 4.326a30.22 30.22 0 0 1-7.981-18.764h11.406zm4.317 17.74c2.308 4.52 5.177 7.794 7.714 10.052a30.34 30.34 0 0 1-12.846-6.497 30.95 30.95 0 0 1 5.131-3.555zm29.243 0a30.33 30.33 0 0 1 5.135 3.552c-3.643 3.117-8.026 5.378-12.85 6.5 2.537-2.26 5.408-5.53 7.716-10.052zm7.743 1.02c-1.932-1.686-4.034-3.133-6.255-4.33 1.556-3.977 2.64-8.75 2.83-14.43h11.406c-.422 7.218-3.366 13.756-7.98 18.76zm27.764 17.008H5.37c-.987 0-1.79-.803-1.79-1.79V52.117l18.884 2.516c-.618 2.557-.98 5.215-.98 7.96 0 18.737 15.26 33.98 34.016 33.98s34.016-15.243 34.016-33.98c0-2.745-.364-5.403-.98-7.96l18.884-2.516V98.36c0 .986-.804 1.79-1.79 1.79z" fill="#333" fill-rule="nonzero"/></svg>