<svg xmlns="http://www.w3.org/2000/svg" xmlns:xlink="http://www.w3.org/1999/xlink" width="72" height="72"><g fill-rule="evenodd"><g fill="#000"><path d="M54 24.817l-6.768-10.73-6.768 10.73 1.963 1.216 3.648-5.783V33.45c0 3.16-2.596 5.733-5.787 5.733H39.13v2.293h1.157c4.467 0 8.1-3.602 8.1-8.027V20.25l3.648 5.783L54 24.817z"/><path d="M66.194 18.58h-1.16V0H6.968v18.58h-1.16C2.605 18.58 0 21.186 0 24.387v34.84c0 3.2 2.605 5.806 5.806 5.806h15.097v4.645h-4.645V72h39.484v-2.323h-4.645v-4.645h15.097c3.2 0 5.806-2.605 5.806-5.806v-34.84c0-3.2-2.605-5.806-5.806-5.806zM9.3 2.323H62.7V9.3H9.3V2.323zm-3.484 18.58h1.16v27.87h11.448v-2.323H9.3v-34.84H62.7v34.84H37.326v2.323h27.706v-27.87h1.16a3.49 3.49 0 0 1 3.484 3.484v31.355H2.323V24.387a3.49 3.49 0 0 1 3.484-3.484zm42.968 48.774H23.226v-4.645h25.548v4.645zm17.42-6.968H5.806a3.49 3.49 0 0 1-3.484-3.484v-1.16h67.355v1.16a3.49 3.49 0 0 1-3.484 3.484z" fill-rule="nonzero"/><path d="M11.74 4.696h2.348v2.348H11.74zm4.695 0h2.348v2.348h-2.348zm4.695 0h2.348v2.348H21.13zm-2.424 9.4l-2.662 2.662-2.662-2.662-1.642 1.642 2.662 2.662-2.662 2.662 1.642 1.642 2.662-2.662 2.662 2.662 1.642-1.642-2.662-2.662 2.662-2.662z"/></g><g fill-rule="nonzero"><path d="M40.696 37.1l-2.883-.96 1.36-2.718-4.517-4.517-2.718 1.36-.96-2.883H24.59l-.96 2.883-2.718-1.36-4.517 4.517 1.36 2.718-2.884.96v6.388l2.883.96-1.36 2.718 4.517 4.517 2.718-1.36.96 2.884h6.388l.96-2.883 2.718 1.36 4.517-4.517-1.36-2.718 2.884-.96V37.1zM27.783 45c-2.593 0-4.696-2.102-4.696-4.696s2.102-4.696 4.696-4.696 4.696 2.102 4.696 4.696S30.376 45 27.783 45z" fill="#54da83"/><path d="M27.783 46.174a5.88 5.88 0 0 1-5.87-5.87 5.88 5.88 0 0 1 5.87-5.87 5.88 5.88 0 0 1 5.87 5.87 5.88 5.88 0 0 1-5.87 5.87zm0-9.39a3.53 3.53 0 0 0-3.522 3.522 3.53 3.53 0 0 0 3.522 3.522 3.53 3.53 0 0 0 3.522-3.522 3.53 3.53 0 0 0-3.522-3.522z" fill="#000"/></g><g fill="#54da83"><use xlink:href="#B"/><use xlink:href="#B" x="19.69" y="21.132"/></g></g><defs ><path id="B" d="M35.937 23.478c-2.555 0-4.633-2.106-4.633-4.696s2.078-4.696 4.633-4.696 4.633 2.106 4.633 4.696-2.078 4.696-4.633 4.696z"/></defs></svg>