<svg xmlns="http://www.w3.org/2000/svg" width="72" height="72" fill-rule="evenodd"><path d="M27.49 54.58h-2.29v-6.495h-2.29v6.495h-6.872v-6.495h-2.29v6.495h-2.29v2.323h2.29v9.3c0 3.2 2.57 5.806 5.727 5.806s5.727-2.605 5.727-5.806v-9.3h2.29V54.58zm-4.582 11.613c0 1.92-1.542 3.484-3.436 3.484s-3.436-1.563-3.436-3.484v-9.3h6.872v9.3z" fill="#000" fill-rule="nonzero"/><path d="M23.734 52.258H15.2l-1.05-3.186c-.862-.283-1.695-.63-2.487-1.04l-2.96 1.496-6.027-6.108 1.478-3c-.403-.8-.746-1.647-1.025-2.52L0 36.838v-8.642l3.142-1.064a17.27 17.27 0 0 1 1.025-2.521L2.7 21.613 8.717 15.5 11.675 17c.8-.41 1.624-.756 2.487-1.04l1.048-3.186h8.523l1.05 3.186a16.77 16.77 0 0 1 2.487 1.039l2.957-1.498 6.028 6.112-1.478 2.998c.403.8.746 1.647 1.025 2.52l3.142 1.063v8.642L35.8 37.9a17.27 17.27 0 0 1-1.025 2.521l1.478 3-6.027 6.108-2.96-1.496c-.8.41-1.624.755-2.487 1.04l-1.048 3.186z" fill="#54da83"/><g fill="#000"><path d="M19.47 31.355c-.632 0-1.145-.522-1.145-1.16s.513-1.16 1.145-1.16 1.145.522 1.145 1.16h2.29c0-1.512-.96-2.79-2.29-3.27v-2.536h-2.29v2.536c-1.33.48-2.29 1.758-2.29 3.27 0 1.92 1.542 3.484 3.436 3.484.632 0 1.145.522 1.145 1.16S20.103 36 19.47 36s-1.145-.522-1.145-1.16h-2.29c0 1.512.96 2.79 2.29 3.27v2.536h2.29V38.11c1.33-.48 2.29-1.758 2.29-3.27 0-1.92-1.542-3.484-3.436-3.484z"/><path d="M19.47 45.3c-6.947 0-12.6-5.73-12.6-12.774s5.653-12.774 12.6-12.774 12.6 5.73 12.6 12.774S26.418 45.3 19.47 45.3zm0-23.226c-5.684 0-10.308 4.69-10.308 10.452s4.624 10.452 10.308 10.452 10.308-4.69 10.308-10.452-4.624-10.452-10.308-10.452z" fill-rule="nonzero"/><path d="M56.124 0v2.323h8.85l-1.05 1.16c-6.273 6.94-14.244 12.18-23.052 15.156l.725 2.204c9.177-3.102 17.48-8.562 24.017-15.8l.82-.906v8.627h2.29V0h-12.6z"/></g><path d="M64.142 16.258h6.872v27.87h-6.872zm-11.454 4.645h6.872V44.13h-6.872zm-11.454 4.645h6.872v18.58h-6.872z" fill="#54da83"/><path d="M41.234 49.935h2.3v2.323h-2.3zm4.58 0H66.43v2.323H45.815zm-4.58 4.645h2.3v2.323h-2.3zm4.58 0H66.43v2.323H45.815zm-4.58 4.646h2.3v2.323h-2.3zm4.58 0H66.43v2.323H45.815zm-4.58 4.644h2.3v2.323h-2.3zm4.58 0H66.43v2.323H45.815z" fill="#000"/></svg>