<svg xmlns="http://www.w3.org/2000/svg" width="72" height="72" fill-rule="evenodd"><path d="M51.097 13.935h16.258v2.323H51.097zm0 4.645h16.258v2.323H51.097zm13.935 4.646h2.323v2.323h-2.323zm-18.58 0H62.7v2.323H46.452zm-34.84 12.622v-5.654h-8.13A3.49 3.49 0 0 1 0 26.71V12.774A3.49 3.49 0 0 1 3.484 9.29H24.62v2.323H3.484c-.64 0-1.16.522-1.16 1.16V26.7a1.16 1.16 0 0 0 1.16 1.16h10.452v3.636L19.4 27.87h7.32c.64 0 1.16-.522 1.16-1.16v-4.662h2.323V26.7a3.49 3.49 0 0 1-3.484 3.484h-6.616l-8.48 5.654zm48.774 0l-8.48-5.654H45.3a3.49 3.49 0 0 1-3.484-3.484v-4.662h2.323V26.7a1.16 1.16 0 0 0 1.16 1.16h7.32l5.454 3.636V27.87h10.452c.64 0 1.16-.522 1.16-1.16V12.774a1.16 1.16 0 0 0-1.16-1.16H47.38V9.3h21.137A3.49 3.49 0 0 1 72 12.774V26.7a3.49 3.49 0 0 1-3.484 3.484h-8.13v5.654zM4.645 13.935h16.258v2.323H4.645zm0 4.645h16.258v2.323H4.645zm0 4.646h16.258v2.323H4.645zm18.58 0h2.323v2.323h-2.323z" fill="#000"/><path d="M36 25.548c-7.043 0-12.774-5.73-12.774-12.774S28.957 0 36 0s12.774 5.73 12.774 12.774S43.043 25.548 36 25.548z" fill="#54da83"/><path d="M36 11.613c-.64 0-1.16-.522-1.16-1.16S35.36 9.3 36 9.3s1.16.522 1.16 1.16h2.323c0-1.512-.974-2.79-2.323-3.27V4.645H34.84v2.536c-1.348.48-2.323 1.758-2.323 3.27A3.49 3.49 0 0 0 36 13.935c.64 0 1.16.522 1.16 1.16s-.52 1.16-1.16 1.16-1.16-.522-1.16-1.16h-2.323c0 1.512.974 2.79 2.323 3.27v2.536h2.323v-2.536c1.348-.48 2.323-1.758 2.323-3.27A3.49 3.49 0 0 0 36 11.613z" fill="#000"/><path d="M58.065 37.16c-5.763 0-10.452 4.688-10.452 10.452v4.645h1.16c0-1.925 1.56-3.484 3.484-3.484h.2c2.103 0 4.12-.835 5.607-2.323a7.93 7.93 0 0 0 5.607 2.323h.2c1.925 0 3.484 1.56 3.484 3.484h1.16v-4.645c0-5.763-4.688-10.452-10.452-10.452zm-44.13 0c-5.763 0-10.452 4.688-10.452 10.452v4.645h1.16c0-1.925 1.56-3.484 3.484-3.484H19.74c1.925 0 3.484 1.56 3.484 3.484h1.16v-4.645c0-5.763-4.688-10.452-10.452-10.452z" fill="#54da83"/><path d="M68.233 62.814l-5.523-2.07v-.984a6.96 6.96 0 0 0 1.945-2.936c2.188-.375 3.862-2.274 3.862-4.566a4.65 4.65 0 0 0-4.645-4.645h-.2a6.72 6.72 0 0 1-4.786-1.982l-.82-.822-.82.822a6.72 6.72 0 0 1-4.786 1.982h-.2a4.65 4.65 0 0 0-4.645 4.645c0 2.293 1.673 4.2 3.862 4.566a6.98 6.98 0 0 0 1.945 2.936v.985l-5.522 2.07c-2.254.844-3.77 3.03-3.77 5.436V72H72v-3.75c0-2.407-1.515-4.592-3.767-5.437zm-4.698.72l-1.332 3.995-2.496-2.496L61.84 62.9l1.693.635zm-2.467 6.144H55.06l3.003-3.003 3.003 3.003zM58.065 63.4l-2.205-2.205a6.93 6.93 0 0 0 4.41 0L58.065 63.4zm8.13-11.132c0 .856-.47 1.597-1.16 2v-4c.7.402 1.16 1.143 1.16 2zm-8.13-4.256c1.34 1.056 2.945 1.674 4.645 1.854v4.725a4.65 4.65 0 0 1-4.645 4.645 4.65 4.65 0 0 1-4.645-4.645v-4.724c1.7-.18 3.304-.8 4.645-1.855zm-8.13 4.256c0-.856.47-1.597 1.16-2v4c-.7-.402-1.16-1.143-1.16-2zm4.353 10.64l2.134 2.134-2.494 2.496-1.332-3.995 1.692-.635zm-7.836 5.353a3.5 3.5 0 0 1 2.261-3.262l1.707-.64 1.775 5.328H46.45V68.25zm23.226 1.426h-5.744l1.775-5.328 1.708.64a3.5 3.5 0 0 1 2.26 3.261v1.426zm-45.574-6.873l-5.523-2.07v-.984a6.96 6.96 0 0 0 1.945-2.936c2.188-.375 3.862-2.274 3.862-4.566a4.65 4.65 0 0 0-4.645-4.645H8.13a4.65 4.65 0 0 0-4.645 4.645c0 2.293 1.673 4.2 3.862 4.566A6.98 6.98 0 0 0 9.29 59.76v.985l-5.522 2.07C1.515 63.66 0 65.844 0 68.25V72h27.87v-3.75c0-2.407-1.515-4.592-3.767-5.437zm-4.698.72l-1.332 3.995-2.496-2.496 2.134-2.134 1.693.635zm-2.467 6.144h-6.006l3.003-3.003 3.003 3.003zM13.935 63.4l-2.205-2.205a6.93 6.93 0 0 0 2.205.363 6.93 6.93 0 0 0 2.205-.363L13.935 63.4zm0-4.164a4.65 4.65 0 0 1-4.645-4.645v-4.645h9.3v4.645a4.65 4.65 0 0 1-4.645 4.645zm8.13-6.968c0 .856-.47 1.597-1.16 2v-4c.7.402 1.16 1.143 1.16 2zm-16.258 0c0-.856.47-1.597 1.16-2v4c-.7-.402-1.16-1.143-1.16-2zm4.353 10.64l2.134 2.134L9.8 67.528l-1.332-3.995 1.692-.635zM2.323 68.25a3.5 3.5 0 0 1 2.261-3.262l1.707-.64 1.775 5.328H2.323V68.25zm23.226 1.426h-5.744l1.775-5.328 1.708.64a3.5 3.5 0 0 1 2.26 3.261v1.426z" fill="#000" fill-rule="nonzero"/></svg>