<svg xmlns="http://www.w3.org/2000/svg" width="82" height="59" viewBox="0 0 82 59">
    <g fill="#DDFBE8" fill-rule="nonzero">
        <path d="M64.845 21.626c-.165-1.792-.039-6.665 4.618-13.44.352-.511.288-1.2-.15-1.64-1.898-1.902-3.073-3.103-3.897-3.943C64.332 1.495 63.836.99 63.112.332a1.284 1.284 0 0 0-1.704-.016c-8.115 7.079-17.13 21.707-15.825 39.629.764 10.523 8.422 18.161 18.206 18.161C73.831 58.106 82 49.918 82 39.852c0-9.711-7.603-17.675-17.155-18.226zM19.39 22.52c-.168-1.788-.045-6.656 4.616-13.44a1.29 1.29 0 0 0-.15-1.64c-1.894-1.899-3.067-3.098-3.89-3.939-1.088-1.11-1.584-1.616-2.308-2.276a1.286 1.286 0 0 0-1.704-.017C7.839 8.288-1.176 22.913.126 40.838v.002C.893 51.362 8.55 59 18.334 59c10.04 0 18.21-8.188 18.21-18.255 0-9.712-7.603-17.676-17.155-18.225z"/>
    </g>
</svg>
