<svg xmlns="http://www.w3.org/2000/svg" width="94" height="89" fill="#54da83" fill-rule="evenodd"><path d="M86.198 36.975c-2.1 0-3.802 1.683-3.802 3.76v3.787c-.006 9.878-3.9 19.162-10.968 26.143C64.366 77.64 54.98 81.48 45 81.48h-.022c-20.62-.01-37.386-16.6-37.374-37 .006-9.878 3.9-19.162 10.968-26.143C25.634 11.36 35.02 7.52 45 7.52h.022a37.55 37.55 0 0 1 15.2 3.2 3.82 3.82 0 0 0 5.02-1.904c.855-1.897-.007-4.12-1.925-4.964A45.14 45.14 0 0 0 45.026 0H45C33 0 21.696 4.622 13.198 13.016 4.694 21.416.007 32.588 0 44.475S4.667 67.54 13.162 75.95 32.954 88.993 44.974 89H45c12 0 23.303-4.622 31.8-13.016 8.504-8.4 13.2-19.572 13.198-31.46v-3.8c0-2.077-1.702-3.76-3.802-3.76zM92.9 5.094a3.82 3.82 0 0 0-5.354 0L45.092 46.98l-9.63-9.503a3.82 3.82 0 0 0-5.353 0 3.7 3.7 0 0 0 0 5.283l12.306 12.144a3.8 3.8 0 0 0 5.354 0l45.122-44.53a3.7 3.7 0 0 0 0-5.283z"/></svg>