<?xml version="1.0" encoding="UTF-8"?>
<svg width="155px" height="156px" viewBox="0 0 155 156" version="1.1" xmlns="http://www.w3.org/2000/svg" xmlns:xlink="http://www.w3.org/1999/xlink">
    <!-- Generator: sketchtool 52.1 (67048) - http://www.bohemiancoding.com/sketch -->
    <title>98F78C40-86F4-41AB-B6D4-9A3D1EAA334B</title>
    <desc>Created with sketchtool.</desc>
    <g id="Page-1" stroke="none" stroke-width="1" fill="none" fill-rule="evenodd">
        <g id="Yevdokimov-MVP-Website" transform="translate(-137.000000, -234.000000)" fill="#54DA83">
            <g id="pattern" transform="translate(137.000000, 234.000000)">
                <g id="PAttern1-Copy">
                    <g id="PAttern-3">
                        <path d="M72.4060275,69.5381897 C71.6147683,68.7455915 70.33214,68.7469993 69.5394729,69.5395975 C68.7468058,70.3307878 68.7453978,71.6133046 69.5394729,72.4059028 C70.3293241,73.1970932 71.6147683,73.198501 72.4060275,72.4073106 C73.1986946,71.6133046 73.1972867,70.32938 72.4060275,69.5381897" id="Fill-1"></path>
                        <path d="M59.4445241,70.585325 C59.3698611,70.2022239 59.1839078,69.8360244 58.888073,69.5388393 C58.1935658,68.845877 57.1257432,68.7585525 56.3368505,69.2782742 C56.2255603,69.3529226 56.1184963,69.4388387 56.018476,69.5374309 C55.2281746,70.3289853 55.2281746,71.6135008 56.0198847,72.4064637 C56.3171282,72.7022403 56.6833998,72.888157 57.067985,72.9628054 C57.7061428,73.0867499 58.3936064,72.9008331 58.888073,72.4064637 C58.9866846,72.3078715 59.0726176,72.2008286 59.1472806,72.0881518 C59.4445241,71.6388531 59.5431357,71.096596 59.4445241,70.585325" id="Fill-3"></path>
                        <path d="M72.9628228,57.0668138 C72.8881867,56.6838285 72.7023007,56.3177397 72.4051646,56.0206445 C71.6137406,55.2279212 70.3308451,55.2279212 69.5380129,56.0192364 C68.7479971,56.8105516 68.7451807,58.0960868 69.5380129,58.88881 C69.8337407,59.1859052 70.2012882,59.3717657 70.5857344,59.4449835 C71.2250697,59.5674825 71.9122849,59.381622 72.4051646,58.887402 C72.9008608,58.391774 73.0867468,57.7060613 72.9628228,57.0668138" id="Fill-5"></path>
                        <path d="M72.4055989,27.6314305 C71.9098143,27.1356523 71.2238851,26.951144 70.5844357,27.07368 C70.2027379,27.1483285 69.8365334,27.3342453 69.5393444,27.6314305 C69.3407488,27.828615 69.1928586,28.0581942 69.0928566,28.3018579 C68.7956675,29.0342575 68.9449663,29.9032778 69.5393444,30.4990567 C70.1337224,31.0920187 71.0041624,31.2413156 71.7351629,30.9441303 C71.9802383,30.8455381 72.2084118,30.6976497 72.4070074,30.4990567 C72.7041964,30.20328 72.8901156,29.8356717 72.9633565,29.4525704 C73.0858942,28.8131291 72.9013834,28.1258003 72.4055989,27.6314305" id="Fill-7"></path>
                        <path d="M72.1502259,14.6140593 C71.3904852,13.8543185 70.1575963,13.8543185 69.3965037,14.6154111 C68.636763,15.3751519 68.6354111,16.6080407 69.3965037,17.3677815 C70.1562444,18.1275222 71.3904852,18.1288741 72.1488741,17.3691333 C72.9113185,16.6080407 72.9099667,15.3738 72.1502259,14.6140593" id="Fill-9"></path>
                        <path d="M59.1474112,14.4308048 C59.0727773,14.3181258 58.9868779,14.2124893 58.8868966,14.1124867 C58.6897505,13.9152986 58.4616243,13.765999 58.2165998,13.6674049 C57.8504713,13.5195138 57.4505463,13.4814847 57.0661113,13.554726 C56.6830846,13.6293758 56.316956,13.815296 56.0198286,14.1124867 C55.8226825,14.3110834 55.6734147,14.5392582 55.5748417,14.7829264 C55.3762873,15.2716713 55.3762873,15.8209812 55.5748417,16.3083176 C55.6734147,16.5533943 55.8240907,16.7815692 56.0212368,16.9801658 C56.1212181,17.0787599 56.2268321,17.166086 56.339487,17.2407358 C56.9013535,17.6111679 57.606855,17.6731413 58.218008,17.4252476 C58.4616243,17.3266535 58.6897505,17.1787624 58.8868966,16.9801658 C59.184024,16.6843836 59.3699047,16.3167685 59.4445386,15.9336601 C59.5431116,15.4223794 59.4445386,14.880112 59.1474112,14.4308048" id="Fill-12"></path>
                        <path d="M72.3997778,1.15556296 C72.3281296,1.04741481 72.2456667,0.946025926 72.1496852,0.850044444 C71.9604259,0.660785185 71.7414259,0.517488889 71.5062037,0.422859259 C70.8018889,0.137618519 69.9677963,0.279562963 69.3973148,0.850044444 C68.8268333,1.41917407 68.683537,2.25597037 68.9687778,2.96028519 C69.0634074,3.19415556 69.2067037,3.41450741 69.395963,3.60511852 C69.4919444,3.69974815 69.5946852,3.78221111 69.7014815,3.85385926 C70.4571667,4.35269259 71.4859259,4.26752593 72.1496852,3.60241481 C72.8161481,2.9373037 72.8986111,1.91124815 72.3997778,1.15556296" id="Fill-14"></path>
                        <path d="M45.3678057,56.0206801 C44.6749515,55.3264075 43.6060972,55.2405035 42.8188909,55.7601518 C42.7062317,55.8347897 42.6006137,55.9221019 42.5020368,56.0206801 C41.7091976,56.8121228 41.7091976,58.0950485 42.5020368,58.8878995 C43.2934678,59.6793421 44.5777829,59.6793421 45.3692139,58.8878995 C45.4677907,58.7893212 45.5551016,58.6822934 45.6297383,58.5710408 C46.149379,57.7824146 46.0606598,56.7135445 45.3678057,56.0206801" id="Fill-17"></path>
                        <path d="M58.888063,42.5015087 C58.0954304,41.7086697 56.812858,41.7100779 56.0216333,42.5015087 C55.2290007,43.2929396 55.226185,44.5772544 56.0202254,45.3700935 C56.8100422,46.1615243 58.0968383,46.1601161 58.888063,45.3686852 C59.6792877,44.5772544 59.6792877,43.2929396 58.888063,42.5015087" id="Fill-19"></path>
                        <path d="M45.369042,42.5007016 C44.5778515,41.7094082 43.2939267,41.7094082 42.5013283,42.5021096 C41.7101378,43.2934031 41.70873,44.5774949 42.5013283,45.3687884 C43.2925189,46.1600819 44.5778515,46.1614899 45.369042,45.3701964 C46.1616404,44.5774949 46.1602325,43.2919951 45.369042,42.5007016" id="Fill-21"></path>
                        <path d="M58.8876378,56.0192201 C58.0965503,55.2279267 56.8127925,55.2279267 56.0202973,56.0206281 C55.2278021,56.8119216 55.2278021,58.0960135 56.0202973,58.8873069 C56.8113849,59.6786004 58.0965503,59.6800084 58.8876378,58.8887149 C59.680133,58.0960135 59.6787254,56.8105136 58.8876378,56.0192201" id="Fill-23"></path>
                        <path d="M58.8875605,27.6307822 C58.09637,26.8381841 56.8124452,26.8395919 56.0198469,27.6321901 C55.2286563,28.4233804 55.2272485,29.707305 56.0198469,30.4984954 C56.8110374,31.2896858 58.09637,31.2910936 58.8875605,30.4999032 C59.6801589,29.707305 59.6787511,28.4219726 58.8875605,27.6307822" id="Fill-25"></path>
                        <path d="M72.1502259,42.1447926 C71.3904852,41.3850519 70.1575963,41.3850519 69.3965037,42.1461444 C68.6354111,42.9058852 68.6354111,44.1387741 69.3965037,44.8985148 C70.1562444,45.6582556 71.3904852,45.6596074 72.1502259,44.8998667 C72.9113185,44.1387741 72.9099667,42.9045333 72.1502259,42.1447926" id="Fill-27"></path>
                        <path d="M30.7587855,42.8201423 C30.6841366,42.7074508 30.59822,42.6003938 30.4982188,42.5017887 C30.3010331,42.3031699 30.0714527,42.1552623 29.8277876,42.0566572 C29.2179206,41.8087358 28.5108693,41.8693075 27.9488902,42.2411896 C27.8362127,42.3158477 27.7305776,42.401775 27.6305763,42.5003801 C27.0376109,43.0948279 26.8883132,43.96537 27.1855001,44.697865 C27.2855014,44.9415604 27.4333906,45.1711694 27.6319847,45.3697882 C27.7305776,45.4683933 27.8376212,45.5543206 27.9502987,45.6289788 C28.7362243,46.1487685 29.8066606,46.0614325 30.4982188,45.3697882 C30.59822,45.2697745 30.6841366,45.1641262 30.7587855,45.0514347 C31.2038616,44.3766941 31.2038616,43.4948829 30.7587855,42.8201423" id="Fill-30"></path>
                        <path d="M45.6287865,27.9495937 C45.5541597,27.8369518 45.4682685,27.7299419 45.3682967,27.6313802 C45.1711694,27.4328487 44.9430648,27.2850062 44.6980637,27.1864445 C43.9658763,26.8879433 43.0956997,27.0371939 42.5015015,27.6299722 C41.9073033,28.2241585 41.7594577,29.0943177 42.0551488,29.8278984 C42.1537125,30.0728947 42.3029661,30.3009947 42.5000934,30.4995261 C42.6000652,30.5980878 42.7070772,30.6853854 42.8183134,30.7600107 C43.6054148,31.2781637 44.6769429,31.1908662 45.3682967,30.4981181 C46.0624667,29.80537 46.1483579,28.7366794 45.6287865,27.9495937" id="Fill-32"></path>
                        <path d="M30.4984182,69.5385458 C29.7057169,68.7457067 28.4230333,68.7471149 27.63174,69.5385458 C26.8404468,70.3299766 26.8376308,71.6142914 27.630332,72.4071305 C28.4216253,73.1985614 29.7071249,73.1971531 30.4998262,72.4057223 C31.2911194,71.6142914 31.2897114,70.3299766 30.4984182,69.5385458" id="Fill-34"></path>
                        <path d="M16.9801531,69.5377387 C16.1889626,68.7464452 14.9050378,68.7464452 14.1124395,69.5391467 C13.3212489,70.3304401 13.3198411,71.614532 14.1124395,72.4058254 C14.90363,73.1971189 16.1889626,73.1985269 16.9801531,72.4072334 C17.7727515,71.614532 17.7713437,70.3290321 16.9801531,69.5377387" id="Fill-36"></path>
                        <path d="M30.4993498,56.0192201 C29.7067171,55.2279267 28.4241443,55.2279267 27.6315116,56.0206281 C26.8388788,56.8119216 26.8388788,58.0960135 27.6315116,58.8873069 C28.4227365,59.6786004 29.7067171,59.6800084 30.4979419,58.8887149 C31.2905747,58.0960135 31.2905747,56.8105136 30.4993498,56.0192201" id="Fill-38"></path>
                        <path d="M45.3691193,69.5377387 C44.5780317,68.7464452 43.2928664,68.7464452 42.5017788,69.5391467 C41.7092836,70.3304401 41.7092836,71.614532 42.5017788,72.4058254 C43.2928664,73.1971189 44.5780317,73.1985269 45.3691193,72.4072334 C46.1616145,71.614532 46.1602069,70.3290321 45.3691193,69.5377387" id="Fill-40"></path>
                        <path d="M3.72139823,69.8577442 C3.64674489,69.745062 3.56082313,69.6380139 3.46081584,69.539417 C3.26361835,69.3408147 3.03402414,69.1929193 2.79034439,69.0929138 C2.4241205,68.9450185 2.02268276,68.9069882 1.63955622,68.9816402 C1.25642968,69.0562921 0.890205783,69.2422177 0.593001004,69.5380085 C0.395803521,69.7366109 0.246496855,69.9647923 0.147898113,70.2098761 C-0.0492993709,70.6972265 -0.0492993709,71.2465522 0.147898113,71.7353112 C0.247905408,71.9789865 0.395803521,72.2085764 0.594409558,72.4071788 C0.6930083,72.5057757 0.800058362,72.5916959 0.912742639,72.6663478 C1.47475547,73.0367905 2.18044075,73.0987657 2.79034439,72.8522735 C3.0354327,72.7536765 3.26361835,72.6043726 3.46081584,72.4071788 C3.75802062,72.1099795 3.94394967,71.7437624 4.01860301,71.3606429 C4.11720175,70.8493475 4.01860301,70.3070644 3.72139823,69.8577442" id="Fill-42"></path>
                        <path d="M17.2399235,56.337957 C17.1653024,56.2252962 17.0794179,56.1196767 16.9794539,56.0196902 C16.7823417,55.8225338 16.5528469,55.6732583 16.3092726,55.5746801 C15.5771419,55.2775372 14.7070327,55.4254045 14.1128804,56.0196902 C13.5201361,56.6125677 13.3694861,57.4842806 13.6665622,58.2165758 C13.7651183,58.461613 13.9143603,58.6911594 14.1114724,58.8897241 C14.2114365,58.9883023 14.3184402,59.0742061 14.4296677,59.1488439 C15.2167083,59.6670836 16.2881535,59.5797715 16.9794539,58.8869076 C17.6735701,58.1940437 17.7594547,57.1251743 17.2399235,56.337957" id="Fill-44"></path>
                        <path d="M45.3686077,0.594286456 C44.8728614,0.0985975286 44.1869851,-0.0858776119 43.547585,0.0366364127 C43.1659167,0.111271393 42.7997404,0.298562948 42.5025743,0.594286456 C42.3039941,0.792843668 42.1561152,1.02097323 42.0561209,1.26459307 C41.7589548,1.99686081 41.9068337,2.86713284 42.5025743,3.46139627 C43.0954981,4.0556597 43.9672793,4.20352146 44.6982235,3.90779795 C44.9432799,3.80781524 45.1714359,3.65995348 45.3700161,3.46280448 C45.6671822,3.16567276 45.8530871,2.79813069 45.9263223,2.41509834 C46.0488505,1.77577228 45.864354,1.08997538 45.3686077,0.594286456" id="Fill-46"></path>
                        <path d="M58.3860759,0.850044444 C57.6263352,0.0889518519 56.3920944,0.0889518519 55.6310019,0.850044444 C54.8712611,1.60978519 54.8712611,2.84267407 55.6323537,3.60376667 C56.3920944,4.36350741 57.6263352,4.36485926 58.3847241,3.60511852 C59.1458167,2.84267407 59.1458167,1.60978519 58.3860759,0.850044444" id="Fill-48"></path>
                        <path d="M16.9794734,27.6308049 C16.2865782,26.9378841 15.2176607,26.8519732 14.4304079,27.3702554 C14.3177421,27.4448993 14.2121178,27.5322186 14.1121268,27.6308049 C13.3206491,28.422312 13.3206491,29.7053422 14.1121268,30.4982576 C14.9050129,31.2897647 16.1894039,31.2911731 16.9808817,30.499666 C17.0794643,30.3996713 17.1667804,30.2940432 17.2414215,30.1813731 C17.7596846,29.3940912 17.6723685,28.3237257 16.9794734,27.6308049" id="Fill-51"></path>
                        <path d="M30.4984182,14.112066 C29.7071249,13.3206694 28.4244413,13.3206694 27.63174,14.112066 C26.8404468,14.9034626 26.8376308,16.1877218 27.630332,16.9805266 C28.4216253,17.7719232 29.7085329,17.7719232 30.4998262,16.9805266 C31.2911194,16.1877218 31.2897114,14.9034626 30.4984182,14.112066" id="Fill-53"></path>
                        <path d="M16.9807541,14.1122637 C16.1880181,13.3196655 14.9052785,13.3210733 14.1125426,14.1136715 C13.3212147,14.9048619 13.3198066,16.1873787 14.1125426,16.9799769 C14.9038704,17.7711673 16.1880181,17.7725751 16.979346,16.9813847 C17.7720819,16.1873787 17.7720819,14.9034541 16.9807541,14.1122637" id="Fill-55"></path>
                        <path d="M30.4992254,27.6313826 C29.7066615,26.8389219 28.4242001,26.8389219 27.6302283,27.6313826 C26.8390721,28.4224358 26.8390721,29.7061377 27.6316361,30.4985985 C28.4227923,31.2896516 29.7066615,31.2910592 30.4992254,30.500006 C31.2903816,29.7061377 31.2903816,28.4224358 30.4992254,27.6313826" id="Fill-57"></path>
                        <path d="M30.4991224,0.593745209 C29.7064209,-0.198852986 28.4237369,-0.197445174 27.6310353,0.595153021 C26.8397418,1.3863434 26.8383338,2.6688602 27.6310353,3.46145839 C28.4223289,4.25264878 29.7064209,4.25405659 30.4991224,3.4628662 C31.290416,2.6688602 31.290416,1.38493559 30.4991224,0.593745209" id="Fill-59"></path>
                        <path d="M45.3697459,14.1128641 C44.5785554,13.3204033 43.2932228,13.3204033 42.5006244,14.1128641 C41.7094339,14.9039172 41.7094339,16.1876192 42.5020323,16.9800799 C43.2932228,17.7711331 44.5785554,17.7725407 45.3683381,16.9814875 C46.1609365,16.1876192 46.1609365,14.9039172 45.3697459,14.1128641" id="Fill-61"></path>
                        <path d="M4.01858604,15.1593991 C3.94394284,14.776298 3.75944737,14.4100984 3.46228291,14.1129134 C2.76796028,13.4199511 1.69901325,13.3326266 0.911738695,13.8523483 C0.799069707,13.9269967 0.69344253,14.0129127 0.593448803,14.1115049 C-0.198050838,14.9030594 -0.198050838,16.1875749 0.594857166,16.9805378 C0.892021622,17.2763144 1.25819583,17.4622311 1.64127039,17.5368795 C2.2806669,17.6608239 2.96794773,17.4749072 3.46228291,16.9805378 C3.56086828,16.8819456 3.64818675,16.7749026 3.72282995,16.6622258 C4.01858604,16.2129271 4.11717141,15.6706701 4.01858604,15.1593991" id="Fill-63"></path>
                        <path d="M17.5368905,1.64088791 C17.4622644,1.25790262 17.2778111,0.891813743 16.9807145,0.594718539 C16.1879876,-0.198004684 14.9052626,-0.198004684 14.1125358,0.593310504 C13.3212169,1.38462569 13.3198089,2.67016087 14.1125358,3.46288409 C14.4096323,3.75997929 14.7757229,3.9458398 15.1587099,4.01905757 C15.7979604,4.14155655 16.4850842,3.95569604 16.9807145,3.46147605 C17.4749367,2.96584804 17.6607981,2.28013541 17.5368905,1.64088791" id="Fill-65"></path>
                        <path d="M3.32325741,42.1468204 C2.56351667,41.3857278 1.33197963,41.3870796 0.570887037,42.1468204 C-0.188853704,42.9065611 -0.191557407,44.1408019 0.569535185,44.9005426 C1.32927593,45.6602833 2.56486852,45.6602833 3.32460926,44.9005426 C4.08435,44.1408019 4.08299815,42.9065611 3.32325741,42.1468204" id="Fill-67"></path>
                        <path d="M3.32460926,55.9115111 C2.56351667,55.1504185 1.33197963,55.1504185 0.569535185,55.9115111 C-0.190205556,56.6712519 -0.190205556,57.9041407 0.570887037,58.6652333 C1.33062778,59.4249741 2.56351667,59.4263259 3.32460926,58.6665852 C4.08570185,57.9041407 4.08435,56.6712519 3.32460926,55.9115111" id="Fill-70"></path>
                        <path d="M3.46208539,27.6307822 C2.66938385,26.8381841 1.38669982,26.8395919 0.593998277,27.6321901 C-0.197295272,28.4233804 -0.198703267,29.7058972 0.593998277,30.4984954 C1.38529183,31.2896858 2.66938385,31.2910936 3.46208539,30.4999032 C4.25337894,29.7058972 4.25337894,28.4219726 3.46208539,27.6307822" id="Fill-73"></path>
                        <path d="M16.9807069,42.501753 C16.1881429,41.7092922 14.9042738,41.7092922 14.1117098,42.501753 C13.3205536,43.2928061 13.3205536,44.5765081 14.1131176,45.3689688 C14.9042738,46.160022 16.1881429,46.1614296 16.9807069,45.3703764 C17.7718631,44.5765081 17.7718631,43.2928061 16.9807069,42.501753" id="Fill-75"></path>
                        <path d="M3.46173769,0.593745209 C2.67068447,-0.198852986 1.38698244,-0.197445174 0.593114086,0.595153021 C-0.197939134,1.3863434 -0.197939134,2.67026801 0.594521654,3.46145839 C1.38557487,4.25264878 2.67068447,4.25405659 3.46173769,3.4628662 C4.25419847,2.67026801 4.25279091,1.38493559 3.46173769,0.593745209" id="Fill-77"></path>
                    </g>
                </g>
                <g id="PAttern1-Copy" transform="translate(0.000000, 83.000000)">
                    <g id="PAttern-3">
                        <path d="M72.4060275,69.5381897 C71.6147683,68.7455915 70.33214,68.7469993 69.5394729,69.5395975 C68.7468058,70.3307878 68.7453978,71.6133046 69.5394729,72.4059028 C70.3293241,73.1970932 71.6147683,73.198501 72.4060275,72.4073106 C73.1986946,71.6133046 73.1972867,70.32938 72.4060275,69.5381897" id="Fill-1"></path>
                        <path d="M59.4445241,70.585325 C59.3698611,70.2022239 59.1839078,69.8360244 58.888073,69.5388393 C58.1935658,68.845877 57.1257432,68.7585525 56.3368505,69.2782742 C56.2255603,69.3529226 56.1184963,69.4388387 56.018476,69.5374309 C55.2281746,70.3289853 55.2281746,71.6135008 56.0198847,72.4064637 C56.3171282,72.7022403 56.6833998,72.888157 57.067985,72.9628054 C57.7061428,73.0867499 58.3936064,72.9008331 58.888073,72.4064637 C58.9866846,72.3078715 59.0726176,72.2008286 59.1472806,72.0881518 C59.4445241,71.6388531 59.5431357,71.096596 59.4445241,70.585325" id="Fill-3"></path>
                        <path d="M72.9628228,57.0668138 C72.8881867,56.6838285 72.7023007,56.3177397 72.4051646,56.0206445 C71.6137406,55.2279212 70.3308451,55.2279212 69.5380129,56.0192364 C68.7479971,56.8105516 68.7451807,58.0960868 69.5380129,58.88881 C69.8337407,59.1859052 70.2012882,59.3717657 70.5857344,59.4449835 C71.2250697,59.5674825 71.9122849,59.381622 72.4051646,58.887402 C72.9008608,58.391774 73.0867468,57.7060613 72.9628228,57.0668138" id="Fill-5"></path>
                        <path d="M72.4055989,27.6314305 C71.9098143,27.1356523 71.2238851,26.951144 70.5844357,27.07368 C70.2027379,27.1483285 69.8365334,27.3342453 69.5393444,27.6314305 C69.3407488,27.828615 69.1928586,28.0581942 69.0928566,28.3018579 C68.7956675,29.0342575 68.9449663,29.9032778 69.5393444,30.4990567 C70.1337224,31.0920187 71.0041624,31.2413156 71.7351629,30.9441303 C71.9802383,30.8455381 72.2084118,30.6976497 72.4070074,30.4990567 C72.7041964,30.20328 72.8901156,29.8356717 72.9633565,29.4525704 C73.0858942,28.8131291 72.9013834,28.1258003 72.4055989,27.6314305" id="Fill-7"></path>
                        <path d="M72.1502259,14.6140593 C71.3904852,13.8543185 70.1575963,13.8543185 69.3965037,14.6154111 C68.636763,15.3751519 68.6354111,16.6080407 69.3965037,17.3677815 C70.1562444,18.1275222 71.3904852,18.1288741 72.1488741,17.3691333 C72.9113185,16.6080407 72.9099667,15.3738 72.1502259,14.6140593" id="Fill-9"></path>
                        <path d="M59.1474112,14.4308048 C59.0727773,14.3181258 58.9868779,14.2124893 58.8868966,14.1124867 C58.6897505,13.9152986 58.4616243,13.765999 58.2165998,13.6674049 C57.8504713,13.5195138 57.4505463,13.4814847 57.0661113,13.554726 C56.6830846,13.6293758 56.316956,13.815296 56.0198286,14.1124867 C55.8226825,14.3110834 55.6734147,14.5392582 55.5748417,14.7829264 C55.3762873,15.2716713 55.3762873,15.8209812 55.5748417,16.3083176 C55.6734147,16.5533943 55.8240907,16.7815692 56.0212368,16.9801658 C56.1212181,17.0787599 56.2268321,17.166086 56.339487,17.2407358 C56.9013535,17.6111679 57.606855,17.6731413 58.218008,17.4252476 C58.4616243,17.3266535 58.6897505,17.1787624 58.8868966,16.9801658 C59.184024,16.6843836 59.3699047,16.3167685 59.4445386,15.9336601 C59.5431116,15.4223794 59.4445386,14.880112 59.1474112,14.4308048" id="Fill-12"></path>
                        <path d="M72.3997778,1.15556296 C72.3281296,1.04741481 72.2456667,0.946025926 72.1496852,0.850044444 C71.9604259,0.660785185 71.7414259,0.517488889 71.5062037,0.422859259 C70.8018889,0.137618519 69.9677963,0.279562963 69.3973148,0.850044444 C68.8268333,1.41917407 68.683537,2.25597037 68.9687778,2.96028519 C69.0634074,3.19415556 69.2067037,3.41450741 69.395963,3.60511852 C69.4919444,3.69974815 69.5946852,3.78221111 69.7014815,3.85385926 C70.4571667,4.35269259 71.4859259,4.26752593 72.1496852,3.60241481 C72.8161481,2.9373037 72.8986111,1.91124815 72.3997778,1.15556296" id="Fill-14"></path>
                        <path d="M45.3678057,56.0206801 C44.6749515,55.3264075 43.6060972,55.2405035 42.8188909,55.7601518 C42.7062317,55.8347897 42.6006137,55.9221019 42.5020368,56.0206801 C41.7091976,56.8121228 41.7091976,58.0950485 42.5020368,58.8878995 C43.2934678,59.6793421 44.5777829,59.6793421 45.3692139,58.8878995 C45.4677907,58.7893212 45.5551016,58.6822934 45.6297383,58.5710408 C46.149379,57.7824146 46.0606598,56.7135445 45.3678057,56.0206801" id="Fill-17"></path>
                        <path d="M58.888063,42.5015087 C58.0954304,41.7086697 56.812858,41.7100779 56.0216333,42.5015087 C55.2290007,43.2929396 55.226185,44.5772544 56.0202254,45.3700935 C56.8100422,46.1615243 58.0968383,46.1601161 58.888063,45.3686852 C59.6792877,44.5772544 59.6792877,43.2929396 58.888063,42.5015087" id="Fill-19"></path>
                        <path d="M45.369042,42.5007016 C44.5778515,41.7094082 43.2939267,41.7094082 42.5013283,42.5021096 C41.7101378,43.2934031 41.70873,44.5774949 42.5013283,45.3687884 C43.2925189,46.1600819 44.5778515,46.1614899 45.369042,45.3701964 C46.1616404,44.5774949 46.1602325,43.2919951 45.369042,42.5007016" id="Fill-21"></path>
                        <path d="M58.8876378,56.0192201 C58.0965503,55.2279267 56.8127925,55.2279267 56.0202973,56.0206281 C55.2278021,56.8119216 55.2278021,58.0960135 56.0202973,58.8873069 C56.8113849,59.6786004 58.0965503,59.6800084 58.8876378,58.8887149 C59.680133,58.0960135 59.6787254,56.8105136 58.8876378,56.0192201" id="Fill-23"></path>
                        <path d="M58.8875605,27.6307822 C58.09637,26.8381841 56.8124452,26.8395919 56.0198469,27.6321901 C55.2286563,28.4233804 55.2272485,29.707305 56.0198469,30.4984954 C56.8110374,31.2896858 58.09637,31.2910936 58.8875605,30.4999032 C59.6801589,29.707305 59.6787511,28.4219726 58.8875605,27.6307822" id="Fill-25"></path>
                        <path d="M72.1502259,42.1447926 C71.3904852,41.3850519 70.1575963,41.3850519 69.3965037,42.1461444 C68.6354111,42.9058852 68.6354111,44.1387741 69.3965037,44.8985148 C70.1562444,45.6582556 71.3904852,45.6596074 72.1502259,44.8998667 C72.9113185,44.1387741 72.9099667,42.9045333 72.1502259,42.1447926" id="Fill-27"></path>
                        <path d="M30.7587855,42.8201423 C30.6841366,42.7074508 30.59822,42.6003938 30.4982188,42.5017887 C30.3010331,42.3031699 30.0714527,42.1552623 29.8277876,42.0566572 C29.2179206,41.8087358 28.5108693,41.8693075 27.9488902,42.2411896 C27.8362127,42.3158477 27.7305776,42.401775 27.6305763,42.5003801 C27.0376109,43.0948279 26.8883132,43.96537 27.1855001,44.697865 C27.2855014,44.9415604 27.4333906,45.1711694 27.6319847,45.3697882 C27.7305776,45.4683933 27.8376212,45.5543206 27.9502987,45.6289788 C28.7362243,46.1487685 29.8066606,46.0614325 30.4982188,45.3697882 C30.59822,45.2697745 30.6841366,45.1641262 30.7587855,45.0514347 C31.2038616,44.3766941 31.2038616,43.4948829 30.7587855,42.8201423" id="Fill-30"></path>
                        <path d="M45.6287865,27.9495937 C45.5541597,27.8369518 45.4682685,27.7299419 45.3682967,27.6313802 C45.1711694,27.4328487 44.9430648,27.2850062 44.6980637,27.1864445 C43.9658763,26.8879433 43.0956997,27.0371939 42.5015015,27.6299722 C41.9073033,28.2241585 41.7594577,29.0943177 42.0551488,29.8278984 C42.1537125,30.0728947 42.3029661,30.3009947 42.5000934,30.4995261 C42.6000652,30.5980878 42.7070772,30.6853854 42.8183134,30.7600107 C43.6054148,31.2781637 44.6769429,31.1908662 45.3682967,30.4981181 C46.0624667,29.80537 46.1483579,28.7366794 45.6287865,27.9495937" id="Fill-32"></path>
                        <path d="M30.4984182,69.5385458 C29.7057169,68.7457067 28.4230333,68.7471149 27.63174,69.5385458 C26.8404468,70.3299766 26.8376308,71.6142914 27.630332,72.4071305 C28.4216253,73.1985614 29.7071249,73.1971531 30.4998262,72.4057223 C31.2911194,71.6142914 31.2897114,70.3299766 30.4984182,69.5385458" id="Fill-34"></path>
                        <path d="M16.9801531,69.5377387 C16.1889626,68.7464452 14.9050378,68.7464452 14.1124395,69.5391467 C13.3212489,70.3304401 13.3198411,71.614532 14.1124395,72.4058254 C14.90363,73.1971189 16.1889626,73.1985269 16.9801531,72.4072334 C17.7727515,71.614532 17.7713437,70.3290321 16.9801531,69.5377387" id="Fill-36"></path>
                        <path d="M30.4993498,56.0192201 C29.7067171,55.2279267 28.4241443,55.2279267 27.6315116,56.0206281 C26.8388788,56.8119216 26.8388788,58.0960135 27.6315116,58.8873069 C28.4227365,59.6786004 29.7067171,59.6800084 30.4979419,58.8887149 C31.2905747,58.0960135 31.2905747,56.8105136 30.4993498,56.0192201" id="Fill-38"></path>
                        <path d="M45.3691193,69.5377387 C44.5780317,68.7464452 43.2928664,68.7464452 42.5017788,69.5391467 C41.7092836,70.3304401 41.7092836,71.614532 42.5017788,72.4058254 C43.2928664,73.1971189 44.5780317,73.1985269 45.3691193,72.4072334 C46.1616145,71.614532 46.1602069,70.3290321 45.3691193,69.5377387" id="Fill-40"></path>
                        <path d="M3.72139823,69.8577442 C3.64674489,69.745062 3.56082313,69.6380139 3.46081584,69.539417 C3.26361835,69.3408147 3.03402414,69.1929193 2.79034439,69.0929138 C2.4241205,68.9450185 2.02268276,68.9069882 1.63955622,68.9816402 C1.25642968,69.0562921 0.890205783,69.2422177 0.593001004,69.5380085 C0.395803521,69.7366109 0.246496855,69.9647923 0.147898113,70.2098761 C-0.0492993709,70.6972265 -0.0492993709,71.2465522 0.147898113,71.7353112 C0.247905408,71.9789865 0.395803521,72.2085764 0.594409558,72.4071788 C0.6930083,72.5057757 0.800058362,72.5916959 0.912742639,72.6663478 C1.47475547,73.0367905 2.18044075,73.0987657 2.79034439,72.8522735 C3.0354327,72.7536765 3.26361835,72.6043726 3.46081584,72.4071788 C3.75802062,72.1099795 3.94394967,71.7437624 4.01860301,71.3606429 C4.11720175,70.8493475 4.01860301,70.3070644 3.72139823,69.8577442" id="Fill-42"></path>
                        <path d="M17.2399235,56.337957 C17.1653024,56.2252962 17.0794179,56.1196767 16.9794539,56.0196902 C16.7823417,55.8225338 16.5528469,55.6732583 16.3092726,55.5746801 C15.5771419,55.2775372 14.7070327,55.4254045 14.1128804,56.0196902 C13.5201361,56.6125677 13.3694861,57.4842806 13.6665622,58.2165758 C13.7651183,58.461613 13.9143603,58.6911594 14.1114724,58.8897241 C14.2114365,58.9883023 14.3184402,59.0742061 14.4296677,59.1488439 C15.2167083,59.6670836 16.2881535,59.5797715 16.9794539,58.8869076 C17.6735701,58.1940437 17.7594547,57.1251743 17.2399235,56.337957" id="Fill-44"></path>
                        <path d="M45.3686077,0.594286456 C44.8728614,0.0985975286 44.1869851,-0.0858776119 43.547585,0.0366364127 C43.1659167,0.111271393 42.7997404,0.298562948 42.5025743,0.594286456 C42.3039941,0.792843668 42.1561152,1.02097323 42.0561209,1.26459307 C41.7589548,1.99686081 41.9068337,2.86713284 42.5025743,3.46139627 C43.0954981,4.0556597 43.9672793,4.20352146 44.6982235,3.90779795 C44.9432799,3.80781524 45.1714359,3.65995348 45.3700161,3.46280448 C45.6671822,3.16567276 45.8530871,2.79813069 45.9263223,2.41509834 C46.0488505,1.77577228 45.864354,1.08997538 45.3686077,0.594286456" id="Fill-46"></path>
                        <path d="M58.3860759,0.850044444 C57.6263352,0.0889518519 56.3920944,0.0889518519 55.6310019,0.850044444 C54.8712611,1.60978519 54.8712611,2.84267407 55.6323537,3.60376667 C56.3920944,4.36350741 57.6263352,4.36485926 58.3847241,3.60511852 C59.1458167,2.84267407 59.1458167,1.60978519 58.3860759,0.850044444" id="Fill-48"></path>
                        <path d="M16.9794734,27.6308049 C16.2865782,26.9378841 15.2176607,26.8519732 14.4304079,27.3702554 C14.3177421,27.4448993 14.2121178,27.5322186 14.1121268,27.6308049 C13.3206491,28.422312 13.3206491,29.7053422 14.1121268,30.4982576 C14.9050129,31.2897647 16.1894039,31.2911731 16.9808817,30.499666 C17.0794643,30.3996713 17.1667804,30.2940432 17.2414215,30.1813731 C17.7596846,29.3940912 17.6723685,28.3237257 16.9794734,27.6308049" id="Fill-51"></path>
                        <path d="M30.4984182,14.112066 C29.7071249,13.3206694 28.4244413,13.3206694 27.63174,14.112066 C26.8404468,14.9034626 26.8376308,16.1877218 27.630332,16.9805266 C28.4216253,17.7719232 29.7085329,17.7719232 30.4998262,16.9805266 C31.2911194,16.1877218 31.2897114,14.9034626 30.4984182,14.112066" id="Fill-53"></path>
                        <path d="M16.9807541,14.1122637 C16.1880181,13.3196655 14.9052785,13.3210733 14.1125426,14.1136715 C13.3212147,14.9048619 13.3198066,16.1873787 14.1125426,16.9799769 C14.9038704,17.7711673 16.1880181,17.7725751 16.979346,16.9813847 C17.7720819,16.1873787 17.7720819,14.9034541 16.9807541,14.1122637" id="Fill-55"></path>
                        <path d="M30.4992254,27.6313826 C29.7066615,26.8389219 28.4242001,26.8389219 27.6302283,27.6313826 C26.8390721,28.4224358 26.8390721,29.7061377 27.6316361,30.4985985 C28.4227923,31.2896516 29.7066615,31.2910592 30.4992254,30.500006 C31.2903816,29.7061377 31.2903816,28.4224358 30.4992254,27.6313826" id="Fill-57"></path>
                        <path d="M30.4991224,0.593745209 C29.7064209,-0.198852986 28.4237369,-0.197445174 27.6310353,0.595153021 C26.8397418,1.3863434 26.8383338,2.6688602 27.6310353,3.46145839 C28.4223289,4.25264878 29.7064209,4.25405659 30.4991224,3.4628662 C31.290416,2.6688602 31.290416,1.38493559 30.4991224,0.593745209" id="Fill-59"></path>
                        <path d="M45.3697459,14.1128641 C44.5785554,13.3204033 43.2932228,13.3204033 42.5006244,14.1128641 C41.7094339,14.9039172 41.7094339,16.1876192 42.5020323,16.9800799 C43.2932228,17.7711331 44.5785554,17.7725407 45.3683381,16.9814875 C46.1609365,16.1876192 46.1609365,14.9039172 45.3697459,14.1128641" id="Fill-61"></path>
                        <path d="M4.01858604,15.1593991 C3.94394284,14.776298 3.75944737,14.4100984 3.46228291,14.1129134 C2.76796028,13.4199511 1.69901325,13.3326266 0.911738695,13.8523483 C0.799069707,13.9269967 0.69344253,14.0129127 0.593448803,14.1115049 C-0.198050838,14.9030594 -0.198050838,16.1875749 0.594857166,16.9805378 C0.892021622,17.2763144 1.25819583,17.4622311 1.64127039,17.5368795 C2.2806669,17.6608239 2.96794773,17.4749072 3.46228291,16.9805378 C3.56086828,16.8819456 3.64818675,16.7749026 3.72282995,16.6622258 C4.01858604,16.2129271 4.11717141,15.6706701 4.01858604,15.1593991" id="Fill-63"></path>
                        <path d="M17.5368905,1.64088791 C17.4622644,1.25790262 17.2778111,0.891813743 16.9807145,0.594718539 C16.1879876,-0.198004684 14.9052626,-0.198004684 14.1125358,0.593310504 C13.3212169,1.38462569 13.3198089,2.67016087 14.1125358,3.46288409 C14.4096323,3.75997929 14.7757229,3.9458398 15.1587099,4.01905757 C15.7979604,4.14155655 16.4850842,3.95569604 16.9807145,3.46147605 C17.4749367,2.96584804 17.6607981,2.28013541 17.5368905,1.64088791" id="Fill-65"></path>
                        <path d="M3.32325741,42.1468204 C2.56351667,41.3857278 1.33197963,41.3870796 0.570887037,42.1468204 C-0.188853704,42.9065611 -0.191557407,44.1408019 0.569535185,44.9005426 C1.32927593,45.6602833 2.56486852,45.6602833 3.32460926,44.9005426 C4.08435,44.1408019 4.08299815,42.9065611 3.32325741,42.1468204" id="Fill-67"></path>
                        <path d="M3.32460926,55.9115111 C2.56351667,55.1504185 1.33197963,55.1504185 0.569535185,55.9115111 C-0.190205556,56.6712519 -0.190205556,57.9041407 0.570887037,58.6652333 C1.33062778,59.4249741 2.56351667,59.4263259 3.32460926,58.6665852 C4.08570185,57.9041407 4.08435,56.6712519 3.32460926,55.9115111" id="Fill-70"></path>
                        <path d="M3.46208539,27.6307822 C2.66938385,26.8381841 1.38669982,26.8395919 0.593998277,27.6321901 C-0.197295272,28.4233804 -0.198703267,29.7058972 0.593998277,30.4984954 C1.38529183,31.2896858 2.66938385,31.2910936 3.46208539,30.4999032 C4.25337894,29.7058972 4.25337894,28.4219726 3.46208539,27.6307822" id="Fill-73"></path>
                        <path d="M16.9807069,42.501753 C16.1881429,41.7092922 14.9042738,41.7092922 14.1117098,42.501753 C13.3205536,43.2928061 13.3205536,44.5765081 14.1131176,45.3689688 C14.9042738,46.160022 16.1881429,46.1614296 16.9807069,45.3703764 C17.7718631,44.5765081 17.7718631,43.2928061 16.9807069,42.501753" id="Fill-75"></path>
                        <path d="M3.46173769,0.593745209 C2.67068447,-0.198852986 1.38698244,-0.197445174 0.593114086,0.595153021 C-0.197939134,1.3863434 -0.197939134,2.67026801 0.594521654,3.46145839 C1.38557487,4.25264878 2.67068447,4.25405659 3.46173769,3.4628662 C4.25419847,2.67026801 4.25279091,1.38493559 3.46173769,0.593745209" id="Fill-77"></path>
                    </g>
                </g>
                <g id="PAttern1-Copy" transform="translate(82.000000, 0.000000)">
                    <g id="PAttern-3">
                        <path d="M72.4060275,69.5381897 C71.6147683,68.7455915 70.33214,68.7469993 69.5394729,69.5395975 C68.7468058,70.3307878 68.7453978,71.6133046 69.5394729,72.4059028 C70.3293241,73.1970932 71.6147683,73.198501 72.4060275,72.4073106 C73.1986946,71.6133046 73.1972867,70.32938 72.4060275,69.5381897" id="Fill-1"></path>
                        <path d="M59.4445241,70.585325 C59.3698611,70.2022239 59.1839078,69.8360244 58.888073,69.5388393 C58.1935658,68.845877 57.1257432,68.7585525 56.3368505,69.2782742 C56.2255603,69.3529226 56.1184963,69.4388387 56.018476,69.5374309 C55.2281746,70.3289853 55.2281746,71.6135008 56.0198847,72.4064637 C56.3171282,72.7022403 56.6833998,72.888157 57.067985,72.9628054 C57.7061428,73.0867499 58.3936064,72.9008331 58.888073,72.4064637 C58.9866846,72.3078715 59.0726176,72.2008286 59.1472806,72.0881518 C59.4445241,71.6388531 59.5431357,71.096596 59.4445241,70.585325" id="Fill-3"></path>
                        <path d="M72.9628228,57.0668138 C72.8881867,56.6838285 72.7023007,56.3177397 72.4051646,56.0206445 C71.6137406,55.2279212 70.3308451,55.2279212 69.5380129,56.0192364 C68.7479971,56.8105516 68.7451807,58.0960868 69.5380129,58.88881 C69.8337407,59.1859052 70.2012882,59.3717657 70.5857344,59.4449835 C71.2250697,59.5674825 71.9122849,59.381622 72.4051646,58.887402 C72.9008608,58.391774 73.0867468,57.7060613 72.9628228,57.0668138" id="Fill-5"></path>
                        <path d="M72.4055989,27.6314305 C71.9098143,27.1356523 71.2238851,26.951144 70.5844357,27.07368 C70.2027379,27.1483285 69.8365334,27.3342453 69.5393444,27.6314305 C69.3407488,27.828615 69.1928586,28.0581942 69.0928566,28.3018579 C68.7956675,29.0342575 68.9449663,29.9032778 69.5393444,30.4990567 C70.1337224,31.0920187 71.0041624,31.2413156 71.7351629,30.9441303 C71.9802383,30.8455381 72.2084118,30.6976497 72.4070074,30.4990567 C72.7041964,30.20328 72.8901156,29.8356717 72.9633565,29.4525704 C73.0858942,28.8131291 72.9013834,28.1258003 72.4055989,27.6314305" id="Fill-7"></path>
                        <path d="M72.1502259,14.6140593 C71.3904852,13.8543185 70.1575963,13.8543185 69.3965037,14.6154111 C68.636763,15.3751519 68.6354111,16.6080407 69.3965037,17.3677815 C70.1562444,18.1275222 71.3904852,18.1288741 72.1488741,17.3691333 C72.9113185,16.6080407 72.9099667,15.3738 72.1502259,14.6140593" id="Fill-9"></path>
                        <path d="M59.1474112,14.4308048 C59.0727773,14.3181258 58.9868779,14.2124893 58.8868966,14.1124867 C58.6897505,13.9152986 58.4616243,13.765999 58.2165998,13.6674049 C57.8504713,13.5195138 57.4505463,13.4814847 57.0661113,13.554726 C56.6830846,13.6293758 56.316956,13.815296 56.0198286,14.1124867 C55.8226825,14.3110834 55.6734147,14.5392582 55.5748417,14.7829264 C55.3762873,15.2716713 55.3762873,15.8209812 55.5748417,16.3083176 C55.6734147,16.5533943 55.8240907,16.7815692 56.0212368,16.9801658 C56.1212181,17.0787599 56.2268321,17.166086 56.339487,17.2407358 C56.9013535,17.6111679 57.606855,17.6731413 58.218008,17.4252476 C58.4616243,17.3266535 58.6897505,17.1787624 58.8868966,16.9801658 C59.184024,16.6843836 59.3699047,16.3167685 59.4445386,15.9336601 C59.5431116,15.4223794 59.4445386,14.880112 59.1474112,14.4308048" id="Fill-12"></path>
                        <path d="M72.3997778,1.15556296 C72.3281296,1.04741481 72.2456667,0.946025926 72.1496852,0.850044444 C71.9604259,0.660785185 71.7414259,0.517488889 71.5062037,0.422859259 C70.8018889,0.137618519 69.9677963,0.279562963 69.3973148,0.850044444 C68.8268333,1.41917407 68.683537,2.25597037 68.9687778,2.96028519 C69.0634074,3.19415556 69.2067037,3.41450741 69.395963,3.60511852 C69.4919444,3.69974815 69.5946852,3.78221111 69.7014815,3.85385926 C70.4571667,4.35269259 71.4859259,4.26752593 72.1496852,3.60241481 C72.8161481,2.9373037 72.8986111,1.91124815 72.3997778,1.15556296" id="Fill-14"></path>
                        <path d="M45.3678057,56.0206801 C44.6749515,55.3264075 43.6060972,55.2405035 42.8188909,55.7601518 C42.7062317,55.8347897 42.6006137,55.9221019 42.5020368,56.0206801 C41.7091976,56.8121228 41.7091976,58.0950485 42.5020368,58.8878995 C43.2934678,59.6793421 44.5777829,59.6793421 45.3692139,58.8878995 C45.4677907,58.7893212 45.5551016,58.6822934 45.6297383,58.5710408 C46.149379,57.7824146 46.0606598,56.7135445 45.3678057,56.0206801" id="Fill-17"></path>
                        <path d="M58.888063,42.5015087 C58.0954304,41.7086697 56.812858,41.7100779 56.0216333,42.5015087 C55.2290007,43.2929396 55.226185,44.5772544 56.0202254,45.3700935 C56.8100422,46.1615243 58.0968383,46.1601161 58.888063,45.3686852 C59.6792877,44.5772544 59.6792877,43.2929396 58.888063,42.5015087" id="Fill-19"></path>
                        <path d="M45.369042,42.5007016 C44.5778515,41.7094082 43.2939267,41.7094082 42.5013283,42.5021096 C41.7101378,43.2934031 41.70873,44.5774949 42.5013283,45.3687884 C43.2925189,46.1600819 44.5778515,46.1614899 45.369042,45.3701964 C46.1616404,44.5774949 46.1602325,43.2919951 45.369042,42.5007016" id="Fill-21"></path>
                        <path d="M58.8876378,56.0192201 C58.0965503,55.2279267 56.8127925,55.2279267 56.0202973,56.0206281 C55.2278021,56.8119216 55.2278021,58.0960135 56.0202973,58.8873069 C56.8113849,59.6786004 58.0965503,59.6800084 58.8876378,58.8887149 C59.680133,58.0960135 59.6787254,56.8105136 58.8876378,56.0192201" id="Fill-23"></path>
                        <path d="M58.8875605,27.6307822 C58.09637,26.8381841 56.8124452,26.8395919 56.0198469,27.6321901 C55.2286563,28.4233804 55.2272485,29.707305 56.0198469,30.4984954 C56.8110374,31.2896858 58.09637,31.2910936 58.8875605,30.4999032 C59.6801589,29.707305 59.6787511,28.4219726 58.8875605,27.6307822" id="Fill-25"></path>
                        <path d="M72.1502259,42.1447926 C71.3904852,41.3850519 70.1575963,41.3850519 69.3965037,42.1461444 C68.6354111,42.9058852 68.6354111,44.1387741 69.3965037,44.8985148 C70.1562444,45.6582556 71.3904852,45.6596074 72.1502259,44.8998667 C72.9113185,44.1387741 72.9099667,42.9045333 72.1502259,42.1447926" id="Fill-27"></path>
                        <path d="M30.7587855,42.8201423 C30.6841366,42.7074508 30.59822,42.6003938 30.4982188,42.5017887 C30.3010331,42.3031699 30.0714527,42.1552623 29.8277876,42.0566572 C29.2179206,41.8087358 28.5108693,41.8693075 27.9488902,42.2411896 C27.8362127,42.3158477 27.7305776,42.401775 27.6305763,42.5003801 C27.0376109,43.0948279 26.8883132,43.96537 27.1855001,44.697865 C27.2855014,44.9415604 27.4333906,45.1711694 27.6319847,45.3697882 C27.7305776,45.4683933 27.8376212,45.5543206 27.9502987,45.6289788 C28.7362243,46.1487685 29.8066606,46.0614325 30.4982188,45.3697882 C30.59822,45.2697745 30.6841366,45.1641262 30.7587855,45.0514347 C31.2038616,44.3766941 31.2038616,43.4948829 30.7587855,42.8201423" id="Fill-30"></path>
                        <path d="M45.6287865,27.9495937 C45.5541597,27.8369518 45.4682685,27.7299419 45.3682967,27.6313802 C45.1711694,27.4328487 44.9430648,27.2850062 44.6980637,27.1864445 C43.9658763,26.8879433 43.0956997,27.0371939 42.5015015,27.6299722 C41.9073033,28.2241585 41.7594577,29.0943177 42.0551488,29.8278984 C42.1537125,30.0728947 42.3029661,30.3009947 42.5000934,30.4995261 C42.6000652,30.5980878 42.7070772,30.6853854 42.8183134,30.7600107 C43.6054148,31.2781637 44.6769429,31.1908662 45.3682967,30.4981181 C46.0624667,29.80537 46.1483579,28.7366794 45.6287865,27.9495937" id="Fill-32"></path>
                        <path d="M30.4984182,69.5385458 C29.7057169,68.7457067 28.4230333,68.7471149 27.63174,69.5385458 C26.8404468,70.3299766 26.8376308,71.6142914 27.630332,72.4071305 C28.4216253,73.1985614 29.7071249,73.1971531 30.4998262,72.4057223 C31.2911194,71.6142914 31.2897114,70.3299766 30.4984182,69.5385458" id="Fill-34"></path>
                        <path d="M16.9801531,69.5377387 C16.1889626,68.7464452 14.9050378,68.7464452 14.1124395,69.5391467 C13.3212489,70.3304401 13.3198411,71.614532 14.1124395,72.4058254 C14.90363,73.1971189 16.1889626,73.1985269 16.9801531,72.4072334 C17.7727515,71.614532 17.7713437,70.3290321 16.9801531,69.5377387" id="Fill-36"></path>
                        <path d="M30.4993498,56.0192201 C29.7067171,55.2279267 28.4241443,55.2279267 27.6315116,56.0206281 C26.8388788,56.8119216 26.8388788,58.0960135 27.6315116,58.8873069 C28.4227365,59.6786004 29.7067171,59.6800084 30.4979419,58.8887149 C31.2905747,58.0960135 31.2905747,56.8105136 30.4993498,56.0192201" id="Fill-38"></path>
                        <path d="M45.3691193,69.5377387 C44.5780317,68.7464452 43.2928664,68.7464452 42.5017788,69.5391467 C41.7092836,70.3304401 41.7092836,71.614532 42.5017788,72.4058254 C43.2928664,73.1971189 44.5780317,73.1985269 45.3691193,72.4072334 C46.1616145,71.614532 46.1602069,70.3290321 45.3691193,69.5377387" id="Fill-40"></path>
                        <path d="M3.72139823,69.8577442 C3.64674489,69.745062 3.56082313,69.6380139 3.46081584,69.539417 C3.26361835,69.3408147 3.03402414,69.1929193 2.79034439,69.0929138 C2.4241205,68.9450185 2.02268276,68.9069882 1.63955622,68.9816402 C1.25642968,69.0562921 0.890205783,69.2422177 0.593001004,69.5380085 C0.395803521,69.7366109 0.246496855,69.9647923 0.147898113,70.2098761 C-0.0492993709,70.6972265 -0.0492993709,71.2465522 0.147898113,71.7353112 C0.247905408,71.9789865 0.395803521,72.2085764 0.594409558,72.4071788 C0.6930083,72.5057757 0.800058362,72.5916959 0.912742639,72.6663478 C1.47475547,73.0367905 2.18044075,73.0987657 2.79034439,72.8522735 C3.0354327,72.7536765 3.26361835,72.6043726 3.46081584,72.4071788 C3.75802062,72.1099795 3.94394967,71.7437624 4.01860301,71.3606429 C4.11720175,70.8493475 4.01860301,70.3070644 3.72139823,69.8577442" id="Fill-42"></path>
                        <path d="M17.2399235,56.337957 C17.1653024,56.2252962 17.0794179,56.1196767 16.9794539,56.0196902 C16.7823417,55.8225338 16.5528469,55.6732583 16.3092726,55.5746801 C15.5771419,55.2775372 14.7070327,55.4254045 14.1128804,56.0196902 C13.5201361,56.6125677 13.3694861,57.4842806 13.6665622,58.2165758 C13.7651183,58.461613 13.9143603,58.6911594 14.1114724,58.8897241 C14.2114365,58.9883023 14.3184402,59.0742061 14.4296677,59.1488439 C15.2167083,59.6670836 16.2881535,59.5797715 16.9794539,58.8869076 C17.6735701,58.1940437 17.7594547,57.1251743 17.2399235,56.337957" id="Fill-44"></path>
                        <path d="M45.3686077,0.594286456 C44.8728614,0.0985975286 44.1869851,-0.0858776119 43.547585,0.0366364127 C43.1659167,0.111271393 42.7997404,0.298562948 42.5025743,0.594286456 C42.3039941,0.792843668 42.1561152,1.02097323 42.0561209,1.26459307 C41.7589548,1.99686081 41.9068337,2.86713284 42.5025743,3.46139627 C43.0954981,4.0556597 43.9672793,4.20352146 44.6982235,3.90779795 C44.9432799,3.80781524 45.1714359,3.65995348 45.3700161,3.46280448 C45.6671822,3.16567276 45.8530871,2.79813069 45.9263223,2.41509834 C46.0488505,1.77577228 45.864354,1.08997538 45.3686077,0.594286456" id="Fill-46"></path>
                        <path d="M58.3860759,0.850044444 C57.6263352,0.0889518519 56.3920944,0.0889518519 55.6310019,0.850044444 C54.8712611,1.60978519 54.8712611,2.84267407 55.6323537,3.60376667 C56.3920944,4.36350741 57.6263352,4.36485926 58.3847241,3.60511852 C59.1458167,2.84267407 59.1458167,1.60978519 58.3860759,0.850044444" id="Fill-48"></path>
                        <path d="M16.9794734,27.6308049 C16.2865782,26.9378841 15.2176607,26.8519732 14.4304079,27.3702554 C14.3177421,27.4448993 14.2121178,27.5322186 14.1121268,27.6308049 C13.3206491,28.422312 13.3206491,29.7053422 14.1121268,30.4982576 C14.9050129,31.2897647 16.1894039,31.2911731 16.9808817,30.499666 C17.0794643,30.3996713 17.1667804,30.2940432 17.2414215,30.1813731 C17.7596846,29.3940912 17.6723685,28.3237257 16.9794734,27.6308049" id="Fill-51"></path>
                        <path d="M30.4984182,14.112066 C29.7071249,13.3206694 28.4244413,13.3206694 27.63174,14.112066 C26.8404468,14.9034626 26.8376308,16.1877218 27.630332,16.9805266 C28.4216253,17.7719232 29.7085329,17.7719232 30.4998262,16.9805266 C31.2911194,16.1877218 31.2897114,14.9034626 30.4984182,14.112066" id="Fill-53"></path>
                        <path d="M16.9807541,14.1122637 C16.1880181,13.3196655 14.9052785,13.3210733 14.1125426,14.1136715 C13.3212147,14.9048619 13.3198066,16.1873787 14.1125426,16.9799769 C14.9038704,17.7711673 16.1880181,17.7725751 16.979346,16.9813847 C17.7720819,16.1873787 17.7720819,14.9034541 16.9807541,14.1122637" id="Fill-55"></path>
                        <path d="M30.4992254,27.6313826 C29.7066615,26.8389219 28.4242001,26.8389219 27.6302283,27.6313826 C26.8390721,28.4224358 26.8390721,29.7061377 27.6316361,30.4985985 C28.4227923,31.2896516 29.7066615,31.2910592 30.4992254,30.500006 C31.2903816,29.7061377 31.2903816,28.4224358 30.4992254,27.6313826" id="Fill-57"></path>
                        <path d="M30.4991224,0.593745209 C29.7064209,-0.198852986 28.4237369,-0.197445174 27.6310353,0.595153021 C26.8397418,1.3863434 26.8383338,2.6688602 27.6310353,3.46145839 C28.4223289,4.25264878 29.7064209,4.25405659 30.4991224,3.4628662 C31.290416,2.6688602 31.290416,1.38493559 30.4991224,0.593745209" id="Fill-59"></path>
                        <path d="M45.3697459,14.1128641 C44.5785554,13.3204033 43.2932228,13.3204033 42.5006244,14.1128641 C41.7094339,14.9039172 41.7094339,16.1876192 42.5020323,16.9800799 C43.2932228,17.7711331 44.5785554,17.7725407 45.3683381,16.9814875 C46.1609365,16.1876192 46.1609365,14.9039172 45.3697459,14.1128641" id="Fill-61"></path>
                        <path d="M4.01858604,15.1593991 C3.94394284,14.776298 3.75944737,14.4100984 3.46228291,14.1129134 C2.76796028,13.4199511 1.69901325,13.3326266 0.911738695,13.8523483 C0.799069707,13.9269967 0.69344253,14.0129127 0.593448803,14.1115049 C-0.198050838,14.9030594 -0.198050838,16.1875749 0.594857166,16.9805378 C0.892021622,17.2763144 1.25819583,17.4622311 1.64127039,17.5368795 C2.2806669,17.6608239 2.96794773,17.4749072 3.46228291,16.9805378 C3.56086828,16.8819456 3.64818675,16.7749026 3.72282995,16.6622258 C4.01858604,16.2129271 4.11717141,15.6706701 4.01858604,15.1593991" id="Fill-63"></path>
                        <path d="M17.5368905,1.64088791 C17.4622644,1.25790262 17.2778111,0.891813743 16.9807145,0.594718539 C16.1879876,-0.198004684 14.9052626,-0.198004684 14.1125358,0.593310504 C13.3212169,1.38462569 13.3198089,2.67016087 14.1125358,3.46288409 C14.4096323,3.75997929 14.7757229,3.9458398 15.1587099,4.01905757 C15.7979604,4.14155655 16.4850842,3.95569604 16.9807145,3.46147605 C17.4749367,2.96584804 17.6607981,2.28013541 17.5368905,1.64088791" id="Fill-65"></path>
                        <path d="M3.32325741,42.1468204 C2.56351667,41.3857278 1.33197963,41.3870796 0.570887037,42.1468204 C-0.188853704,42.9065611 -0.191557407,44.1408019 0.569535185,44.9005426 C1.32927593,45.6602833 2.56486852,45.6602833 3.32460926,44.9005426 C4.08435,44.1408019 4.08299815,42.9065611 3.32325741,42.1468204" id="Fill-67"></path>
                        <path d="M3.32460926,55.9115111 C2.56351667,55.1504185 1.33197963,55.1504185 0.569535185,55.9115111 C-0.190205556,56.6712519 -0.190205556,57.9041407 0.570887037,58.6652333 C1.33062778,59.4249741 2.56351667,59.4263259 3.32460926,58.6665852 C4.08570185,57.9041407 4.08435,56.6712519 3.32460926,55.9115111" id="Fill-70"></path>
                        <path d="M3.46208539,27.6307822 C2.66938385,26.8381841 1.38669982,26.8395919 0.593998277,27.6321901 C-0.197295272,28.4233804 -0.198703267,29.7058972 0.593998277,30.4984954 C1.38529183,31.2896858 2.66938385,31.2910936 3.46208539,30.4999032 C4.25337894,29.7058972 4.25337894,28.4219726 3.46208539,27.6307822" id="Fill-73"></path>
                        <path d="M16.9807069,42.501753 C16.1881429,41.7092922 14.9042738,41.7092922 14.1117098,42.501753 C13.3205536,43.2928061 13.3205536,44.5765081 14.1131176,45.3689688 C14.9042738,46.160022 16.1881429,46.1614296 16.9807069,45.3703764 C17.7718631,44.5765081 17.7718631,43.2928061 16.9807069,42.501753" id="Fill-75"></path>
                        <path d="M3.46173769,0.593745209 C2.67068447,-0.198852986 1.38698244,-0.197445174 0.593114086,0.595153021 C-0.197939134,1.3863434 -0.197939134,2.67026801 0.594521654,3.46145839 C1.38557487,4.25264878 2.67068447,4.25405659 3.46173769,3.4628662 C4.25419847,2.67026801 4.25279091,1.38493559 3.46173769,0.593745209" id="Fill-77"></path>
                    </g>
                </g>
                <g id="PAttern1-Copy" transform="translate(82.000000, 83.000000)">
                    <g id="PAttern-3">
                        <path d="M72.4060275,69.5381897 C71.6147683,68.7455915 70.33214,68.7469993 69.5394729,69.5395975 C68.7468058,70.3307878 68.7453978,71.6133046 69.5394729,72.4059028 C70.3293241,73.1970932 71.6147683,73.198501 72.4060275,72.4073106 C73.1986946,71.6133046 73.1972867,70.32938 72.4060275,69.5381897" id="Fill-1"></path>
                        <path d="M59.4445241,70.585325 C59.3698611,70.2022239 59.1839078,69.8360244 58.888073,69.5388393 C58.1935658,68.845877 57.1257432,68.7585525 56.3368505,69.2782742 C56.2255603,69.3529226 56.1184963,69.4388387 56.018476,69.5374309 C55.2281746,70.3289853 55.2281746,71.6135008 56.0198847,72.4064637 C56.3171282,72.7022403 56.6833998,72.888157 57.067985,72.9628054 C57.7061428,73.0867499 58.3936064,72.9008331 58.888073,72.4064637 C58.9866846,72.3078715 59.0726176,72.2008286 59.1472806,72.0881518 C59.4445241,71.6388531 59.5431357,71.096596 59.4445241,70.585325" id="Fill-3"></path>
                        <path d="M72.9628228,57.0668138 C72.8881867,56.6838285 72.7023007,56.3177397 72.4051646,56.0206445 C71.6137406,55.2279212 70.3308451,55.2279212 69.5380129,56.0192364 C68.7479971,56.8105516 68.7451807,58.0960868 69.5380129,58.88881 C69.8337407,59.1859052 70.2012882,59.3717657 70.5857344,59.4449835 C71.2250697,59.5674825 71.9122849,59.381622 72.4051646,58.887402 C72.9008608,58.391774 73.0867468,57.7060613 72.9628228,57.0668138" id="Fill-5"></path>
                        <path d="M72.4055989,27.6314305 C71.9098143,27.1356523 71.2238851,26.951144 70.5844357,27.07368 C70.2027379,27.1483285 69.8365334,27.3342453 69.5393444,27.6314305 C69.3407488,27.828615 69.1928586,28.0581942 69.0928566,28.3018579 C68.7956675,29.0342575 68.9449663,29.9032778 69.5393444,30.4990567 C70.1337224,31.0920187 71.0041624,31.2413156 71.7351629,30.9441303 C71.9802383,30.8455381 72.2084118,30.6976497 72.4070074,30.4990567 C72.7041964,30.20328 72.8901156,29.8356717 72.9633565,29.4525704 C73.0858942,28.8131291 72.9013834,28.1258003 72.4055989,27.6314305" id="Fill-7"></path>
                        <path d="M72.1502259,14.6140593 C71.3904852,13.8543185 70.1575963,13.8543185 69.3965037,14.6154111 C68.636763,15.3751519 68.6354111,16.6080407 69.3965037,17.3677815 C70.1562444,18.1275222 71.3904852,18.1288741 72.1488741,17.3691333 C72.9113185,16.6080407 72.9099667,15.3738 72.1502259,14.6140593" id="Fill-9"></path>
                        <path d="M59.1474112,14.4308048 C59.0727773,14.3181258 58.9868779,14.2124893 58.8868966,14.1124867 C58.6897505,13.9152986 58.4616243,13.765999 58.2165998,13.6674049 C57.8504713,13.5195138 57.4505463,13.4814847 57.0661113,13.554726 C56.6830846,13.6293758 56.316956,13.815296 56.0198286,14.1124867 C55.8226825,14.3110834 55.6734147,14.5392582 55.5748417,14.7829264 C55.3762873,15.2716713 55.3762873,15.8209812 55.5748417,16.3083176 C55.6734147,16.5533943 55.8240907,16.7815692 56.0212368,16.9801658 C56.1212181,17.0787599 56.2268321,17.166086 56.339487,17.2407358 C56.9013535,17.6111679 57.606855,17.6731413 58.218008,17.4252476 C58.4616243,17.3266535 58.6897505,17.1787624 58.8868966,16.9801658 C59.184024,16.6843836 59.3699047,16.3167685 59.4445386,15.9336601 C59.5431116,15.4223794 59.4445386,14.880112 59.1474112,14.4308048" id="Fill-12"></path>
                        <path d="M72.3997778,1.15556296 C72.3281296,1.04741481 72.2456667,0.946025926 72.1496852,0.850044444 C71.9604259,0.660785185 71.7414259,0.517488889 71.5062037,0.422859259 C70.8018889,0.137618519 69.9677963,0.279562963 69.3973148,0.850044444 C68.8268333,1.41917407 68.683537,2.25597037 68.9687778,2.96028519 C69.0634074,3.19415556 69.2067037,3.41450741 69.395963,3.60511852 C69.4919444,3.69974815 69.5946852,3.78221111 69.7014815,3.85385926 C70.4571667,4.35269259 71.4859259,4.26752593 72.1496852,3.60241481 C72.8161481,2.9373037 72.8986111,1.91124815 72.3997778,1.15556296" id="Fill-14"></path>
                        <path d="M45.3678057,56.0206801 C44.6749515,55.3264075 43.6060972,55.2405035 42.8188909,55.7601518 C42.7062317,55.8347897 42.6006137,55.9221019 42.5020368,56.0206801 C41.7091976,56.8121228 41.7091976,58.0950485 42.5020368,58.8878995 C43.2934678,59.6793421 44.5777829,59.6793421 45.3692139,58.8878995 C45.4677907,58.7893212 45.5551016,58.6822934 45.6297383,58.5710408 C46.149379,57.7824146 46.0606598,56.7135445 45.3678057,56.0206801" id="Fill-17"></path>
                        <path d="M58.888063,42.5015087 C58.0954304,41.7086697 56.812858,41.7100779 56.0216333,42.5015087 C55.2290007,43.2929396 55.226185,44.5772544 56.0202254,45.3700935 C56.8100422,46.1615243 58.0968383,46.1601161 58.888063,45.3686852 C59.6792877,44.5772544 59.6792877,43.2929396 58.888063,42.5015087" id="Fill-19"></path>
                        <path d="M45.369042,42.5007016 C44.5778515,41.7094082 43.2939267,41.7094082 42.5013283,42.5021096 C41.7101378,43.2934031 41.70873,44.5774949 42.5013283,45.3687884 C43.2925189,46.1600819 44.5778515,46.1614899 45.369042,45.3701964 C46.1616404,44.5774949 46.1602325,43.2919951 45.369042,42.5007016" id="Fill-21"></path>
                        <path d="M58.8876378,56.0192201 C58.0965503,55.2279267 56.8127925,55.2279267 56.0202973,56.0206281 C55.2278021,56.8119216 55.2278021,58.0960135 56.0202973,58.8873069 C56.8113849,59.6786004 58.0965503,59.6800084 58.8876378,58.8887149 C59.680133,58.0960135 59.6787254,56.8105136 58.8876378,56.0192201" id="Fill-23"></path>
                        <path d="M58.8875605,27.6307822 C58.09637,26.8381841 56.8124452,26.8395919 56.0198469,27.6321901 C55.2286563,28.4233804 55.2272485,29.707305 56.0198469,30.4984954 C56.8110374,31.2896858 58.09637,31.2910936 58.8875605,30.4999032 C59.6801589,29.707305 59.6787511,28.4219726 58.8875605,27.6307822" id="Fill-25"></path>
                        <path d="M72.1502259,42.1447926 C71.3904852,41.3850519 70.1575963,41.3850519 69.3965037,42.1461444 C68.6354111,42.9058852 68.6354111,44.1387741 69.3965037,44.8985148 C70.1562444,45.6582556 71.3904852,45.6596074 72.1502259,44.8998667 C72.9113185,44.1387741 72.9099667,42.9045333 72.1502259,42.1447926" id="Fill-27"></path>
                        <path d="M30.7587855,42.8201423 C30.6841366,42.7074508 30.59822,42.6003938 30.4982188,42.5017887 C30.3010331,42.3031699 30.0714527,42.1552623 29.8277876,42.0566572 C29.2179206,41.8087358 28.5108693,41.8693075 27.9488902,42.2411896 C27.8362127,42.3158477 27.7305776,42.401775 27.6305763,42.5003801 C27.0376109,43.0948279 26.8883132,43.96537 27.1855001,44.697865 C27.2855014,44.9415604 27.4333906,45.1711694 27.6319847,45.3697882 C27.7305776,45.4683933 27.8376212,45.5543206 27.9502987,45.6289788 C28.7362243,46.1487685 29.8066606,46.0614325 30.4982188,45.3697882 C30.59822,45.2697745 30.6841366,45.1641262 30.7587855,45.0514347 C31.2038616,44.3766941 31.2038616,43.4948829 30.7587855,42.8201423" id="Fill-30"></path>
                        <path d="M45.6287865,27.9495937 C45.5541597,27.8369518 45.4682685,27.7299419 45.3682967,27.6313802 C45.1711694,27.4328487 44.9430648,27.2850062 44.6980637,27.1864445 C43.9658763,26.8879433 43.0956997,27.0371939 42.5015015,27.6299722 C41.9073033,28.2241585 41.7594577,29.0943177 42.0551488,29.8278984 C42.1537125,30.0728947 42.3029661,30.3009947 42.5000934,30.4995261 C42.6000652,30.5980878 42.7070772,30.6853854 42.8183134,30.7600107 C43.6054148,31.2781637 44.6769429,31.1908662 45.3682967,30.4981181 C46.0624667,29.80537 46.1483579,28.7366794 45.6287865,27.9495937" id="Fill-32"></path>
                        <path d="M30.4984182,69.5385458 C29.7057169,68.7457067 28.4230333,68.7471149 27.63174,69.5385458 C26.8404468,70.3299766 26.8376308,71.6142914 27.630332,72.4071305 C28.4216253,73.1985614 29.7071249,73.1971531 30.4998262,72.4057223 C31.2911194,71.6142914 31.2897114,70.3299766 30.4984182,69.5385458" id="Fill-34"></path>
                        <path d="M16.9801531,69.5377387 C16.1889626,68.7464452 14.9050378,68.7464452 14.1124395,69.5391467 C13.3212489,70.3304401 13.3198411,71.614532 14.1124395,72.4058254 C14.90363,73.1971189 16.1889626,73.1985269 16.9801531,72.4072334 C17.7727515,71.614532 17.7713437,70.3290321 16.9801531,69.5377387" id="Fill-36"></path>
                        <path d="M30.4993498,56.0192201 C29.7067171,55.2279267 28.4241443,55.2279267 27.6315116,56.0206281 C26.8388788,56.8119216 26.8388788,58.0960135 27.6315116,58.8873069 C28.4227365,59.6786004 29.7067171,59.6800084 30.4979419,58.8887149 C31.2905747,58.0960135 31.2905747,56.8105136 30.4993498,56.0192201" id="Fill-38"></path>
                        <path d="M45.3691193,69.5377387 C44.5780317,68.7464452 43.2928664,68.7464452 42.5017788,69.5391467 C41.7092836,70.3304401 41.7092836,71.614532 42.5017788,72.4058254 C43.2928664,73.1971189 44.5780317,73.1985269 45.3691193,72.4072334 C46.1616145,71.614532 46.1602069,70.3290321 45.3691193,69.5377387" id="Fill-40"></path>
                        <path d="M3.72139823,69.8577442 C3.64674489,69.745062 3.56082313,69.6380139 3.46081584,69.539417 C3.26361835,69.3408147 3.03402414,69.1929193 2.79034439,69.0929138 C2.4241205,68.9450185 2.02268276,68.9069882 1.63955622,68.9816402 C1.25642968,69.0562921 0.890205783,69.2422177 0.593001004,69.5380085 C0.395803521,69.7366109 0.246496855,69.9647923 0.147898113,70.2098761 C-0.0492993709,70.6972265 -0.0492993709,71.2465522 0.147898113,71.7353112 C0.247905408,71.9789865 0.395803521,72.2085764 0.594409558,72.4071788 C0.6930083,72.5057757 0.800058362,72.5916959 0.912742639,72.6663478 C1.47475547,73.0367905 2.18044075,73.0987657 2.79034439,72.8522735 C3.0354327,72.7536765 3.26361835,72.6043726 3.46081584,72.4071788 C3.75802062,72.1099795 3.94394967,71.7437624 4.01860301,71.3606429 C4.11720175,70.8493475 4.01860301,70.3070644 3.72139823,69.8577442" id="Fill-42"></path>
                        <path d="M17.2399235,56.337957 C17.1653024,56.2252962 17.0794179,56.1196767 16.9794539,56.0196902 C16.7823417,55.8225338 16.5528469,55.6732583 16.3092726,55.5746801 C15.5771419,55.2775372 14.7070327,55.4254045 14.1128804,56.0196902 C13.5201361,56.6125677 13.3694861,57.4842806 13.6665622,58.2165758 C13.7651183,58.461613 13.9143603,58.6911594 14.1114724,58.8897241 C14.2114365,58.9883023 14.3184402,59.0742061 14.4296677,59.1488439 C15.2167083,59.6670836 16.2881535,59.5797715 16.9794539,58.8869076 C17.6735701,58.1940437 17.7594547,57.1251743 17.2399235,56.337957" id="Fill-44"></path>
                        <path d="M45.3686077,0.594286456 C44.8728614,0.0985975286 44.1869851,-0.0858776119 43.547585,0.0366364127 C43.1659167,0.111271393 42.7997404,0.298562948 42.5025743,0.594286456 C42.3039941,0.792843668 42.1561152,1.02097323 42.0561209,1.26459307 C41.7589548,1.99686081 41.9068337,2.86713284 42.5025743,3.46139627 C43.0954981,4.0556597 43.9672793,4.20352146 44.6982235,3.90779795 C44.9432799,3.80781524 45.1714359,3.65995348 45.3700161,3.46280448 C45.6671822,3.16567276 45.8530871,2.79813069 45.9263223,2.41509834 C46.0488505,1.77577228 45.864354,1.08997538 45.3686077,0.594286456" id="Fill-46"></path>
                        <path d="M58.3860759,0.850044444 C57.6263352,0.0889518519 56.3920944,0.0889518519 55.6310019,0.850044444 C54.8712611,1.60978519 54.8712611,2.84267407 55.6323537,3.60376667 C56.3920944,4.36350741 57.6263352,4.36485926 58.3847241,3.60511852 C59.1458167,2.84267407 59.1458167,1.60978519 58.3860759,0.850044444" id="Fill-48"></path>
                        <path d="M16.9794734,27.6308049 C16.2865782,26.9378841 15.2176607,26.8519732 14.4304079,27.3702554 C14.3177421,27.4448993 14.2121178,27.5322186 14.1121268,27.6308049 C13.3206491,28.422312 13.3206491,29.7053422 14.1121268,30.4982576 C14.9050129,31.2897647 16.1894039,31.2911731 16.9808817,30.499666 C17.0794643,30.3996713 17.1667804,30.2940432 17.2414215,30.1813731 C17.7596846,29.3940912 17.6723685,28.3237257 16.9794734,27.6308049" id="Fill-51"></path>
                        <path d="M30.4984182,14.112066 C29.7071249,13.3206694 28.4244413,13.3206694 27.63174,14.112066 C26.8404468,14.9034626 26.8376308,16.1877218 27.630332,16.9805266 C28.4216253,17.7719232 29.7085329,17.7719232 30.4998262,16.9805266 C31.2911194,16.1877218 31.2897114,14.9034626 30.4984182,14.112066" id="Fill-53"></path>
                        <path d="M16.9807541,14.1122637 C16.1880181,13.3196655 14.9052785,13.3210733 14.1125426,14.1136715 C13.3212147,14.9048619 13.3198066,16.1873787 14.1125426,16.9799769 C14.9038704,17.7711673 16.1880181,17.7725751 16.979346,16.9813847 C17.7720819,16.1873787 17.7720819,14.9034541 16.9807541,14.1122637" id="Fill-55"></path>
                        <path d="M30.4992254,27.6313826 C29.7066615,26.8389219 28.4242001,26.8389219 27.6302283,27.6313826 C26.8390721,28.4224358 26.8390721,29.7061377 27.6316361,30.4985985 C28.4227923,31.2896516 29.7066615,31.2910592 30.4992254,30.500006 C31.2903816,29.7061377 31.2903816,28.4224358 30.4992254,27.6313826" id="Fill-57"></path>
                        <path d="M30.4991224,0.593745209 C29.7064209,-0.198852986 28.4237369,-0.197445174 27.6310353,0.595153021 C26.8397418,1.3863434 26.8383338,2.6688602 27.6310353,3.46145839 C28.4223289,4.25264878 29.7064209,4.25405659 30.4991224,3.4628662 C31.290416,2.6688602 31.290416,1.38493559 30.4991224,0.593745209" id="Fill-59"></path>
                        <path d="M45.3697459,14.1128641 C44.5785554,13.3204033 43.2932228,13.3204033 42.5006244,14.1128641 C41.7094339,14.9039172 41.7094339,16.1876192 42.5020323,16.9800799 C43.2932228,17.7711331 44.5785554,17.7725407 45.3683381,16.9814875 C46.1609365,16.1876192 46.1609365,14.9039172 45.3697459,14.1128641" id="Fill-61"></path>
                        <path d="M4.01858604,15.1593991 C3.94394284,14.776298 3.75944737,14.4100984 3.46228291,14.1129134 C2.76796028,13.4199511 1.69901325,13.3326266 0.911738695,13.8523483 C0.799069707,13.9269967 0.69344253,14.0129127 0.593448803,14.1115049 C-0.198050838,14.9030594 -0.198050838,16.1875749 0.594857166,16.9805378 C0.892021622,17.2763144 1.25819583,17.4622311 1.64127039,17.5368795 C2.2806669,17.6608239 2.96794773,17.4749072 3.46228291,16.9805378 C3.56086828,16.8819456 3.64818675,16.7749026 3.72282995,16.6622258 C4.01858604,16.2129271 4.11717141,15.6706701 4.01858604,15.1593991" id="Fill-63"></path>
                        <path d="M17.5368905,1.64088791 C17.4622644,1.25790262 17.2778111,0.891813743 16.9807145,0.594718539 C16.1879876,-0.198004684 14.9052626,-0.198004684 14.1125358,0.593310504 C13.3212169,1.38462569 13.3198089,2.67016087 14.1125358,3.46288409 C14.4096323,3.75997929 14.7757229,3.9458398 15.1587099,4.01905757 C15.7979604,4.14155655 16.4850842,3.95569604 16.9807145,3.46147605 C17.4749367,2.96584804 17.6607981,2.28013541 17.5368905,1.64088791" id="Fill-65"></path>
                        <path d="M3.32325741,42.1468204 C2.56351667,41.3857278 1.33197963,41.3870796 0.570887037,42.1468204 C-0.188853704,42.9065611 -0.191557407,44.1408019 0.569535185,44.9005426 C1.32927593,45.6602833 2.56486852,45.6602833 3.32460926,44.9005426 C4.08435,44.1408019 4.08299815,42.9065611 3.32325741,42.1468204" id="Fill-67"></path>
                        <path d="M3.32460926,55.9115111 C2.56351667,55.1504185 1.33197963,55.1504185 0.569535185,55.9115111 C-0.190205556,56.6712519 -0.190205556,57.9041407 0.570887037,58.6652333 C1.33062778,59.4249741 2.56351667,59.4263259 3.32460926,58.6665852 C4.08570185,57.9041407 4.08435,56.6712519 3.32460926,55.9115111" id="Fill-70"></path>
                        <path d="M3.46208539,27.6307822 C2.66938385,26.8381841 1.38669982,26.8395919 0.593998277,27.6321901 C-0.197295272,28.4233804 -0.198703267,29.7058972 0.593998277,30.4984954 C1.38529183,31.2896858 2.66938385,31.2910936 3.46208539,30.4999032 C4.25337894,29.7058972 4.25337894,28.4219726 3.46208539,27.6307822" id="Fill-73"></path>
                        <path d="M16.9807069,42.501753 C16.1881429,41.7092922 14.9042738,41.7092922 14.1117098,42.501753 C13.3205536,43.2928061 13.3205536,44.5765081 14.1131176,45.3689688 C14.9042738,46.160022 16.1881429,46.1614296 16.9807069,45.3703764 C17.7718631,44.5765081 17.7718631,43.2928061 16.9807069,42.501753" id="Fill-75"></path>
                        <path d="M3.46173769,0.593745209 C2.67068447,-0.198852986 1.38698244,-0.197445174 0.593114086,0.595153021 C-0.197939134,1.3863434 -0.197939134,2.67026801 0.594521654,3.46145839 C1.38557487,4.25264878 2.67068447,4.25405659 3.46173769,3.4628662 C4.25419847,2.67026801 4.25279091,1.38493559 3.46173769,0.593745209" id="Fill-77"></path>
                    </g>
                </g>
            </g>
        </g>
    </g>
</svg>