<?xml version="1.0" encoding="UTF-8"?>
<svg width="124px" height="103px" viewBox="0 0 124 103" version="1.1" xmlns="http://www.w3.org/2000/svg" xmlns:xlink="http://www.w3.org/1999/xlink">
    <!-- Generator: sketchtool 52.1 (67048) - http://www.bohemiancoding.com/sketch -->
    <title>93211457-3112-4072-AAFF-5139A7106145</title>
    <desc>Created with sketchtool.</desc>
    <g id="Page-1" stroke="none" stroke-width="1" fill="none" fill-rule="evenodd">
        <g id="Yevdokimov-MVP-Website" transform="translate(-495.000000, -4130.000000)">
            <g id="web-design" transform="translate(495.000000, 4130.000000)">
                <g id="Group" transform="translate(15.733417, 24.205257)" fill="#54DA83">
                    <polygon id="Path" points="27.9939055 24.2052566 0 24.2052566 0 0 27.9939055 0"></polygon>
                    <polygon id="Path" points="59.9869403 24.2052566 31.9930348 24.2052566 31.9930348 0 59.9869403 0"></polygon>
                    <polygon id="Path" points="91.9799751 24.2052566 63.9860696 24.2052566 63.9860696 0 91.9799751 0"></polygon>
                </g>
                <g id="Group" fill="#333333">
                    <path d="M115.482498,0 L7.96431024,0 C3.57199314,0 0,3.61868586 0,8.06841887 L0,80.6841887 C0,85.1339217 3.57199314,88.7526075 7.96431024,88.7526075 L43.8037063,88.7526075 L43.8037063,98.8381311 L29.8661634,98.8381311 L29.8661634,102.872341 L43.8037063,102.872341 L79.6431024,102.872341 L93.5806453,102.872341 L93.5806453,98.8381311 L79.6431024,98.8381311 L79.6431024,88.7526075 L115.482498,88.7526075 C119.874816,88.7526075 123.446809,85.1339217 123.446809,80.6841887 L123.446809,8.06841887 C123.446809,3.61868586 119.874816,0 115.482498,0 Z M75.6609473,98.8381311 L47.7858614,98.8381311 L47.7858614,88.7526075 L75.6609473,88.7526075 L75.6609473,98.8381311 Z M119.464654,80.6841887 C119.464654,82.9090552 117.678657,84.7183981 115.482498,84.7183981 L79.6431024,84.7183981 L43.8037063,84.7183981 L7.96431024,84.7183981 C5.76815169,84.7183981 3.98215512,82.9090552 3.98215512,80.6841887 L3.98215512,8.06841887 C3.98215512,5.84355237 5.76815169,4.03420943 7.96431024,4.03420943 L115.482498,4.03420943 C117.678657,4.03420943 119.464654,5.84355237 119.464654,8.06841887 L119.464654,80.6841887 Z" id="Shape" fill-rule="nonzero"></path>
                    <path d="M7.96431024,80.6841887 L115.482498,80.6841887 L115.482498,8.06841887 L7.96431024,8.06841887 L7.96431024,80.6841887 Z M11.9464654,12.1026283 L111.500343,12.1026283 L111.500343,76.6499792 L11.9464654,76.6499792 L11.9464654,12.1026283 Z" id="Shape" fill-rule="nonzero"></path>
                    <ellipse id="Oval" cx="17.919698" cy="18.1539425" rx="1.99107756" ry="2.01710472"></ellipse>
                    <ellipse id="Oval" cx="23.8929307" cy="18.1539425" rx="1.99107756" ry="2.01710472"></ellipse>
                    <ellipse id="Oval" cx="29.8661634" cy="18.1539425" rx="1.99107756" ry="2.01710472"></ellipse>
                    <rect id="Rectangle" x="15.9286205" y="52.4447226" width="59.7323268" height="4.03420943"></rect>
                    <rect id="Rectangle" x="15.9286205" y="60.5131415" width="59.7323268" height="4.03420943"></rect>
                    <rect id="Rectangle" x="15.9286205" y="68.5815604" width="59.7323268" height="4.03420943"></rect>
                    <rect id="Rectangle" x="81.6341799" y="52.4447226" width="25.8840083" height="4.03420943"></rect>
                    <rect id="Rectangle" x="81.6341799" y="60.5131415" width="25.8840083" height="4.03420943"></rect>
                    <rect id="Rectangle" x="81.6341799" y="68.5815604" width="25.8840083" height="4.03420943"></rect>
                </g>
            </g>
        </g>
    </g>
</svg>