<?xml version="1.0" encoding="UTF-8"?>
<svg width="111px" height="111px" viewBox="0 0 111 111" version="1.1" xmlns="http://www.w3.org/2000/svg" xmlns:xlink="http://www.w3.org/1999/xlink">
    <!-- Generator: sketchtool 52.1 (67048) - http://www.bohemiancoding.com/sketch -->
    <title>87B15AAB-D3E4-45DD-9D0C-33CE136F9923</title>
    <desc>Created with sketchtool.</desc>
    <g id="Page-1" stroke="none" stroke-width="1" fill="none" fill-rule="evenodd">
        <g id="Yevdokimov-MVP-Website" transform="translate(-1309.000000, -4126.000000)">
            <g id="graphic-design-(1)" transform="translate(1309.000000, 4126.000000)">
                <path d="M95.8172519,39.890625 C94.4669968,41.1526719 92.9410114,42.2328984 91.2751589,43.0813932 L91.2751589,47.0208333 L90.3785752,47.0208333 C91.8633178,47.0208333 93.0683263,48.2187083 93.0683263,49.6946615 C93.0683263,51.1706146 91.8633178,52.3684896 90.3785752,52.3684896 C91.8633178,52.3684896 93.0683263,53.5663646 93.0683263,55.0423177 C93.0683263,56.5182708 91.8633178,57.7161458 90.3785752,57.7161458 L74.2400689,57.7161458 C72.7553263,57.7161458 71.5503178,56.5182708 71.5503178,55.0423177 C71.5503178,53.5663646 72.7553263,52.3684896 74.2400689,52.3684896 C72.7553263,52.3684896 71.5503178,51.1706146 71.5503178,49.6946615 C71.5503178,48.2187083 72.7553263,47.0208333 74.2400689,47.0208333 L73.3434852,47.0208333 L73.3434852,43.0813932 C71.6776327,42.2328984 70.1516472,41.1526719 68.8013922,39.890625 L5.203125,39.890625 L5.203125,55.7232526 L21.1999711,70.6895599 L14.1689619,64.1119427 L14.1689619,48.8033854 L57.2049788,48.8033854 L57.2049788,77.3242188 L28.2901549,77.3242188 L56.8678633,104.0625 L105.620498,104.0625 C108.586397,104.0625 111,101.663185 111,98.7148438 L111,39.890625 L95.8172519,39.890625 Z" id="Path" fill="#54DA83"></path>
                <g id="Group" fill="#333333">
                    <circle id="Oval" cx="14.3225806" cy="34.016129" r="1.79032258"></circle>
                    <circle id="Oval" cx="21.483871" cy="34.016129" r="1.79032258"></circle>
                    <circle id="Oval" cx="28.6451613" cy="34.016129" r="1.79032258"></circle>
                    <path d="M32.9365645,78.7741935 L59.0806452,78.7741935 L59.0806452,46.5483871 L12.5322581,46.5483871 L12.5322581,59.5711935 L5.62519355,53.0705323 C3.88320968,51.4305968 2.4026129,51.8137258 1.8476129,52.0500484 C1.29082258,52.2881613 0,53.1045484 0,55.5 L0,105.629032 C0,108.590226 2.40977419,111 5.37096774,111 L59.0806452,111 C61.4241774,111 62.2334032,109.841661 62.5073226,109.148806 C62.7812419,108.457742 62.9889194,107.05771 61.2809516,105.45179 L32.9365645,78.7741935 Z M16.1129032,50.1290323 L55.5,50.1290323 L55.5,75.1935484 L29.132129,75.1935484 L16.1129032,62.9405806 L16.1129032,50.1290323 Z M5.37096774,107.419355 C4.38270968,107.419355 3.58064516,106.61729 3.58064516,105.629032 L3.58064516,103.83871 L7.16129032,103.83871 L7.16129032,100.258065 L3.58064516,100.258065 L3.58064516,96.6774194 L7.16129032,96.6774194 L7.16129032,93.0967742 L3.58064516,93.0967742 L3.58064516,89.516129 L7.16129032,89.516129 L7.16129032,85.9354839 L3.58064516,85.9354839 L3.58064516,82.3548387 L7.16129032,82.3548387 L7.16129032,78.7741935 L3.58064516,78.7741935 L3.58064516,75.1935484 L7.16129032,75.1935484 L7.16129032,71.6129032 L3.58064516,71.6129032 L3.58064516,68.0322581 L7.16129032,68.0322581 L7.16129032,64.4516129 L3.58064516,64.4516129 L3.58064516,56.0639516 L58.1478871,107.419355 L5.37096774,107.419355 Z" id="Shape" fill-rule="nonzero"></path>
                    <path d="M12.5322581,76.7797742 L12.5322581,98.4677419 L35.5755,98.4677419 L12.5322581,76.7797742 Z M16.1129032,85.0671774 L26.5469032,94.8870968 L16.1129032,94.8870968 L16.1129032,85.0671774 Z" id="Shape" fill-rule="nonzero"></path>
                    <path d="M111,10.7419355 L111,0 L100.258065,0 L100.258065,3.58064516 L64.4516129,3.58064516 L64.4516129,0 L53.7096774,0 L53.7096774,10.7419355 L64.4516129,10.7419355 L64.4516129,7.16129032 L70.5046935,7.16129032 C64.7058387,11.0122742 60.8709677,17.5952903 60.8709677,25.0645161 L10.7419355,25.0645161 C7.78074194,25.0645161 5.37096774,27.4742903 5.37096774,30.4354839 L5.37096774,42.9677419 L7.16129032,42.9677419 L70.5870484,42.9677419 C70.9307903,43.1933226 71.2530484,43.4457581 71.6129032,43.6534355 L71.6129032,45.6765 C70.5315484,46.4946774 69.8225806,47.7783387 69.8225806,49.2356613 C69.8225806,50.2471935 70.1716935,51.171 70.7392258,51.9211452 C70.1716935,52.6695 69.8225806,53.5933065 69.8225806,54.6048387 C69.8225806,57.0736935 71.8295323,59.0806452 74.2983871,59.0806452 L90.4112903,59.0806452 C92.8801452,59.0806452 94.8870968,57.0736935 94.8870968,54.6048387 C94.8870968,53.5933065 94.5379839,52.6695 93.9704516,51.9193548 C94.5379839,51.1692097 94.8870968,50.2454032 94.8870968,49.233871 C94.8870968,47.7765484 94.178129,46.4928871 93.0967742,45.6747097 L93.0967742,43.6516452 C93.456629,43.4439677 93.7788871,43.1915323 94.122629,42.9659516 L109.209677,42.9659516 L111,42.9659516 L111,30.4336935 C111,27.4725 108.590226,25.0627258 105.629032,25.0627258 L103.83871,25.0627258 C103.83871,17.5935 100.003839,11.0104839 94.2049839,7.1595 L100.258065,7.1595 L100.258065,10.7401452 L111,10.7401452 L111,10.7419355 Z M57.2903226,7.16129032 L57.2903226,3.58064516 L60.8709677,3.58064516 L60.8709677,7.16129032 L57.2903226,7.16129032 Z M8.9516129,30.4354839 C8.9516129,29.4472258 9.75367742,28.6451613 10.7419355,28.6451613 L61.2039677,28.6451613 C61.8825,32.6859194 63.6960968,36.3883065 66.4012742,39.3870968 L8.9516129,39.3870968 L8.9516129,30.4354839 Z M82.3548387,28.6451613 C80.3801129,28.6451613 78.7741935,27.0392419 78.7741935,25.0645161 C78.7741935,23.0897903 80.3801129,21.483871 82.3548387,21.483871 C84.3295645,21.483871 85.9354839,23.0897903 85.9354839,25.0645161 C85.9354839,27.0392419 84.3295645,28.6451613 82.3548387,28.6451613 Z M90.4112903,48.3387097 C90.903629,48.3387097 91.3064516,48.7415323 91.3064516,49.233871 C91.3064516,49.7262097 90.903629,50.1290323 90.4112903,50.1290323 L74.2983871,50.1290323 C73.8060484,50.1290323 73.4032258,49.7262097 73.4032258,49.233871 C73.4032258,48.7415323 73.8060484,48.3387097 74.2983871,48.3387097 L90.4112903,48.3387097 Z M90.4112903,55.5 L74.2983871,55.5 C73.8060484,55.5 73.4032258,55.0971774 73.4032258,54.6048387 C73.4032258,54.1125 73.8060484,53.7096774 74.2983871,53.7096774 L90.4112903,53.7096774 C90.903629,53.7096774 91.3064516,54.1125 91.3064516,54.6048387 C91.3064516,55.0971774 90.903629,55.5 90.4112903,55.5 Z M105.629032,28.6451613 C106.61729,28.6451613 107.419355,29.4472258 107.419355,30.4354839 L107.419355,39.3870968 L98.3084032,39.3870968 C101.013581,36.3883065 102.825387,32.6859194 103.50571,28.6451613 L105.629032,28.6451613 Z M100.258065,25.0645161 C100.258065,31.8086613 96.5145,37.9136613 90.4900645,40.9948065 L89.516129,41.4960968 L89.516129,44.7580645 L84.1451613,44.7580645 L84.1451613,31.9715806 C87.2263065,31.1713065 89.516129,28.3927258 89.516129,25.0645161 C89.516129,21.1150645 86.3042903,17.9032258 82.3548387,17.9032258 C78.4053871,17.9032258 75.1935484,21.1150645 75.1935484,25.0645161 C75.1935484,28.3927258 77.483371,31.1713065 80.5645161,31.9715806 L80.5645161,44.7580645 L75.1935484,44.7580645 L75.1935484,41.4960968 L74.2196129,40.9965968 C68.1951774,37.9136613 64.4516129,31.8086613 64.4516129,25.0645161 C64.4516129,15.1926774 72.483,7.16129032 82.3548387,7.16129032 C92.2266774,7.16129032 100.258065,15.1926774 100.258065,25.0645161 Z M107.419355,3.58064516 L107.419355,7.16129032 L103.83871,7.16129032 L103.83871,3.58064516 L107.419355,3.58064516 Z" id="Shape" fill-rule="nonzero"></path>
                    <rect id="Rectangle" x="62.6612903" y="64.4516129" width="41.1774194" height="3.58064516"></rect>
                    <rect id="Rectangle" x="62.6612903" y="71.6129032" width="41.1774194" height="3.58064516"></rect>
                    <rect id="Rectangle" x="62.6612903" y="78.7741935" width="41.1774194" height="3.58064516"></rect>
                    <rect id="Rectangle" x="62.6612903" y="85.9354839" width="41.1774194" height="3.58064516"></rect>
                </g>
            </g>
        </g>
    </g>
</svg>