<?xml version="1.0" encoding="UTF-8"?>
<svg width="112px" height="111px" viewBox="0 0 112 111" version="1.1" xmlns="http://www.w3.org/2000/svg" xmlns:xlink="http://www.w3.org/1999/xlink">
    <!-- Generator: sketchtool 52.1 (67048) - http://www.bohemiancoding.com/sketch -->
    <title>C85CAA54-1764-4906-B8C0-65BD8FD7EF54</title>
    <desc>Created with sketchtool.</desc>
    <g id="Page-1" stroke="none" stroke-width="1" fill="none" fill-rule="evenodd">
        <g id="Yevdokimov-MVP-Website" transform="translate(-904.000000, -4126.000000)">
            <g id="sketchbook" transform="translate(904.000000, 4126.000000)">
                <g id="Group" transform="translate(21.960784, 23.079208)" fill="#54DA83">
                    <path d="M26.0186646,23.9646959 C25.929876,23.2740859 26.0422207,22.6152687 26.2814061,22.0147383 L26.2814061,22.0165046 L23.6249982,19.428925 L29.0610309,17.6626591 L31.2191358,17.9629243 C29.4959135,16.0871499 30.2225299,13.0756665 32.6904887,12.2013649 L44.1967579,8.12305693 C39.556198,3.14571959 32.8807498,0 25.4370091,0 C11.4265408,0 0.0688564143,11.0709547 0.0688564143,24.7277228 C0.0688564143,38.3844908 11.4265408,49.4554455 25.4370091,49.4554455 C30.5885561,49.4554455 35.3722648,47.9488207 39.3749969,45.3789038 L27.24902,33.5590523 L26.0186646,23.9646959 Z" id="Path"></path>
                    <path d="M35.0551629,24.0477104 L38.1210854,30.0265205 L45.369129,35.3253182 L49.9988168,30.8125088 C50.1310936,30.302058 50.2597464,29.7898409 50.359407,29.2670262 L48.3897512,25.9058221 L35.0551629,24.0477104 Z" id="Path"></path>
                </g>
                <path d="M107.856137,88.7764717 L102.9692,89.9814048 L95.7789113,74.3850082 L93.5316072,54.4430099 L96.8582682,54.911793 C97.0788403,54.9438771 97.2994124,54.9563542 97.5163686,54.9563542 C99.4798218,54.9563542 101.258862,53.7246845 101.893459,51.8424222 C102.329179,50.5590616 102.164654,49.1616244 101.443275,48.0101648 C100.721896,46.8569226 99.525021,46.0851238 98.1654291,45.8926197 L94.0143346,45.3061952 L94.0143346,8.91222661 C94.0143346,3.99802486 89.9590624,0 84.9744947,0 L9.03983987,0 C4.05527216,0 0,3.99802486 0,8.91222661 C0,13.2150496 3.11151288,16.8155892 7.23187189,17.6444262 L7.23187189,110.51161 L79.4782721,110.51161 L79.6192936,111 L83.097824,110.021438 L79.993543,99.3160709 L92.7415252,96.1736198 L104.491509,93.2771462 L105.484083,93.0329512 L108.572093,102.162636 L112,101.034348 L107.856137,88.7764717 Z M99.4020792,90.8583679 L83.379867,94.8064842 L79.2992833,82.7411119 L66.3650804,71.8182869 L50.5327048,56.2076308 L49.3810293,47.1332017 C49.3430619,46.8319684 49.3701814,46.5378649 49.4461161,46.2562386 L49.5347065,46.0334329 C49.7082715,45.5931689 50.0011623,45.2313325 50.3681798,44.9746604 C51.311939,44.3668465 52.6823788,44.5379613 53.4399174,45.3596686 C53.5628592,45.5004817 53.6767612,45.6519896 53.7635436,45.8248868 L55.4087945,49.0707197 L58.2346484,54.6444262 L67.062956,61.171741 L74.571447,53.7692456 L73.3112933,51.5928799 L89.8343126,53.9207534 L92.2154065,75.0569901 L99.4020792,90.8583679 Z M30.7517273,60.2644763 C31.9214825,60.4765873 33.1201653,60.603141 34.3513915,60.603141 C38.9707497,60.603141 43.3677278,59.0149822 46.8842255,56.1898063 L47.0957577,57.8670874 L59.8292762,70.41372 C56.7557306,74.3279699 52.0712856,76.6451489 47.0071673,76.6451489 C38.0342223,76.6451489 30.7354555,69.4494171 30.7354555,60.603141 C30.7354555,60.4890645 30.7499193,60.3785528 30.7517273,60.2644763 Z M88.7025247,43.8659794 L88.7820753,44.5682628 L77.6468005,42.999711 L67.5041002,41.5701898 L66.0324143,39.0319877 L58.3919416,40.2868292 L56.6653322,40.0444166 L53.8105508,39.641584 C53.6351779,39.2672704 53.5935946,38.8430485 53.7002647,38.4223914 C53.8503261,37.8288371 54.2733906,37.3671837 54.8627881,37.1568552 L68.5256021,32.2586954 L88.7025247,43.8659794 Z M56.9961904,44.2295982 C56.8931362,44.0281819 56.7810422,43.8321129 56.6562924,43.6467386 L81.8286305,47.1920224 L90.324272,48.3880432 L89.9879899,50.3398208 L57.7953122,45.8052799 L56.9961904,44.2295982 Z M44.6423452,44.7518547 L45.8482598,45.9407457 C45.7614774,46.4790442 45.72351,47.0262549 45.7940208,47.5770305 L46.0742558,49.7926101 C45.0617938,48.2828789 44.3205269,46.6198574 43.8775747,44.8605839 C44.1288823,44.8142403 44.3874217,44.7875036 44.6423452,44.7518547 Z M68.8817718,28.3408806 L53.6261381,33.8094229 C53.3929102,33.8931978 53.1886098,34.0250988 52.9716536,34.1373928 C52.1725318,32.0269776 51.0190482,30.1019366 49.5889456,28.4210907 C52.3641764,26.257202 55.8589785,24.9542345 59.6629431,24.9542345 C63.9966423,24.9542345 68.0519145,26.6939011 71.0368696,29.5814626 L68.8817718,28.3408806 Z M50.2126945,37.5062145 C50.2072706,37.5240389 50.1964228,37.5400809 50.1928069,37.5596878 C50.0463615,38.1372001 50.0337057,38.7200597 50.0789049,39.297572 L44.2482082,41.2137007 C43.9679731,41.2511321 43.6859301,41.2814337 43.411119,41.3313421 C43.4075031,41.2172656 43.3912314,41.1085365 43.3912314,40.9962424 C43.3912314,37.1889392 44.7490153,33.6935639 47.0035514,30.9396859 C48.5385162,32.8130359 49.6576484,35.0410926 50.2126945,37.5062145 Z M39.7752954,40.9962424 C39.7752954,41.4365064 39.8223026,41.8696406 39.8512301,42.3063397 C33.868664,44.5540033 29.3704397,49.5252433 27.7703881,55.6550727 C22.069865,53.1578668 18.0796797,47.5324694 18.0796797,40.9962424 C18.0796797,32.1499663 25.3784464,24.9542345 34.3513915,24.9542345 C38.1191967,24.9542345 41.6320785,26.2447249 44.425389,28.4210907 C41.5272164,31.8273437 39.7752954,36.2121592 39.7752954,40.9962424 Z M40.4333958,45.9318335 C41.1710467,48.7391849 42.5288306,51.3397726 44.4362368,53.5696117 C41.5868793,55.7958859 38.0541099,57.0382503 34.3513915,57.0382503 C33.2810744,57.0382503 32.236069,56.9295211 31.2236069,56.7334522 C32.4277136,51.8869833 35.8429651,47.9121303 40.4333958,45.9318335 Z M70.0641829,53.1756913 L66.724866,56.4678678 L61.0894298,52.3005106 L59.7641893,49.6874458 L68.7769097,50.9565469 L70.0641829,53.1756913 Z M98.3661135,49.8817323 C98.4583199,50.0278929 98.5939175,50.3309086 98.4637438,50.7159168 C98.3100665,51.1686579 97.8436108,51.4520667 97.3717311,51.3807689 L93.5713824,50.8460353 L93.9076645,48.8942576 L97.6537741,49.4218615 C98.058759,49.4788997 98.2739071,49.7337894 98.3661135,49.8817323 Z M90.3983987,8.91222661 L90.3983987,40.7146161 L86.7824627,38.6345024 L86.7824627,14.2595626 L84.9744947,14.2595626 C81.9841157,14.2595626 79.5505908,11.8603912 79.5505908,8.91222661 C79.5505908,5.96406205 81.9841157,3.56489064 84.9744947,3.56489064 C87.9648738,3.56489064 90.3983987,5.96406205 90.3983987,8.91222661 Z M3.61593595,8.91222661 C3.61593595,5.96406205 6.04946084,3.56489064 9.03983987,3.56489064 L77.78963,3.56489064 C76.6415703,5.05857982 75.9346549,6.8980634 75.9346549,8.91222661 C75.9346549,10.9263898 76.6415703,12.7658734 77.78963,14.2595626 L9.03983987,14.2595626 C6.04946084,14.2595626 3.61593595,11.8603912 3.61593595,8.91222661 Z M75.4917027,96.7511321 L78.4441144,106.946719 L10.8478078,106.946719 L10.8478078,17.8244532 L83.1665268,17.8244532 L83.1665268,36.5561711 L78.0517854,33.6151363 C75.0198231,26.2785914 67.7228643,21.3893439 59.6629431,21.3893439 C54.8591722,21.3893439 50.4495383,23.0773196 47.0071673,25.8828885 C43.5412927,23.0612776 39.1099632,21.3893439 34.3513915,21.3893439 C23.3860657,21.3893439 14.4637438,30.1857115 14.4637438,40.9962424 C14.4637438,49.3131323 19.7538581,56.4197418 27.1827985,59.2645245 C27.152063,59.7083534 27.1195196,60.1521823 27.1195196,60.603141 C27.1195196,71.4136718 36.0418415,80.2100395 47.0071673,80.2100395 C53.0457803,80.2100395 58.650481,77.5274593 62.4128624,72.9572695 L63.9098599,74.4331342 L76.1841545,84.806966 L79.8597533,95.6745351 L75.4917027,96.7511321 Z" id="Shape" fill="#333333" fill-rule="nonzero"></path>
            </g>
        </g>
    </g>
</svg>