<?xml version="1.0" encoding="UTF-8"?>
<svg width="20px" height="12px" viewBox="0 0 20 12" version="1.1" xmlns="http://www.w3.org/2000/svg" xmlns:xlink="http://www.w3.org/1999/xlink">
    <!-- Generator: sketchtool 52.1 (67048) - http://www.bohemiancoding.com/sketch -->
    <title>BA73F1AF-81D8-4FB3-BC6F-494A9366F823</title>
    <desc>Created with sketchtool.</desc>
    <g id="Symbols" stroke="none" stroke-width="1" fill="none" fill-rule="evenodd">
        <g id="twitter" transform="translate(0.000000, -4.000000)" fill="#000000">
            <g id="twitter-white" transform="translate(0.000000, 4.000000)">
                <g id="behance">
                    <path d="M8.2275,5.44370093 C8.6425,5.24392523 8.95625,5.02142056 9.17125,4.78097196 C9.55375,4.34792523 9.7425,3.77371963 9.7425,3.06194393 C9.7425,2.36930841 9.55375,1.77715888 9.17625,1.28071028 C8.54625,0.472037383 7.48,0.0581308411 5.9725,0.0365981308 L0,0.0365981308 L0,11.7037383 L5.56875,11.7037383 C6.19625,11.7037383 6.7775,11.6522991 7.315,11.547028 C7.8525,11.4405607 8.3175,11.2455701 8.71125,10.9608598 C9.06125,10.7132336 9.35375,10.4057944 9.58625,10.0433271 C9.95375,9.49543925 10.1375,8.87457944 10.1375,8.18314019 C10.1375,7.51323364 9.97625,6.94261682 9.65625,6.47368224 C9.3325,6.00474766 8.8575,5.66142056 8.2275,5.44370093 Z M2.46375,2.06306542 L5.15375,2.06306542 C5.745,2.06306542 6.2325,2.12407477 6.615,2.2448972 C7.0575,2.42074766 7.27875,2.77842991 7.27875,3.32392523 C7.27875,3.81319626 7.11,4.1553271 6.77625,4.34792523 C6.44,4.54052336 6.00375,4.63742056 5.46875,4.63742056 L2.46375,4.63742056 L2.46375,2.06306542 Z M6.7175,9.47390654 C6.42,9.61147664 6.00125,9.67966355 5.465,9.67966355 L2.46375,9.67966355 L2.46375,6.56818692 L5.50625,6.56818692 C6.03625,6.5717757 6.44875,6.63876636 6.74375,6.76437383 C7.26875,6.99166355 7.53,7.40796262 7.53,8.01685981 C7.53,8.73461682 7.26,9.21790654 6.7175,9.47390654 Z" id="Shape" fill-rule="nonzero"></path>
                    <rect id="Rectangle" x="12.78" y="0.580897196" width="5.29625" height="1.45226168"></rect>
                    <path d="M19.91625,6.31218692 C19.80625,5.63629907 19.56375,5.04175701 19.18625,4.52856075 C18.7725,3.94717757 18.2475,3.52130841 17.60875,3.25214953 C16.9725,2.98179439 16.25625,2.84661682 15.45875,2.84781308 C14.12,2.84781308 13.0325,3.24856075 12.19125,4.04407477 C11.3525,4.84198131 10.9325,5.98919626 10.9325,7.48452336 C10.9325,9.07914019 11.39625,10.2311402 12.32875,10.9381308 C13.2575,11.6463178 14.33,11.999215 15.5475,11.999215 C17.02125,11.999215 18.1675,11.5793271 18.98625,10.7419439 C19.51,10.2131963 19.80625,9.69282243 19.87125,9.18201869 L17.43125,9.18201869 C17.29,9.43442991 17.12625,9.63181308 16.93875,9.77536449 C16.59875,10.0385421 16.15625,10.1701308 15.61375,10.1701308 C15.0975,10.1701308 14.66,10.061271 14.295,9.84474766 C13.6925,9.49783178 13.3775,8.89013084 13.3375,8.02523364 L19.99625,8.02523364 C20.00625,7.27996262 19.98125,6.70695327 19.91625,6.31218692 Z M13.3975,6.53588785 C13.485,5.97484112 13.6975,5.52983178 14.035,5.20085981 C14.3725,4.87308411 14.85,4.708 15.46125,4.70680374 C16.025,4.70680374 16.49625,4.8611215 16.88,5.17095327 C17.25875,5.48317757 17.4725,5.93656075 17.51625,6.53588785 L13.3975,6.53588785 Z" id="Shape" fill-rule="nonzero"></path>
                </g>
            </g>
        </g>
    </g>
</svg>