<?xml version="1.0" encoding="UTF-8"?>
<svg width="17px" height="18px" viewBox="0 0 17 18" version="1.1" xmlns="http://www.w3.org/2000/svg" xmlns:xlink="http://www.w3.org/1999/xlink">
    <!-- Generator: sketchtool 52.1 (67048) - http://www.bohemiancoding.com/sketch -->
    <title>38AE50D8-8FD1-4232-8454-71A61D0CA915</title>
    <desc>Created with sketchtool.</desc>
    <g id="Page-1" stroke="none" stroke-width="1" fill="none" fill-rule="evenodd">
        <g id="Menu" transform="translate(-285.000000, -18.000000)" fill="#000000" fill-rule="nonzero">
            <g id="Group" transform="translate(284.000000, 18.000000)">
                <path d="M-1,8 L20,8 C20.5522847,8 21,8.44771525 21,9 L21,9 C21,9.55228475 20.5522847,10 20,10 L-1,10 C-1.55228475,10 -2,9.55228475 -2,9 L-2,9 C-2,8.44771525 -1.55228475,8 -1,8 Z" id="Rectangle-Copy-3" transform="translate(9.500000, 9.000000) rotate(45.000000) translate(-9.500000, -9.000000) "></path>
                <path d="M-1,8 L20,8 C20.5522847,8 21,8.44771525 21,9 L21,9 C21,9.55228475 20.5522847,10 20,10 L-1,10 C-1.55228475,10 -2,9.55228475 -2,9 L-2,9 C-2,8.44771525 -1.55228475,8 -1,8 Z" id="Rectangle-Copy-5" transform="translate(9.500000, 9.000000) rotate(-45.000000) translate(-9.500000, -9.000000) "></path>
            </g>
        </g>
    </g>
</svg>