<?xml version="1.0" encoding="UTF-8"?>
<svg width="20px" height="20px" viewBox="0 0 20 20" version="1.1" xmlns="http://www.w3.org/2000/svg" xmlns:xlink="http://www.w3.org/1999/xlink">
    <!-- Generator: sketchtool 52.1 (67048) - http://www.bohemiancoding.com/sketch -->
    <title>40A041F5-560B-49B8-9A53-84E08B33D6AA</title>
    <desc>Created with sketchtool.</desc>
    <g id="Symbols" stroke="none" stroke-width="1" fill="none" fill-rule="evenodd">
        <g id="facebook" fill="#000000" fill-rule="nonzero">
            <g id="facebook-white">
                <g id="dribbble">
                    <path d="M9.98300469,0 C4.46953052,0 0,4.46953052 0,9.98300469 C0,15.4964789 4.46953052,19.9660094 9.98300469,19.9660094 C15.4964789,19.9660094 19.9660094,15.4964789 19.9660094,9.98300469 C19.9660094,4.46953052 15.4964319,0 9.98300469,0 Z M18.0562911,9.26511737 C16.9966197,9.22253521 14.9915023,9.2214554 12.7130047,9.61985915 C12.5071831,9.12638498 12.2969484,8.65314554 12.0856808,8.20159624 C12.2176526,8.14 12.3485446,8.07737089 12.4769484,8.01267606 C14.0419249,7.22399061 15.3415493,6.20370892 16.3544131,4.97211268 C17.330939,6.20873239 17.9189671,7.6900939 18.0562911,9.26511737 Z M15.0215023,3.63366197 C14.0761033,4.83793427 12.8159624,5.80478873 11.2504695,6.52741784 C11.0743662,6.19558685 10.9007981,5.87995305 10.7323474,5.58366197 C9.87065728,4.06821596 9.0484507,2.86211268 8.43338028,2.02539906 C8.93868545,1.92812207 9.45694836,1.87793427 9.98300469,1.87793427 C11.8358685,1.87793427 13.5934742,2.49596244 15.0215023,3.63366197 Z M4.25183099,4.25183099 C4.92802817,3.5756338 5.70276995,3.03389671 6.54356808,2.63943662 C7.13384977,3.40600939 8.10600939,4.75835681 9.12460094,6.55549296 C9.24103286,6.76093897 9.36018779,6.97671362 9.48079812,7.20032864 C8.69812207,7.44230047 7.85769953,7.6370892 6.95938967,7.78338028 C4.94408451,8.1115493 3.12784038,8.10159624 2.10779343,8.05492958 C2.45460094,6.6271831 3.18643192,5.317277 4.25183099,4.25183099 Z M1.87793427,9.98300469 C1.87793427,9.96380282 1.87849765,9.94464789 1.8786385,9.92549296 C2.22497653,9.94394366 2.66577465,9.95906103 3.17962441,9.95906103 C4.26525822,9.95906103 5.67713615,9.8914554 7.2128169,9.64478873 C8.32061033,9.46680751 9.36469484,9.2156338 10.3364789,8.89399061 C10.5082629,9.25793427 10.6795305,9.63723005 10.8483099,10.0307981 C9.60352113,10.3656338 8.46070423,10.803662 7.4357277,11.3403756 C5.77258216,12.2112676 4.41784038,13.3428638 3.39788732,14.7105164 C2.41089202,13.3418779 1.87793427,11.7035211 1.87793427,9.98300469 Z M4.69431925,16.125493 C6.12046948,14.0368075 8.41953052,12.5817371 11.5441784,11.7878404 C12.1708451,13.510939 12.7070423,15.4377465 13.0161972,17.5032394 C12.0649765,17.8867606 11.0395305,18.0880751 9.98300469,18.0880751 C8.02056338,18.0880751 6.16455399,17.3953052 4.69431925,16.125493 Z M15.7141315,15.7141315 C15.4149765,16.0132864 15.096338,16.2857277 14.7614554,16.5312207 C14.4407981,14.696385 13.9584977,12.9756338 13.4030516,11.4089202 C15.3716432,11.1001878 17.103662,11.1078873 18.0056338,11.1439906 C17.7598122,12.8684038 16.9677934,14.4605164 15.7141315,15.7141315 Z" id="Shape"></path>
                </g>
            </g>
        </g>
    </g>
</svg>