<?xml version="1.0" encoding="UTF-8"?>
<svg width="11px" height="17px" viewBox="0 0 11 17" version="1.1" xmlns="http://www.w3.org/2000/svg" xmlns:xlink="http://www.w3.org/1999/xlink">
    <!-- Generator: sketchtool 52.1 (67048) - http://www.bohemiancoding.com/sketch -->
    <title>79C7402A-2793-44ED-81D1-61540ADA4AE3</title>
    <desc>Created with sketchtool.</desc>
    <g id="Page-1" stroke="none" stroke-width="1" fill="none" fill-rule="evenodd">
        <g id="Yevdokimov-MVP-Website" transform="translate(-387.000000, -3068.000000)" fill="#FFFFFF">
            <path d="M389.860534,3084.5 C388.032281,3078.45607 391.895334,3076.24928 391.895334,3076.24928 C391.625049,3079.47437 393.451864,3081.98695 393.451864,3081.98695 C394.123741,3081.78357 395.406154,3080.83307 395.406154,3080.83307 C395.406154,3081.98695 394.729485,3084.49856 394.729485,3084.49856 C394.729485,3084.49856 397.098306,3082.661 397.843984,3079.60899 C398.588703,3076.55698 396.42547,3073.49295 396.42547,3073.49295 C396.55582,3075.65311 395.827395,3077.77769 394.400255,3079.40081 C394.47166,3079.31812 394.531564,3079.22629 394.57757,3079.12677 C394.833956,3078.61233 395.245613,3077.27527 395.004561,3074.17903 C394.665268,3069.83275 390.739916,3068 390.739916,3068 C391.078251,3070.64815 390.063726,3071.25827 387.687238,3076.28486 C385.310749,3081.31048 389.860534,3084.5 389.860534,3084.5 Z" id="Path-Copy-35"></path>
        </g>
    </g>
</svg>