<?xml version="1.0" encoding="UTF-8"?>
<svg width="20px" height="20px" viewBox="0 0 20 20" version="1.1" xmlns="http://www.w3.org/2000/svg" xmlns:xlink="http://www.w3.org/1999/xlink">
    <!-- Generator: sketchtool 52.1 (67048) - http://www.bohemiancoding.com/sketch -->
    <title>991F3E51-F12D-42A0-8550-6CD3A42BE206</title>
    <desc>Created with sketchtool.</desc>
    <g id="Symbols" stroke="none" stroke-width="1" fill="none" fill-rule="evenodd">
        <g id="linkedIn-Copy" fill="#54DA83">
            <g id="linkedin-logo-hover">
                <g id="instagram-logo">
                    <path d="M14.4806047,0 L5.51915865,0 C2.47589642,0 0,2.47601472 0,5.51927695 L0,14.480723 C0,17.5241036 2.47589642,20 5.51915865,20 L14.4806047,20 C17.5241036,20 20,17.5239853 20,14.480723 L20,5.51927695 C20.0001183,2.47601472 17.5241036,0 14.4806047,0 Z M18.2256214,14.480723 C18.2256214,16.545646 16.545646,18.2255031 14.480723,18.2255031 L5.51915865,18.2255031 C3.45435402,18.2256214 1.77449693,16.545646 1.77449693,14.480723 L1.77449693,5.51927695 C1.77449693,3.45447232 3.45435402,1.77449693 5.51915865,1.77449693 L14.4806047,1.77449693 C16.5455277,1.77449693 18.2255031,3.45447232 18.2255031,5.51927695 L18.2255031,14.480723 L18.2256214,14.480723 Z" id="Shape" fill-rule="nonzero"></path>
                    <path d="M10,5 C7.24295847,5 5,7.24300996 5,10.0001148 C5,12.7571048 7.24295847,15 10,15 C12.7570415,15 15,12.7571048 15,10.0001148 C15,7.24300996 12.7570415,5 10,5 Z M10,13.2782012 C8.19238804,13.2782012 6.72164451,11.8076535 6.72164451,10 C6.72164451,8.19223176 8.19227326,6.72156926 10,6.72156926 C11.8077267,6.72156926 13.2783555,8.19223176 13.2783555,10 C13.2783555,11.8076535 11.807612,13.2782012 10,13.2782012 Z" id="Shape" fill-rule="nonzero"></path>
                    <path d="M15,3.75 C14.6715909,3.75 14.3489773,3.88295455 14.1170455,4.11590909 C13.8839773,4.34772727 13.75,4.67045455 13.75,5 C13.75,5.32852273 13.8840909,5.65113636 14.1170455,5.88409091 C14.3488636,6.11590909 14.6715909,6.25 15,6.25 C15.3295455,6.25 15.6511364,6.11590909 15.8840909,5.88409091 C16.1170455,5.65113636 16.25,5.32840909 16.25,5 C16.25,4.67045455 16.1170455,4.34772727 15.8840909,4.11590909 C15.6522727,3.88295455 15.3295455,3.75 15,3.75 Z" id="Path"></path>
                </g>
            </g>
        </g>
    </g>
</svg>