<?xml version="1.0" encoding="UTF-8"?>
<svg width="205px" height="38px" viewBox="0 0 205 38" version="1.1" xmlns="http://www.w3.org/2000/svg" xmlns:xlink="http://www.w3.org/1999/xlink">
    <!-- Generator: sketchtool 52.1 (67048) - http://www.bohemiancoding.com/sketch -->
    <title>D95501C7-B889-40EB-8044-1F1F8653D5B0</title>
    <desc>Created with sketchtool.</desc>
    <defs>
        <circle id="path-1" cx="18.8196721" cy="18.8196721" r="18.8196721"></circle>
    </defs>
    <g id="Page-1" stroke="none" stroke-width="1" fill="none" fill-rule="evenodd">
        <g id="Yevdokimov-MVP-Website" transform="translate(-28.000000, -27.000000)">
            <g id="Logo" transform="translate(28.000000, 27.000000)">
                <g id="Group-7">
                    <g id="Group-7-Copy">
                        <mask id="mask-2" fill="white">
                            <use xlink:href="#path-1"></use>
                        </mask>
                        <use id="Oval" fill="#66DF90" fill-rule="nonzero" xlink:href="#path-1"></use>
                        <g id="Group-17" mask="url(#mask-2)" fill="#FFFFFF">
                            <g transform="translate(2.688525, -0.672131)" id="Fill-1">
                                <path d="M10.6585917,38.3114749 C9.18671805,38.3132417 3.47823088,33.9451252 3.47823088,33.9451252 C14.3944943,31.5388464 30.114971,8.71493594 29.9248155,8.77886351 C29.73466,8.84279108 12.7789688,23.9814187 12.0818913,23.9814187 C11.3848137,23.9814187 7.73968886,21.4530671 7.67614443,20.2998008 C7.61323704,19.1564931 19.321178,5.12985193 19.1308632,5.00199678 C18.940867,4.87414164 5.96872643,17.7934544 4.95472303,17.7934544 C3.94056037,17.7934544 -0.63591232,13.8440796 0.0745430208,13.6386441 C5.19998222,12.1572269 11.0498916,7.42738964 21.5412514,0.0156460724 C21.9148735,-0.248095323 25.9323463,2.9028273 26.0591167,3.41408726 C26.185887,3.92550785 11.6413803,21.8233009 11.6413803,21.8233009 C11.8313765,22.2067057 30.6360671,3.51849159 31.4540224,3.68088048 C31.8478705,3.75926404 35.6229508,6.51875074 35.6229508,7.34964857 C35.6229508,8.18070702 15.6719124,38.3061743 10.6585917,38.3114749"></path>
                            </g>
                        </g>
                    </g>
                    <path d="M62.4462295,11.8885246 L57.0759016,21.7379344 L57.0759016,27.8852459 L53.4195082,27.8852459 L53.4195082,21.7379344 L48.0491803,11.8885246 L52.2083279,11.8885246 L55.2477049,18.0586885 L58.287082,11.8885246 L62.4462295,11.8885246 Z M68.4259565,24.3659672 L74.824645,24.3659672 L74.824645,27.8852459 L64.7695631,27.8852459 L64.7695631,11.8885246 L74.7103827,11.8885246 L74.7103827,15.4078033 L68.4259565,15.4078033 L68.4259565,18.0586885 L74.1390713,18.0586885 L74.1390713,21.5322623 L68.4259565,21.5322623 L68.4259565,24.3659672 Z M81.6727655,27.8852459 L76.4624048,11.8885246 L80.4615851,11.8885246 L84.0037163,23.657541 L87.5458474,11.8885246 L91.5450278,11.8885246 L86.3346671,27.8852459 L81.6727655,27.8852459 Z M100.26705,11.8885246 C104.677574,11.8885246 108.036886,15.3620984 108.036886,19.8868852 C108.036886,24.4116721 104.677574,27.8852459 100.26705,27.8852459 L93.8683613,27.8852459 L93.8683613,11.8885246 L100.26705,11.8885246 Z M100.26705,24.3659672 C102.78082,24.3659672 104.517607,22.6291803 104.517607,19.8868852 C104.517607,17.1445902 102.78082,15.4078033 100.26705,15.4078033 L97.5247548,15.4078033 L97.5247548,24.3659672 L100.26705,24.3659672 Z M118.678515,28.2051803 C114.08517,28.2051803 110.360219,24.5944918 110.360219,19.8868852 C110.360219,15.1792787 114.08517,11.5685902 118.678515,11.5685902 C123.271859,11.5685902 126.99681,15.1792787 126.99681,19.8868852 C126.99681,24.5944918 123.271859,28.2051803 118.678515,28.2051803 Z M118.678515,24.6401967 C121.283695,24.6401967 123.340416,22.7434426 123.340416,19.8868852 C123.340416,17.0303279 121.283695,15.1335738 118.678515,15.1335738 C116.073334,15.1335738 114.016613,17.0303279 114.016613,19.8868852 C114.016613,22.7434426 116.073334,24.6401967 118.678515,24.6401967 Z M142.940209,27.8852459 L138.781061,27.8852459 L133.66211,20.4810492 L133.66211,27.8852459 L130.005717,27.8852459 L130.005717,11.8885246 L133.66211,11.8885246 L133.66211,18.8356721 L138.552537,11.8885246 L142.711684,11.8885246 L137.318504,19.6812131 L142.940209,27.8852459 Z M145.263542,11.8885246 L148.919936,11.8885246 L148.919936,27.8852459 L145.263542,27.8852459 L145.263542,11.8885246 Z M168.611138,11.8885246 L168.611138,27.8852459 L164.954745,27.8852459 L164.954745,18.5842951 L160.81845,25.3714754 L160.407105,25.3714754 L156.27081,18.5842951 L156.27081,27.8852459 L152.614417,27.8852459 L152.614417,11.8885246 L156.27081,11.8885246 L160.612778,18.9956393 L164.954745,11.8885246 L168.611138,11.8885246 Z M179.938341,28.2051803 C175.344996,28.2051803 171.620046,24.5944918 171.620046,19.8868852 C171.620046,15.1792787 175.344996,11.5685902 179.938341,11.5685902 C184.531685,11.5685902 188.256636,15.1792787 188.256636,19.8868852 C188.256636,24.5944918 184.531685,28.2051803 179.938341,28.2051803 Z M179.938341,24.6401967 C182.543521,24.6401967 184.600242,22.7434426 184.600242,19.8868852 C184.600242,17.0303279 182.543521,15.1335738 179.938341,15.1335738 C177.33316,15.1335738 175.276439,17.0303279 175.276439,19.8868852 C175.276439,22.7434426 177.33316,24.6401967 179.938341,24.6401967 Z M194.419182,27.8852459 L189.208822,11.8885246 L193.208002,11.8885246 L196.750133,23.657541 L200.292264,11.8885246 L204.291445,11.8885246 L199.081084,27.8852459 L194.419182,27.8852459 Z" id="YEVDOKIMOV-Copy-2" fill="#000000"></path>
                </g>
            </g>
        </g>
    </g>
</svg>