<?xml version="1.0" encoding="UTF-8"?>
<svg width="16px" height="13px" viewBox="0 0 16 13" version="1.1" xmlns="http://www.w3.org/2000/svg" xmlns:xlink="http://www.w3.org/1999/xlink">
    <!-- Generator: sketchtool 52.1 (67048) - http://www.bohemiancoding.com/sketch -->
    <title>144A3E6F-959F-457A-8E52-60018524E6B4</title>
    <desc>Created with sketchtool.</desc>
    <g id="Symbols" stroke="none" stroke-width="1" fill="none" fill-rule="evenodd">
        <g id="black-back-closed-envelope-shape-copy" fill="#54DA83" fill-rule="nonzero">
            <g id="black-back-closed-envelope-shape">
                <path d="M15.0647345,13 C15.4240234,13 15.7353433,12.8785192 16,12.638648 L11.4715552,8.00124809 C11.3629067,8.08091788 11.2575953,8.15838866 11.1581169,8.23205572 C10.8192286,8.48773602 10.544183,8.68725224 10.3329799,8.83021806 C10.1218059,8.97351076 9.84084032,9.11956709 9.49011213,9.26868422 C9.13915178,9.41797964 8.81219046,9.49238962 8.50887993,9.49238962 L8.5,9.49238962 L8.49112007,9.49238962 C8.18778052,9.49238962 7.8608192,9.41800935 7.50988787,9.26868422 C7.15895654,9.11956709 6.87799093,8.97351076 6.66702006,8.83021806 C6.45584605,8.68725224 6.18094549,8.48776574 5.84188309,8.23205572 C5.74739599,8.16112257 5.64260702,8.0832952 5.52931537,8 L1,12.638648 C1.2646277,12.8785192 1.57615072,13 1.9354106,13 L15.0647345,13 Z" id="Shape"></path>
                <path d="M0.902916221,4.78849321 C0.563322936,4.5589681 0.262176369,4.29609772 0,4 L0,11 L4,6.94487944 C3.19977316,6.37851111 2.1687206,5.66054122 0.902916221,4.78849321 Z" id="Shape"></path>
                <path d="M15.1057708,4.78847328 C13.8877558,5.62388231 12.8525377,6.3430723 12,6.94642654 L16,11 L16,4 C15.7435375,4.29013482 15.4454999,4.55282166 15.1057708,4.78847328 Z" id="Shape"></path>
                <path d="M14.5713004,0 L1.42849621,0 C0.969983061,0 0.617470574,0.154829339 0.370523013,0.464168482 C0.123372108,0.773652869 0,1.16069717 0,1.62486565 C0,1.99979666 0.163721498,2.40604212 0.491019247,2.84371823 C0.818316996,3.28122004 1.16658829,3.62486565 1.53565885,3.87482934 C1.73798678,4.01777778 2.34813695,4.44194626 3.36610934,5.14718954 C3.91563375,5.52798838 4.39352275,5.85989833 4.8041918,6.14631808 C5.15423511,6.3902106 5.45611477,6.60142338 5.70535722,6.77670298 C5.73397072,6.7967756 5.77896799,6.82896151 5.83869322,6.87166304 C5.90303728,6.91787945 5.98446229,6.97652869 6.08491455,7.04906318 C6.27835342,7.18896151 6.43905379,7.30204793 6.56704473,7.38843863 C6.69486137,7.47485839 6.84972285,7.57138707 7.03139678,7.67857662 C7.21292546,7.78562092 7.38414166,7.86611474 7.54484204,7.91965142 C7.70557146,7.97315904 7.85436165,8 7.99124166,8 L8.00013072,8 L8.00901979,8 C8.14587074,8 8.29468998,7.97315904 8.45544846,7.91965142 C8.61611978,7.86611474 8.78719074,7.78579521 8.96886467,7.67857662 C9.1503643,7.57138707 9.30502243,7.47465505 9.43324576,7.38843863 C9.5612367,7.30204793 9.72193708,7.18899056 9.91540499,7.04906318 C10.0156539,6.97652869 10.0970789,6.9178504 10.161423,6.87180828 C10.2211773,6.82893246 10.2661455,6.79694989 10.2949333,6.77670298 C10.4890984,6.64159768 10.7916752,6.43125635 11.1984807,6.14878722 C11.9387134,5.63448076 13.0288731,4.87750182 14.4735498,3.87482934 C14.9080392,3.57135802 15.2710385,3.20514161 15.5627799,2.77670298 C15.8539985,2.34826434 16,1.89885258 16,1.42861293 C16,1.03572985 15.8584431,0.699549746 15.5759392,0.419549746 C15.2931159,0.13989833 14.9582072,0 14.5713004,0 Z" id="Shape"></path>
            </g>
        </g>
    </g>
</svg>