<?xml version="1.0" encoding="UTF-8"?>
<svg width="22px" height="31px" viewBox="0 0 22 31" version="1.1" xmlns="http://www.w3.org/2000/svg" xmlns:xlink="http://www.w3.org/1999/xlink">
    <!-- Generator: sketchtool 52.1 (67048) - http://www.bohemiancoding.com/sketch -->
    <title>003212EB-0373-4515-93C8-37C47131F92E</title>
    <desc>Created with sketchtool.</desc>
    <g id="Page-1" stroke="none" stroke-width="1" fill="none" fill-rule="evenodd">
        <g id="Yevdokimov-MVP-Website" transform="">
            <g id="mouse-(1)" transform="" fill="#000000">
                <g id="Shape">
                    <path d="M11,0 C4.93448306,0 0,4.97332031 0,11.0860723 L0,19.9142305 C0,26.0269824 4.93448306,31 11,31 C17.0651508,31 22,26.0420586 22,19.9481367 L22,11.0860723 C22,4.97332031 17.0651508,0 11,0 Z M19.9309939,19.9481367 C19.9309939,24.9101953 15.9247812,28.9470371 11,28.9470371 C6.07552392,28.9470371 2.06900607,24.8948164 2.06900607,19.9139277 L2.06900607,11.0860723 C2.06900607,6.10518359 6.07552392,2.05296289 11,2.05296289 C15.9248422,2.05296289 19.9309939,6.10518359 19.9309939,11.0860723 L19.9309939,19.9481367 Z" fill-rule="nonzero"></path>
                    <path d="M10.56,8.85714286 C10.0739601,8.85714286 9.68,9.28971293 9.68,9.82338699 L9.68,13.2051844 C9.68,13.7388585 10.0739601,14.1714286 10.56,14.1714286 C11.0460399,14.1714286 11.44,13.7388585 11.44,13.2051844 L11.44,9.82338699 C11.44,9.28971293 11.0460399,8.85714286 10.56,8.85714286 Z" fill-rule="nonzero"></path>
                </g>
            </g>
        </g>
    </g>
</svg>