<?xml version="1.0" encoding="UTF-8"?>
<svg width="145px" height="115px" viewBox="0 0 145 115" version="1.1" xmlns="http://www.w3.org/2000/svg" xmlns:xlink="http://www.w3.org/1999/xlink">
    <!-- Generator: sketchtool 52.1 (67048) - http://www.bohemiancoding.com/sketch -->
    <title>68100F7D-E8F5-4E18-A66B-5B3822770FE2</title>
    <desc>Created with sketchtool.</desc>
    <g id="Page-1" stroke="none" stroke-width="1" fill="none" fill-rule="evenodd">
        <g id="Yevdokimov-MVP-Website" transform="translate(-486.000000, -3072.000000)">
            <g id="rocket-launch" transform="translate(486.000000, 3072.000000)">
                <g id="Group" transform="translate(34.014949, 32.748344)" fill="#54DA83">
                    <polygon id="Path" points="55.6725339 29.7803153 50.1065488 50.2361785 74.2258175 57.6746742 74.2258175 44.6573067"></polygon>
                    <polygon id="Path" points="0.0126830247 44.6573067 0.0126830247 57.6746742 24.1319517 50.2361785 18.5659666 29.7803153"></polygon>
                    <path d="M51.9618771,14.9033239 C51.9618771,23.1190843 45.3169388,29.7803153 37.1192503,29.7803153 C28.9224675,29.7803153 22.2766234,23.1190843 22.2766234,14.9033239 C22.2766234,6.68665556 28.9224675,0.0263325072 37.1192503,0.0263325072 C45.3169388,0.0263325072 51.9618771,6.68665556 51.9618771,14.9033239 Z" id="Path"></path>
                </g>
                <polygon id="Path" fill="#000000" points="69.3187879 105.860927 73.1561616 105.860927 73.1561616 115 69.3187879 115"></polygon>
                <polygon id="Path" fill="#000000" points="76.2260606 99.7682119 80.0634343 99.7682119 80.0634343 106.622517 76.2260606 106.622517"></polygon>
                <polygon id="Path-Copy" fill="#000000" points="136.862424 11.1040898 140.699798 11.1040898 140.699798 22.3477074 136.862424 22.3477074"></polygon>
                <polygon id="Path-Copy-2" fill="#000000" transform="translate(138.781111, 16.725899) rotate(90.000000) translate(-138.781111, -16.725899) " points="136.864444 11.0981643 140.697778 11.0981643 140.697778 22.3536329 136.864444 22.3536329"></polygon>
                <polygon id="Path-Copy-4" fill="#000000" points="4.16545455 63.7758455 8.00282828 63.7758455 8.00282828 75.0194631 4.16545455 75.0194631"></polygon>
                <polygon id="Path-Copy-3" fill="#000000" transform="translate(6.084141, 69.397654) rotate(90.000000) translate(-6.084141, -69.397654) " points="4.16747475 63.76992 8.00080808 63.76992 8.00080808 75.0253886 4.16747475 75.0253886"></polygon>
                <polygon id="Path" fill="#000000" points="62.4115152 99.7682119 66.2488889 99.7682119 66.2488889 106.622517 62.4115152 106.622517"></polygon>
                <path d="M71.2374747,38.8410596 C66.3711301,38.8410596 62.4115152,42.9402552 62.4115152,47.9801325 C62.4115152,53.0191175 66.3711301,57.1192053 71.2374747,57.1192053 C76.104681,57.1192053 80.0634343,53.0191175 80.0634343,47.9801325 C80.0634343,42.9402552 76.104681,38.8410596 71.2374747,38.8410596 Z M71.2374747,53.4635762 C68.3181851,53.4635762 65.941899,51.002988 65.941899,47.9801325 C65.941899,44.9563845 68.3181851,42.4966887 71.2374747,42.4966887 C74.157626,42.4966887 76.5330505,44.9563845 76.5330505,47.9801325 C76.5330505,51.002988 74.157626,53.4635762 71.2374747,53.4635762 Z" id="Shape" fill="#000000" fill-rule="nonzero"></path>
                <path d="M116.184262,35.5045047 C116.14709,35.5045047 116.111731,35.5099396 116.075465,35.5099396 C115.150695,27.1729888 108.062603,20.6639351 99.4731183,20.6639351 C96.4911872,20.6639351 93.5962935,21.4628477 91.0586149,22.9438248 C85.3948501,7.70198756 73.179722,0.849636986 72.5088102,0.484601177 L71.6212122,0 L70.7318005,0.484601177 C70.2567225,0.741847378 63.9900436,4.25905518 58.360731,11.6965499 C56.2491721,10.2970944 53.7722383,9.53350794 51.196481,9.53350794 C49.0377768,9.53350794 46.9597635,10.080609 45.0839304,11.08242 C42.7729113,8.97463156 39.7102895,7.67843674 36.3421311,7.67843674 C29.7563158,7.67843674 24.311957,12.6014407 23.4715039,18.9574146 C18.1477281,19.7916531 14.0606061,24.390382 14.0606061,29.9392911 C14.0606061,36.0778741 19.0579925,41.0697183 25.2013686,41.0697183 L49.3714194,41.0697183 C49.5609066,55.2273175 51.8320339,66.9863673 53.8429559,74.670239 L47.0322945,76.3713246 L47.9307724,79.9682425 L54.8339107,78.243606 C55.9354754,81.9682412 56.7949678,84.1684208 56.8974181,84.4220438 L57.3670562,85.5914271 L60.7651338,85.5914271 L62.6219275,96.7218543 L80.61959,96.7218543 L82.4763837,85.5914271 L85.8744613,85.5914271 L86.3422863,84.4238555 C86.4447363,84.1702325 87.3042287,81.9700529 88.4048869,78.2454177 L95.3089318,79.9700542 L96.2074097,76.3731363 L89.3967482,74.6720507 C90.3323982,71.0959659 91.3242596,66.6512227 92.1429534,61.4773132 L116.184262,61.4773132 C123.350325,61.4773132 129.181818,55.652136 129.181818,48.4918148 C129.181818,41.3305877 123.350325,35.5045047 116.184262,35.5045047 Z M71.6121457,4.27988833 C74.1208119,5.90126415 81.4011115,11.2527098 86.0675751,20.8840437 C82.0366646,24.3269761 76.9649339,26.2291487 71.6212122,26.2291487 C66.2557309,26.2291487 61.1676809,24.3124834 57.1295173,20.8450944 C61.7733148,11.1838692 69.0499878,5.90488734 71.6121457,4.27988833 Z M17.7741937,29.9392911 C17.7741937,25.8469027 21.10518,22.5190063 25.2013686,22.5190063 C29.2975571,22.5190063 32.6285436,25.8469027 32.6285436,29.9392911 L36.3421311,29.9392911 C36.3421311,24.4927369 32.4064172,19.9565081 27.2277034,19.0017985 C28.0146648,14.6811494 31.7935302,11.3885791 36.3421311,11.3885791 C41.4619133,11.3885791 45.6260998,15.5489026 45.6260998,20.6639351 L49.3396873,20.6639351 C49.3396873,18.2427412 48.662429,15.9836849 47.503746,14.042563 C50.3106959,12.8614043 53.6643484,13.1114042 56.2473587,14.7499899 C52.6561674,20.414841 49.7277279,27.8813215 49.3868322,37.3595759 L25.2013686,37.3595759 C21.10518,37.3595759 17.7741937,34.0316798 17.7741937,29.9392911 Z M77.4762775,93.0117119 L65.7652401,93.0117119 L64.5285864,85.5914271 L78.7147445,85.5914271 L77.4762775,93.0117119 Z M83.3249965,81.8812847 L59.9183342,81.8812847 C58.3525713,77.4528458 53.0532748,60.8649948 53.0532748,39.2146471 C53.0532748,33.5470786 54.0650821,28.6421906 55.6099925,24.4220847 C60.166753,27.9927345 65.757987,29.9392911 71.6212122,29.9392911 C77.4681178,29.9392911 83.0448456,28.0008867 87.5952593,24.448353 C89.1610225,28.6738935 90.1891496,33.5715351 90.1891496,39.2146471 C90.1891496,60.8649948 84.8898528,77.4528458 83.3249965,81.8812847 Z M116.184262,57.7653591 L92.6796828,57.7653591 C93.4095262,52.2073919 93.9027371,45.9764181 93.9027371,39.2146471 C93.9027371,34.5452662 93.2699039,30.3505228 92.2336171,26.5887499 C94.3633087,25.1584974 96.8756015,24.3740775 99.4731183,24.3740775 C106.202182,24.3740775 111.754431,29.5126612 112.406303,36.0679103 C107.077087,37.6892858 103.186706,42.642181 103.186706,48.4900031 L106.900293,48.4900031 C106.900293,43.3749706 111.065386,39.2146471 116.184262,39.2146471 C121.304044,39.2146471 125.468231,43.3749706 125.468231,48.4900031 C125.468231,53.6041302 121.304044,57.7653591 116.184262,57.7653591 Z" id="Shape" fill="#000000" fill-rule="nonzero"></path>
                <polygon id="Path" fill="#000000" points="62.4115152 111.192053 66.2488889 111.192053 66.2488889 115 62.4115152 115"></polygon>
                <polygon id="Path" fill="#000000" points="76.2260606 111.192053 80.0634343 111.192053 80.0634343 115 76.2260606 115"></polygon>
            </g>
        </g>
    </g>
</svg>