<?xml version="1.0" encoding="UTF-8"?>
<svg width="111px" height="111px" viewBox="0 0 111 111" version="1.1" xmlns="http://www.w3.org/2000/svg" xmlns:xlink="http://www.w3.org/1999/xlink">
    <!-- Generator: sketchtool 52.1 (67048) - http://www.bohemiancoding.com/sketch -->
    <title>942C9971-D28D-4E5B-970A-1239DD0593D3</title>
    <desc>Created with sketchtool.</desc>
    <g id="Page-1" stroke="none" stroke-width="1" fill="none" fill-rule="evenodd">
        <g id="Yevdokimov-MVP-Website" transform="translate(-905.000000, -3074.000000)">
            <g id="laptop" transform="translate(905.000000, 3074.000000)">
                <path d="M102.048227,100.087112 L102.048227,43.782492 C102.048227,40.730484 99.6046121,38.25 96.6022276,38.25 L78.7739225,38.25 L78.7739225,41.8875 L96.6018457,41.8875 C97.6311583,41.8875 98.4672122,42.738772 98.4672122,43.782492 L98.4672122,100.0875 L59.0806328,100.0875 L59.0806328,101.906444 L51.9193672,101.906444 L51.9193672,100.0875 L12.5324059,100.0875 L12.5324059,43.782492 C12.5324059,42.738384 13.3684598,41.8875 14.3977724,41.8875 L32.2256956,41.8875 L32.2256956,38.25 L14.3977724,38.25 C11.3953879,38.25 8.95177307,40.730872 8.95177307,43.782492 L8.95177307,100.0875 L0,100.0875 L0,106.10926 C0,108.806636 2.15907386,111 4.81428021,111 L106.18572,111 C108.840926,111 111,108.806636 111,106.10926 L111,100.0875 L102.048227,100.087112 Z M107.418985,106.10926 C107.418985,106.798736 106.865945,107.3625 106.185338,107.3625 L4.81428021,107.3625 C4.13405545,107.3625 3.58063284,106.798736 3.58063284,106.10926 L3.58063284,103.725 L48.3387343,103.725 L48.3387343,105.543944 L62.6612657,105.543944 L62.6612657,103.725 L107.418985,103.725 L107.418985,106.10926 Z" id="Shape" fill="#333333" fill-rule="nonzero"></path>
                <polygon id="Path" fill="#333333" points="16.1721854 96.75 94.8278146 96.75 94.8278146 45.75 75.1637166 45.75 75.1637166 49.3924963 91.2525587 49.3924963 91.2525587 93.1071151 19.7474413 93.1071151 19.7474413 49.3924963 35.835902 49.3924963 35.835902 45.75 16.1721854 45.75"></polygon>
                <rect id="Rectangle" fill="#333333" x="53.6622517" y="0" width="3.67549669" height="5.25"></rect>
                <polygon id="Rectangle" fill="#333333" transform="translate(40.062914, 7.125000) rotate(-30.005690) translate(-40.062914, -7.125000) " points="38.2407227 4.52942115 41.9325636 4.49691028 41.8851051 9.72057885 38.1932642 9.75308972"></polygon>
                <polygon id="Rectangle" fill="#333333" transform="translate(28.301325, 19.125000) rotate(-59.999272) translate(-28.301325, -19.125000) " points="26.4603836 16.5556269 30.1895941 16.522983 30.1422654 21.6943731 26.4130549 21.727017"></polygon>
                <rect id="Rectangle" fill="#333333" x="21.3178808" y="33" width="5.14569536" height="3.75"></rect>
                <rect id="Rectangle" fill="#333333" x="83.8013245" y="33" width="5.14569536" height="3.75"></rect>
                <path d="M67.629132,67.5 L40.8507157,67.5 L40.8507157,65.6715189 C40.8507157,60.2434108 38.9708604,54.9631258 35.4149024,50.2955846 C31.2625398,44.8510951 29.4683749,38.0387551 30.3645052,31.1133051 C31.8410447,19.6884188 41.0365685,10.4574757 52.2300097,9.16295168 C59.3423065,8.34192937 66.4759307,10.6493726 71.778067,15.4978897 C77.0836309,20.3503071 80.1258278,27.3104701 80.1258278,34.5908514 C80.1258278,40.4359062 78.2459726,45.9389009 74.6900146,50.504253 C71.2890609,54.8757581 69.4145375,60.2235191 69.4145375,65.558409 L69.4145375,67.38689 L67.629132,67.5 Z" id="Path" fill="#54DA83"></path>
                <path d="M46.1112665,47.8516176 L46.1112665,63.7873836 L40.6980174,63.7873836 C37.7136669,63.7873836 35.2847682,66.2352495 35.2847682,69.2437694 C35.2847682,71.1806447 36.2986698,72.8757987 37.8125935,73.8434603 C37.3649217,74.6380759 37.088928,75.5421062 37.088928,76.5186918 C37.088928,78.4555671 38.1028296,80.1507211 39.6167533,81.1183827 C39.1690815,81.9129983 38.8930878,82.8170286 38.8930878,83.7936142 C38.8930878,86.8017461 41.3216015,89.25 44.3063369,89.25 L65.9585637,89.25 C68.9429142,89.25 71.3718129,86.8021341 71.3718129,83.7936142 C71.3718129,82.8170286 71.0958192,81.9129983 70.6481474,81.1183827 C72.1620711,80.1507211 73.1759727,78.4555671 73.1759727,76.5186918 C73.1759727,75.5421062 72.899979,74.6380759 72.4523071,73.8434603 C73.9662308,72.8757987 74.9801325,71.1806447 74.9801325,69.2437694 C74.9801325,66.2356375 72.5516187,63.7873836 69.5668833,63.7873836 L64.1547889,63.7873836 L64.1547889,47.8516176 C66.3288649,46.3822773 67.7634934,43.8831959 67.7634934,41.0531541 C67.7634934,36.5407622 64.1205303,32.8687694 59.6438121,32.8687694 L50.6218584,32.8687694 C48.1356054,32.8687694 46.1108816,30.8298511 46.1108816,28.3218459 C46.1108816,25.8138407 48.1352205,23.7749224 50.6218584,23.7749224 L59.6438121,23.7749224 C62.1300651,23.7749224 64.1547889,25.8138407 64.1547889,28.3218459 L64.1547889,29.2313082 L67.7634934,29.2313082 L67.7634934,28.3218459 C67.7634934,23.809454 64.1205303,20.1374612 59.6438121,20.1374612 L56.93738,20.1374612 L56.93738,16.5 L53.3286755,16.5 L53.3286755,20.1374612 L50.6222434,20.1374612 C46.1455252,20.1374612 42.5025621,23.809454 42.5025621,28.3218459 C42.5025621,32.8342378 46.1455252,36.5062306 50.6222434,36.5062306 L59.644197,36.5062306 C62.13045,36.5062306 64.1551738,38.5451489 64.1551738,41.0531541 C64.1551738,43.5611593 62.130835,45.6000776 59.644197,45.6000776 L50.6222434,45.6000776 C48.1359903,45.6000776 46.1112665,43.5611593 46.1112665,41.0531541 L46.1112665,40.1436918 L42.5025621,40.1436918 L42.5025621,41.0531541 C42.5025621,43.8847479 43.9371905,46.3818893 46.1112665,47.8516176 Z M69.5680381,76.5183038 C69.5680381,77.5220491 68.7577636,78.3372284 67.7634934,78.3372284 L65.9589487,78.3372284 L44.3067219,78.3372284 L42.5025621,78.3372284 C41.5082918,78.3372284 40.6980174,77.5224371 40.6980174,76.5183038 C40.6980174,75.5145585 41.5082918,74.6993792 42.5025621,74.6993792 L67.7634934,74.6993792 C68.7577636,74.6993792 69.5680381,75.5145585 69.5680381,76.5183038 Z M65.9593336,85.6117628 L44.3071068,85.6117628 C43.3128365,85.6117628 42.5025621,84.7969715 42.5025621,83.7928382 C42.5025621,82.7890929 43.3128365,81.9739136 44.3071068,81.9739136 L65.9593336,81.9739136 C66.9536039,81.9739136 67.7638783,82.7887049 67.7638783,83.7928382 C67.7634934,84.7969715 66.9536039,85.6117628 65.9593336,85.6117628 Z M71.3721978,69.2433814 C71.3721978,70.2471267 70.5619234,71.062306 69.5676531,71.062306 L67.7631084,71.062306 L42.5025621,71.062306 L40.6980174,71.062306 C39.7037471,71.062306 38.8934727,70.2475147 38.8934727,69.2433814 C38.8934727,68.2396361 39.7037471,67.4244568 40.6980174,67.4244568 L69.5676531,67.4244568 C70.5623083,67.4244568 71.3721978,68.2396361 71.3721978,69.2433814 Z M53.3286755,49.2371508 L53.3286755,52.874612 L56.93738,52.874612 L56.93738,49.2371508 L59.6438121,49.2371508 C59.9525247,49.2371508 60.2466101,49.1789514 60.5460844,49.1444198 L60.5460844,63.7869956 L49.719971,63.7869956 L49.719971,49.1444198 C50.0194454,49.1789514 50.3135307,49.2371508 50.6222434,49.2371508 L53.3286755,49.2371508 Z" id="Shape" fill="#333333" fill-rule="nonzero"></path>
                <polygon id="Rectangle" fill="#333333" transform="translate(82.698675, 19.125000) rotate(-29.992901) translate(-82.698675, -19.125000) " points="80.1293151 17.2840361 85.3006838 17.2367295 85.2680359 20.9659639 80.0966672 21.0132705"></polygon>
                <polygon id="Rectangle" fill="#333333" transform="translate(70.937086, 7.125000) rotate(-60.007099) translate(-70.937086, -7.125000) " points="68.3414926 5.3028101 73.5651817 5.25536335 73.5326795 8.9471899 68.3089904 8.99463665"></polygon>
            </g>
        </g>
    </g>
</svg>