<?xml version="1.0" encoding="UTF-8"?>
<svg width="111px" height="104px" viewBox="0 0 111 104" version="1.1" xmlns="http://www.w3.org/2000/svg" xmlns:xlink="http://www.w3.org/1999/xlink">
    <!-- Generator: sketchtool 52.1 (67048) - http://www.bohemiancoding.com/sketch -->
    <title>CBDFFEE9-3907-4A52-9B7D-DDF95E281A94</title>
    <desc>Created with sketchtool.</desc>
    <g id="Page-1" stroke="none" stroke-width="1" fill="none" fill-rule="evenodd">
        <g id="Yevdokimov-MVP-Website" transform="translate(-1309.000000, -3078.000000)">
            <g id="portfolio" transform="translate(1309.000000, 3078.000000)">
                <ellipse id="Oval" fill="#54DA83" cx="55.1172414" cy="62.922778" rx="32.1517241" ry="32.4147644"></ellipse>
                <path d="M105.62886,21.4607306 L91.302891,21.4607306 C91.2868498,19.1410641 89.7953968,17.1827009 87.7256956,16.4352952 L87.7256956,12.5796126 C87.7256956,5.64426754 82.0753615,0 75.1325621,0 L35.9029578,0 C28.9582487,0 23.2739225,5.64426754 23.2739225,12.5796126 L23.2739225,16.4227049 C21.4834151,17.1613355 19.7131502,19.1284738 19.6967271,21.4607306 L5.37114023,21.4607306 C2.40962268,21.4607306 0,23.8681477 0,26.826104 L0,98.3618728 C0,101.319829 2.40962268,103.727246 5.37114023,103.727246 L105.62886,103.727246 C108.589995,103.727246 111,101.320211 111,98.3618728 L111,26.826104 C110.999618,23.8681477 108.589995,21.4607306 105.62886,21.4607306 Z M37.5930165,21.4607306 C37.5769752,19.1410641 36.0855223,17.1827009 34.015821,16.4352952 L34.015821,13.9138024 C34.015821,12.1595546 35.4461645,10.7303653 37.2026797,10.7303653 L73.7969383,10.7303653 C75.5530716,10.7303653 76.983797,12.1591731 76.983797,13.9138024 L76.983797,16.4337691 C74.9140958,17.1811748 73.4230248,19.1414456 73.4066016,21.4592045 L37.5930165,21.4592045 L37.5930165,21.4607306 Z M78.8098243,19.6725272 L85.8996683,19.6725272 C86.8949887,19.6725272 87.7062169,20.4718202 87.7256956,21.4611122 L76.983797,21.4611122 C77.0032757,20.4718202 77.8145039,19.6725272 78.8098243,19.6725272 Z M26.8549373,12.5796126 C26.8549373,7.61483951 30.9332303,3.57678844 35.9033397,3.57678844 L75.1329441,3.57678844 C80.1030534,3.57678844 84.1454447,7.61483951 84.1454447,12.5796126 L84.1454447,16.0957387 L80.5648118,16.0957387 L80.5648118,13.9138024 C80.5648118,10.1866935 77.5284352,7.15357688 73.7973203,7.15357688 L37.2026797,7.15357688 C33.4715648,7.15357688 30.4351882,10.1866935 30.4351882,13.9138024 L30.4351882,16.0957387 L26.8545553,16.0957387 L26.8545553,12.5796126 L26.8549373,12.5796126 Z M25.1003317,19.6725272 L32.1901757,19.6725272 C33.1854961,19.6725272 33.9967243,20.4718202 34.016203,21.4611122 L23.2743044,21.4611122 C23.2937831,20.4718202 24.1050113,19.6725272 25.1003317,19.6725272 Z M5.37114023,25.0375191 L19.6936716,25.0375191 L37.5968358,25.0375191 L73.4031642,25.0375191 L91.3063284,25.0375191 L105.62886,25.0375191 C106.615396,25.0375191 107.419367,25.8406273 107.419367,26.826104 L107.419367,48.5104078 L87.4930977,51.1642894 C82.7792661,38.0429126 70.2380757,28.6143075 55.5,28.6143075 C40.7619243,28.6143075 28.2207339,38.0425311 23.5069023,51.1642894 L3.58063284,48.5104078 L3.58063284,26.826104 C3.58063284,25.8406273 4.38460427,25.0375191 5.37114023,25.0375191 Z M74.4362961,60.8054035 C74.4183452,60.2529566 74.3862628,59.7092847 74.3503609,59.1656129 C75.991914,58.3430469 77.1323694,56.6616702 77.1323694,54.7052146 C77.1323694,52.1444249 75.1917619,50.0517652 72.7065163,49.756847 C72.3627755,48.5783191 71.983133,47.4570198 71.5641512,46.3944751 C73.7984661,45.1926742 75.8929931,43.7173205 77.8393296,42.0164861 C82.4656982,47.0258975 85.4195771,53.5732326 85.8439059,60.8054035 L74.4362961,60.8054035 Z M57.2901255,33.5558077 C59.8574869,35.342485 63.8697054,38.8242739 66.8755273,44.658159 C63.8464074,45.8797991 60.6129527,46.5772252 57.2901255,46.7702764 L57.2901255,33.5558077 Z M47.2124105,38.6007008 C47.2124105,39.3893111 46.5696152,40.0314162 45.7801573,40.0314162 C44.9906994,40.0314162 44.3479042,39.3893111 44.3479042,38.6007008 C44.3479042,37.8120905 44.9906994,37.1699855 45.7801573,37.1699855 C46.5696152,37.1699855 47.2124105,37.8120905 47.2124105,38.6007008 Z M44.7687956,43.5063377 C45.0945855,43.5723414 45.4329792,43.6082046 45.7801573,43.6082046 C48.5445968,43.6082046 50.7930433,41.3617907 50.7930433,38.6007008 C50.7930433,37.8082753 50.5906182,37.0681185 50.2613909,36.4008329 C51.5324678,35.1830079 52.7229567,34.2475108 53.7094926,33.5607675 L53.7094926,46.7698949 C50.3866653,46.5768437 47.1551203,45.8794176 44.1260004,44.6596851 C44.3284255,44.2682413 44.552239,43.8890064 44.7687956,43.5063377 Z M53.7094926,50.3470648 L53.7094926,60.8054035 L40.1550309,60.8054035 C40.3269012,56.13593 41.1702119,51.8331012 42.6738867,47.936214 C46.1563625,49.352813 49.8817484,50.1482908 53.7094926,50.3470648 Z M53.7094926,64.3821919 L53.7094926,74.8084825 C53.5788711,74.8157315 53.4497774,74.8283218 53.3191559,74.8370968 C52.4617137,73.3064221 50.8396393,72.2564678 48.9616689,72.2564678 C46.3675721,72.2564678 44.2531845,74.2415377 43.9988163,76.7649381 C43.5565366,76.9240336 43.1180762,77.0922858 42.6830531,77.2712206 C41.3046527,73.7157975 40.3700598,69.4309003 40.1783288,64.3840995 L53.7094926,64.3840995 L53.7094926,64.3821919 Z M50.3939221,77.2624455 C50.3939221,78.0510558 49.7511269,78.6931609 48.9616689,78.6931609 C48.172211,78.6931609 47.5294158,78.0510558 47.5294158,77.2624455 C47.5294158,76.4738352 48.172211,75.8317301 48.9616689,75.8317301 C49.7511269,75.8317301 50.3939221,76.4734537 50.3939221,77.2624455 Z M44.9693111,80.2577912 C45.8840434,81.4721824 47.325463,82.2695678 48.9616689,82.2695678 C51.1871994,82.2695678 53.0579129,80.8029892 53.7094926,78.7931202 L53.7094926,91.6302616 C51.1566446,89.8473995 47.1856751,86.349205 44.1832906,80.5584322 C44.4445335,80.4546577 44.7061584,80.3543168 44.9693111,80.2577912 Z M57.2901255,91.6569683 L57.2901255,78.4299093 C60.6022586,78.6267757 63.8246372,79.3528161 66.8610138,80.5759823 C63.8536642,86.427799 59.8613063,89.8973791 57.2901255,91.6569683 Z M57.2901255,74.8122977 L57.2901255,64.3821919 L70.8212892,64.3821919 C70.6333776,69.441583 69.7113885,73.7249541 68.3505571,77.2746543 C64.8508943,75.8477541 61.1144323,75.0125979 57.2901255,74.8122977 Z M57.2901255,60.8054035 L57.2901255,50.3470648 C61.1178697,50.1486723 64.8398182,49.352813 68.321912,47.936214 C68.6530489,48.7912095 68.9555408,49.6870281 69.2332069,50.6240513 C67.9514359,51.5324602 67.1062155,53.0188781 67.1062155,54.703307 C67.1062155,56.9890179 68.6564863,58.9008351 70.7548327,59.4979204 C70.7834777,59.9290426 70.7976093,60.3651246 70.8140325,60.8034958 L57.2901255,60.8034958 L57.2901255,60.8054035 Z M72.1194835,56.13593 C71.3300255,56.13593 70.6872303,55.4938249 70.6872303,54.7052146 C70.6872303,53.9166043 71.3300255,53.2744992 72.1194835,53.2744992 C72.9089414,53.2744992 73.5517366,53.9166043 73.5517366,54.7052146 C73.5517366,55.4938249 72.9108511,56.13593 72.1194835,56.13593 Z M70.1070723,43.1057374 C67.7814752,38.5419461 64.8971083,35.2635095 62.3530448,32.9976379 C67.2013172,34.1189372 71.6073097,36.3886241 75.2647113,39.5217 C73.6571504,40.9005281 71.9350093,42.102329 70.1070723,43.1057374 Z M47.6420864,33.9617493 C47.203626,33.7847221 46.7307915,33.6862889 46.240388,33.6416506 C47.0390123,33.3860294 47.8571153,33.1784803 48.6824751,32.9888628 C48.3402621,33.2929375 47.9965213,33.6183776 47.6420864,33.9617493 Z M41.7591544,41.5624724 C41.465447,42.0740962 41.1702119,42.5853385 40.9017122,43.1110787 C39.0718656,42.1076704 37.346287,40.9024357 35.7349067,39.5217 C37.6201338,37.9067085 39.707786,36.5313141 41.9489757,35.4119224 C41.2221549,36.2810343 40.7672713,37.384402 40.7672713,38.6026084 C40.7672713,39.7132251 41.1434765,40.7307499 41.7591544,41.5624724 Z M33.1602885,42.0164861 C35.1047153,43.7154129 37.1992423,45.1926742 39.4335572,46.3944751 C37.7095064,50.7636891 36.7535251,55.5831016 36.5763077,60.8054035 L25.1557122,60.8054035 C25.580041,53.5732326 28.5323921,47.0258975 33.1602885,42.0164861 Z M36.5617942,64.3821919 C36.7535251,70.0657564 37.8366905,74.840912 39.394218,78.8198269 C37.1599031,80.0250615 35.0543,81.4737085 33.1369905,83.1459287 C28.5232257,78.1403325 25.5781313,71.6017724 25.1557122,64.3821919 L36.5617942,64.3821919 Z M40.8784142,82.1230625 C43.1860604,86.6441231 46.0559138,89.9168369 48.5927205,92.1754595 C43.7715655,91.0522526 39.3903987,88.7936299 35.7471286,85.6781041 C37.3371206,84.3229305 39.0523869,83.1299046 40.8784142,82.1230625 Z M70.1215858,82.1230625 C71.9403563,83.1211296 73.6575324,84.306525 75.2563088,85.6746704 C71.6130388,88.7917223 67.2303442,91.0522526 62.4053698,92.1754595 C64.9421765,89.9168369 67.8135576,86.6441231 70.1215858,82.1230625 Z M77.8645372,83.1424949 C75.9327142,81.4561584 73.8309305,80.009419 71.6092194,78.8129595 C73.1648373,74.8355707 74.2480026,70.0623227 74.4378239,64.3825734 L85.8439059,64.3825734 C85.4214867,71.6002463 82.478302,78.1388064 77.8645372,83.1424949 Z M105.62886,100.150076 L5.37114023,100.150076 C4.38460427,100.150076 3.58063284,99.346968 3.58063284,98.3614913 L3.58063284,52.1173366 L22.4649859,54.6334881 C21.8473984,57.1908441 21.483797,59.848541 21.483797,62.5936069 C21.483797,81.330637 36.742831,96.5732878 55.5,96.5732878 C74.257169,96.5732878 89.516203,81.330637 89.516203,62.5936069 C89.516203,59.848541 89.1526016,57.1908441 88.5350141,54.6334881 L107.419367,52.1173366 L107.419367,98.3614913 C107.418985,99.3473496 106.615396,100.150076 105.62886,100.150076 Z" id="Shape" fill="#333333" fill-rule="nonzero"></path>
            </g>
        </g>
    </g>
</svg>