<?xml version="1.0" encoding="UTF-8"?>
<svg width="72px" height="72px" viewBox="0 0 72 72" version="1.1" xmlns="http://www.w3.org/2000/svg" xmlns:xlink="http://www.w3.org/1999/xlink">
    <!-- Generator: sketchtool 52.1 (67048) - http://www.bohemiancoding.com/sketch -->
    <title>6D9E622F-F630-4B62-955F-B429CEAEDF9B</title>
    <desc>Created with sketchtool.</desc>
    <g id="Page-1" stroke="none" stroke-width="1" fill="none" fill-rule="evenodd">
        <g id="Yevdokimov-MVP-Website" transform="translate(-450.000000, -2306.000000)">
            <g id="strategy" transform="translate(450.000000, 2306.000000)">
                <path d="M54,24.8170511 L47.2317568,14.0869565 L40.4635137,24.8159312 L42.4266828,26.0320534 L46.0744251,20.249314 L46.0744251,33.4514066 C46.0744251,36.6126524 43.4783403,39.1848739 40.2877665,39.1848739 L39.1304348,39.1848739 L39.1304348,41.4782609 L40.2877665,41.4782609 C44.7549087,41.4782609 48.3890886,37.8763668 48.3890886,33.4514066 L48.3890886,20.249314 L52.0368309,26.0320534 L54,24.8170511 Z" id="Path" fill="#000000"></path>
                <path d="M66.1935484,18.5806452 L65.0322581,18.5806452 L65.0322581,0 L6.96774194,0 L6.96774194,18.5806452 L5.80645161,18.5806452 C2.60496465,18.5806452 0,21.1856098 0,24.3870968 L0,59.2258065 C0,62.4272934 2.60496465,65.0322581 5.80645161,65.0322581 L20.9032258,65.0322581 L20.9032258,69.6774194 L16.2580645,69.6774194 L16.2580645,72 L55.7419355,72 L55.7419355,69.6774194 L51.0967742,69.6774194 L51.0967742,65.0322581 L66.1935484,65.0322581 C69.3950354,65.0322581 72,62.4272934 72,59.2258065 L72,24.3870968 C72,21.1856098 69.3950354,18.5806452 66.1935484,18.5806452 Z M9.29032258,2.32258065 L62.7096774,2.32258065 L62.7096774,9.29032258 L9.29032258,9.29032258 L9.29032258,2.32258065 Z M5.80645161,20.9032258 L6.96774194,20.9032258 L6.96774194,48.7741935 L18.4156376,48.7741935 L18.4156376,46.4516129 L9.29032258,46.4516129 L9.29032258,11.6129032 L62.7096774,11.6129032 L62.7096774,46.4516129 L37.3262979,46.4516129 L37.3262979,48.7741935 L65.0322581,48.7741935 L65.0322581,20.9032258 L66.1935484,20.9032258 C68.1141003,20.9032258 69.6774194,22.4665448 69.6774194,24.3870968 L69.6774194,55.7419355 L2.32258065,55.7419355 L2.32258065,24.3870968 C2.32258065,22.4665448 3.88589966,20.9032258 5.80645161,20.9032258 Z M48.7741935,69.6774194 L23.2258065,69.6774194 L23.2258065,65.0322581 L48.7741935,65.0322581 L48.7741935,69.6774194 Z M66.1935484,62.7096774 L5.80645161,62.7096774 C3.88589966,62.7096774 2.32258065,61.1463584 2.32258065,59.2258065 L2.32258065,58.0645161 L69.6774194,58.0645161 L69.6774194,59.2258065 C69.6774194,61.1463584 68.1141003,62.7096774 66.1935484,62.7096774 Z" id="Shape" fill="#000000" fill-rule="nonzero"></path>
                <polygon id="Path" fill="#000000" points="11.7391304 4.69565217 14.0869565 4.69565217 14.0869565 7.04347826 11.7391304 7.04347826"></polygon>
                <polygon id="Path" fill="#000000" points="16.4347826 4.69565217 18.7826087 4.69565217 18.7826087 7.04347826 16.4347826 7.04347826"></polygon>
                <polygon id="Path" fill="#000000" points="21.1304348 4.69565217 23.4782609 4.69565217 23.4782609 7.04347826 21.1304348 7.04347826"></polygon>
                <polygon id="Path" fill="#000000" points="18.7059147 14.0869565 16.0434783 16.749393 13.3810418 14.0869565 11.7391304 15.7288679 14.4015669 18.3913043 11.7391304 21.0537408 13.3810418 22.6956522 16.0434783 20.0332157 18.7059147 22.6956522 20.3478261 21.0537408 17.6853897 18.3913043 20.3478261 15.7288679"></polygon>
                <path d="M40.6956522,37.1099058 L37.8124575,36.1497962 L39.1720874,33.4322563 L34.6547002,28.9148692 L31.9371603,30.2744991 L30.9770507,27.3913043 L24.589313,27.3913043 L23.6292034,30.2744991 L20.9116635,28.9148692 L16.3942765,33.4322563 L17.7539063,36.1497962 L14.8695652,37.1099058 L14.8695652,43.4976435 L17.7527599,44.4577531 L16.39313,47.175293 L20.9105172,51.69268 L23.6280571,50.3330503 L24.5881666,53.2173913 L30.9759044,53.2173913 L31.936014,50.3341966 L34.6535539,51.6938265 L39.1709409,47.1764393 L37.8113111,44.4588995 L40.6956522,43.4987899 L40.6956522,37.1099058 Z M27.7826087,45 C25.1894531,45 23.0869565,42.8975034 23.0869565,40.3043478 C23.0869565,37.7111923 25.1894531,35.6086957 27.7826087,35.6086957 C30.3757643,35.6086957 32.4782609,37.7111923 32.4782609,40.3043478 C32.4782609,42.8975034 30.3757643,45 27.7826087,45 Z" id="Shape" fill="#54DA83" fill-rule="nonzero"></path>
                <path d="M27.7826087,46.173913 C24.546323,46.173913 21.9130435,43.5406336 21.9130435,40.3043478 C21.9130435,37.0680621 24.546323,34.4347826 27.7826087,34.4347826 C31.0188944,34.4347826 33.6521739,37.0680621 33.6521739,40.3043478 C33.6521739,43.5406336 31.0188944,46.173913 27.7826087,46.173913 Z M27.7826087,36.7826087 C25.8411812,36.7826087 24.2608696,38.3629203 24.2608696,40.3043478 C24.2608696,42.2457753 25.8411812,43.826087 27.7826087,43.826087 C29.7240362,43.826087 31.3043478,42.2457753 31.3043478,40.3043478 C31.3043478,38.3629203 29.7240362,36.7826087 27.7826087,36.7826087 Z" id="Shape" fill="#000000" fill-rule="nonzero"></path>
                <g id="Group" transform="translate(31.304348, 14.086957)" fill="#54DA83">
                    <path d="M4.63304348,9.39130435 C2.07785659,9.39130435 0,7.28536862 0,4.69565217 C0,2.10593573 2.07785659,0 4.63304348,0 C7.18823037,0 9.26608696,2.10593573 9.26608696,4.69565217 C9.26608696,7.28536862 7.18823037,9.39130435 4.63304348,9.39130435 Z" id="Path"></path>
                    <path d="M24.3234783,30.5217391 C21.7682914,30.5217391 19.6904348,28.4158034 19.6904348,25.826087 C19.6904348,23.2363705 21.7682914,21.1304348 24.3234783,21.1304348 C26.8786652,21.1304348 28.9565217,23.2363705 28.9565217,25.826087 C28.9565217,28.4158034 26.8786652,30.5217391 24.3234783,30.5217391 Z" id="Path"></path>
                </g>
            </g>
        </g>
    </g>
</svg>