<?xml version="1.0" encoding="UTF-8"?>
<svg width="72px" height="72px" viewBox="0 0 72 72" version="1.1" xmlns="http://www.w3.org/2000/svg" xmlns:xlink="http://www.w3.org/1999/xlink">
    <!-- Generator: sketchtool 52.1 (67048) - http://www.bohemiancoding.com/sketch -->
    <title>6199A0D5-09E5-4526-898C-6288EB8FAD50</title>
    <desc>Created with sketchtool.</desc>
    <g id="Page-1" stroke="none" stroke-width="1" fill="none" fill-rule="evenodd">
        <g id="Yevdokimov-MVP-Website" transform="translate(-1402.000000, -2306.000000)">
            <g id="conference" transform="translate(1402.000000, 2306.000000)">
                <polygon id="Path" fill="#000000" points="51.0967742 13.9354839 67.3548387 13.9354839 67.3548387 16.2580645 51.0967742 16.2580645"></polygon>
                <polygon id="Path" fill="#000000" points="51.0967742 18.5806452 67.3548387 18.5806452 67.3548387 20.9032258 51.0967742 20.9032258"></polygon>
                <polygon id="Path" fill="#000000" points="65.0322581 23.2258065 67.3548387 23.2258065 67.3548387 25.5483871 65.0322581 25.5483871"></polygon>
                <polygon id="Path" fill="#000000" points="46.4516129 23.2258065 62.7096774 23.2258065 62.7096774 25.5483871 46.4516129 25.5483871"></polygon>
                <path d="M11.6129032,35.8480343 L11.6129032,30.1935484 L3.48387097,30.1935484 C1.56331902,30.1935484 0,28.6302294 0,26.7096774 L0,12.7741935 C0,10.8536416 1.56331902,9.29032258 3.48387097,9.29032258 L24.6207157,9.29032258 L24.6207157,11.6129032 L3.48387097,11.6129032 C2.84312003,11.6129032 2.32258065,12.1345766 2.32258065,12.7741935 L2.32258065,26.7096774 C2.32258065,27.3492944 2.84312003,27.8709677 3.48387097,27.8709677 L13.9354839,27.8709677 L13.9354839,31.5068044 L19.389806,27.8709677 L26.7096774,27.8709677 C27.3504284,27.8709677 27.8709677,27.3492944 27.8709677,26.7096774 L27.8709677,22.0480721 L30.1935484,22.0480721 L30.1935484,26.7096774 C30.1935484,28.6302294 28.6302294,30.1935484 26.7096774,30.1935484 L20.094065,30.1935484 L11.6129032,35.8480343 Z" id="Path" fill="#000000"></path>
                <path d="M60.3870968,35.8480343 L51.905935,30.1935484 L45.2903226,30.1935484 C43.3697706,30.1935484 41.8064516,28.6302294 41.8064516,26.7096774 L41.8064516,22.0480721 L44.1290323,22.0480721 L44.1290323,26.7096774 C44.1290323,27.3492944 44.6495716,27.8709677 45.2903226,27.8709677 L52.610194,27.8709677 L58.0645161,31.5068044 L58.0645161,27.8709677 L68.516129,27.8709677 C69.15688,27.8709677 69.6774194,27.3492944 69.6774194,26.7096774 L69.6774194,12.7741935 C69.6774194,12.1345766 69.15688,11.6129032 68.516129,11.6129032 L47.3792843,11.6129032 L47.3792843,9.29032258 L68.516129,9.29032258 C70.436681,9.29032258 72,10.8536416 72,12.7741935 L72,26.7096774 C72,28.6302294 70.436681,30.1935484 68.516129,30.1935484 L60.3870968,30.1935484 L60.3870968,35.8480343 Z" id="Path" fill="#000000"></path>
                <polygon id="Path" fill="#000000" points="4.64516129 13.9354839 20.9032258 13.9354839 20.9032258 16.2580645 4.64516129 16.2580645"></polygon>
                <polygon id="Path" fill="#000000" points="4.64516129 18.5806452 20.9032258 18.5806452 20.9032258 20.9032258 4.64516129 20.9032258"></polygon>
                <polygon id="Path" fill="#000000" points="4.64516129 23.2258065 20.9032258 23.2258065 20.9032258 25.5483871 4.64516129 25.5483871"></polygon>
                <polygon id="Path" fill="#000000" points="23.2258065 23.2258065 25.5483871 23.2258065 25.5483871 25.5483871 23.2258065 25.5483871"></polygon>
                <path d="M36,25.5483871 C28.9568423,25.5483871 23.2258065,19.8173513 23.2258065,12.7741935 C23.2258065,5.73103582 28.9568423,0 36,0 C43.0431577,0 48.7741935,5.73103582 48.7741935,12.7741935 C48.7741935,19.8173513 43.0431577,25.5483871 36,25.5483871 Z" id="Path" fill="#54DA83"></path>
                <path d="M36,11.6129032 C35.3592491,11.6129032 34.8387097,11.0912298 34.8387097,10.4516129 C34.8387097,9.81199597 35.3592491,9.29032258 36,9.29032258 C36.6407509,9.29032258 37.1612903,9.81199597 37.1612903,10.4516129 L39.483871,10.4516129 C39.483871,8.93989423 38.5097025,7.66236135 37.1612903,7.18151458 L37.1612903,4.64516129 L34.8387097,4.64516129 L34.8387097,7.18151458 C33.4902975,7.66236135 32.516129,8.93989423 32.516129,10.4516129 C32.516129,12.3721649 34.079448,13.9354839 36,13.9354839 C36.6407509,13.9354839 37.1612903,14.4571573 37.1612903,15.0967742 C37.1612903,15.7363911 36.6407509,16.2580645 36,16.2580645 C35.3592491,16.2580645 34.8387097,15.7363911 34.8387097,15.0967742 L32.516129,15.0967742 C32.516129,16.6084929 33.4902975,17.8860257 34.8387097,18.3668725 L34.8387097,20.9032258 L37.1612903,20.9032258 L37.1612903,18.3668725 C38.5097025,17.8860257 39.483871,16.6084929 39.483871,15.0967742 C39.483871,13.1762222 37.920552,11.6129032 36,11.6129032 Z" id="Path" fill="#000000"></path>
                <path d="M58.0645161,37.1612903 C52.3011593,37.1612903 47.6129032,41.8495464 47.6129032,47.6129032 L47.6129032,52.2580645 L48.7741935,52.2580645 C48.7741935,50.3335434 50.3335434,48.7741935 52.2580645,48.7741935 L52.4576613,48.7741935 C54.5607989,48.7741935 56.578314,47.9389491 58.0645161,46.4516129 C59.5518524,47.9389491 61.5682334,48.7741935 63.671371,48.7741935 L63.8709677,48.7741935 C65.7954888,48.7741935 67.3548387,50.3335434 67.3548387,52.2580645 L68.516129,52.2580645 L68.516129,47.6129032 C68.516129,41.8495464 63.827873,37.1612903 58.0645161,37.1612903 Z" id="Path" fill="#54DA83"></path>
                <path d="M13.9354839,37.1612903 C8.17212702,37.1612903 3.48387097,41.8495464 3.48387097,47.6129032 L3.48387097,52.2580645 L4.64516129,52.2580645 C4.64516129,50.3335434 6.20451116,48.7741935 8.12903226,48.7741935 L19.7419355,48.7741935 C21.6664566,48.7741935 23.2258065,50.3335434 23.2258065,52.2580645 L24.3870968,52.2580645 L24.3870968,47.6129032 C24.3870968,41.8495464 19.6988407,37.1612903 13.9354839,37.1612903 Z" id="Path" fill="#54DA83"></path>
                <path d="M68.2326109,62.8140121 L62.7096774,60.7437626 L62.7096774,59.7599547 C63.5885837,58.9712072 64.265625,57.9658517 64.654612,56.8244077 C66.8428049,56.4490298 68.516129,54.5505923 68.516129,52.2580645 C68.516129,49.6961945 66.4328378,47.6129032 63.8709677,47.6129032 L63.671371,47.6129032 C61.8630923,47.6129032 60.1631174,46.9092112 58.8855847,45.6305444 L58.0645161,44.8083418 L57.2434476,45.6305444 C55.9647807,46.9092112 54.26594,47.6129032 52.4576613,47.6129032 L52.2580645,47.6129032 C49.6961945,47.6129032 47.6129032,49.6961945 47.6129032,52.2580645 C47.6129032,54.5505923 49.2862274,56.4490298 51.4744203,56.8244077 C51.8634073,57.9647177 52.5404485,58.970073 53.4193548,59.7599547 L53.4193548,60.7448967 L47.8975555,62.8151461 C45.6435862,63.6594632 44.1290323,65.844254 44.1290323,68.251323 L44.1290323,72 L72,72 L72,68.251323 C72,65.844254 70.485446,63.6594632 68.2326109,62.8140121 Z M63.5341483,63.5330141 L62.2021799,67.5277847 L59.7066532,65.0322581 L61.8409778,62.8979335 L63.5341483,63.5330141 Z M61.0675403,69.6774194 L55.0614919,69.6774194 L58.0645161,66.6743952 L61.0675403,69.6774194 Z M58.0645161,63.390121 L55.859312,61.1849169 C56.5539315,61.4174017 57.2933468,61.5483871 58.0645161,61.5483871 C58.8356855,61.5483871 59.5751008,61.4174017 60.2697202,61.1849169 L58.0645161,63.390121 Z M66.1935484,52.2580645 C66.1935484,53.1137222 65.7234753,53.8548387 65.0322581,54.2580015 L65.0322581,50.2592616 C65.7234753,50.6612903 66.1935484,51.4024068 66.1935484,52.2580645 Z M58.0645161,48.0018902 C59.4055569,49.0577117 61.0097025,49.6763483 62.7096774,49.8555318 L62.7096774,54.5806452 C62.7096774,57.1425152 60.6263862,59.2258065 58.0645161,59.2258065 C55.5026461,59.2258065 53.4193548,57.1425152 53.4193548,54.5806452 L53.4193548,49.8566658 C55.1193297,49.6774823 56.7234753,49.0577117 58.0645161,48.0018902 Z M49.9354839,52.2580645 C49.9354839,51.4024068 50.4055569,50.6612903 51.0967742,50.2581275 L51.0967742,54.2568674 C50.4055569,53.8548387 49.9354839,53.1137222 49.9354839,52.2580645 Z M54.2880544,62.8979335 L56.422379,65.0322581 L53.9279864,67.5277847 L52.5960181,63.5330141 L54.2880544,62.8979335 Z M46.4516129,68.251323 C46.4516129,66.8065146 47.360005,65.4966608 48.7123866,64.9891633 L50.4197329,64.3495464 L52.1951235,69.6774194 L46.4516129,69.6774194 L46.4516129,68.251323 Z M69.6774194,69.6774194 L63.9339088,69.6774194 L65.7092993,64.3495464 L67.4177798,64.9902975 C68.7690273,65.4966608 69.6774194,66.8065146 69.6774194,68.251323 L69.6774194,69.6774194 Z" id="Shape" fill="#000000" fill-rule="nonzero"></path>
                <path d="M24.1035786,62.8140121 L18.5806452,60.7437626 L18.5806452,59.7599547 C19.4595515,58.9712072 20.1365927,57.9658517 20.5255797,56.8244077 C22.7137726,56.4490298 24.3870968,54.5505923 24.3870968,52.2580645 C24.3870968,49.6961945 22.3038055,47.6129032 19.7419355,47.6129032 L8.12903226,47.6129032 C5.56716223,47.6129032 3.48387097,49.6961945 3.48387097,52.2580645 C3.48387097,54.5505923 5.1571951,56.4490298 7.34538803,56.8244077 C7.734375,57.9647177 8.41141626,58.970073 9.29032258,59.7599547 L9.29032258,60.7448967 L3.76852326,62.8140121 C1.51455397,63.6594632 0,65.844254 0,68.251323 L0,72 L27.8709677,72 L27.8709677,68.251323 C27.8709677,65.844254 26.3564138,63.6594632 24.1035786,62.8140121 Z M19.405116,63.5330141 L18.0731476,67.5277847 L15.577621,65.0322581 L17.7119456,62.8979335 L19.405116,63.5330141 Z M16.9385081,69.6774194 L10.9324597,69.6774194 L13.9354839,66.6743952 L16.9385081,69.6774194 Z M13.9354839,63.390121 L11.7302798,61.1849169 C12.4248992,61.4174017 13.1643145,61.5483871 13.9354839,61.5483871 C14.7066532,61.5483871 15.4460685,61.4174017 16.140688,61.1849169 L13.9354839,63.390121 Z M13.9354839,59.2258065 C11.3736138,59.2258065 9.29032258,57.1425152 9.29032258,54.5806452 L9.29032258,49.9354839 L18.5806452,49.9354839 L18.5806452,54.5806452 C18.5806452,57.1425152 16.4973539,59.2258065 13.9354839,59.2258065 Z M22.0645161,52.2580645 C22.0645161,53.1137222 21.5944431,53.8548387 20.9032258,54.2580015 L20.9032258,50.2592616 C21.5944431,50.6612903 22.0645161,51.4024068 22.0645161,52.2580645 Z M5.80645161,52.2580645 C5.80645161,51.4024068 6.27652466,50.6612903 6.96774194,50.2581275 L6.96774194,54.2568674 C6.27652466,53.8548387 5.80645161,53.1137222 5.80645161,52.2580645 Z M10.1590222,62.8979335 L12.2933468,65.0322581 L9.7989541,67.5277847 L8.46698589,63.5330141 L10.1590222,62.8979335 Z M2.32258065,68.251323 C2.32258065,66.8065146 3.23097271,65.4966608 4.58335437,64.9891633 L6.29070068,64.3495464 L8.06609119,69.6774194 L2.32258065,69.6774194 L2.32258065,68.251323 Z M25.5483871,69.6774194 L19.8048765,69.6774194 L21.5802671,64.3495464 L23.2887475,64.9902975 C24.639995,65.4966608 25.5483871,66.8065146 25.5483871,68.251323 L25.5483871,69.6774194 Z" id="Shape" fill="#000000" fill-rule="nonzero"></path>
            </g>
        </g>
    </g>
</svg>