<?xml version="1.0" encoding="UTF-8"?>
<svg width="72px" height="72px" viewBox="0 0 72 72" version="1.1" xmlns="http://www.w3.org/2000/svg" xmlns:xlink="http://www.w3.org/1999/xlink">
    <!-- Generator: sketchtool 52.1 (67048) - http://www.bohemiancoding.com/sketch -->
    <title>719CCD0B-A2FF-4D2C-88D4-39F88D4BAA05</title>
    <desc>Created with sketchtool.</desc>
    <g id="Page-1" stroke="none" stroke-width="1" fill="none" fill-rule="evenodd">
        <g id="Yevdokimov-MVP-Website" transform="translate(-922.000000, -2306.000000)">
            <g id="graphic" transform="translate(922.000000, 2306.000000)">
                <path d="M27.4891737,54.5806452 L25.1984092,54.5806452 L25.1984092,48.0858114 L22.9076447,48.0858114 L22.9076447,54.5806452 L16.0353513,54.5806452 L16.0353513,48.0858114 L13.7445868,48.0858114 L13.7445868,54.5806452 L11.4538224,54.5806452 L11.4538224,56.9032258 L13.7445868,56.9032258 L13.7445868,66.1935484 C13.7445868,69.3950354 16.313867,72 19.471498,72 C22.629129,72 25.1984092,69.3950354 25.1984092,66.1935484 L25.1984092,56.9032258 L27.4891737,56.9032258 L27.4891737,54.5806452 Z M22.9076447,66.1935484 C22.9076447,68.1141003 21.365741,69.6774194 19.471498,69.6774194 C17.577255,69.6774194 16.0353513,68.1141003 16.0353513,66.1935484 L16.0353513,56.9032258 L22.9076447,56.9032258 L22.9076447,66.1935484 Z" id="Shape" fill="#000000" fill-rule="nonzero"></path>
                <path d="M23.7336845,52.2580645 L15.21043,52.2580645 L14.161242,49.0724547 C13.2988497,48.7895036 12.4660986,48.4419104 11.6747335,48.0330771 L8.71508372,49.5289189 L2.68840453,43.420804 L4.16599229,40.4211819 C3.76275961,39.6199597 3.41992795,38.7745085 3.14085285,37.9001386 L0,36.8375126 L0,28.1958795 L3.14197132,27.1321194 C3.41992795,26.2577495 3.76387808,25.4134324 4.1671109,24.6110761 L2.689523,21.6125882 L8.71732079,15.501071 L11.6747335,16.999181 C12.4649801,16.5903477 13.2988497,16.2427545 14.161242,15.9598034 L15.2093115,12.7741935 L23.732566,12.7741935 L24.7817541,15.9598034 C25.6441463,16.2416205 26.4768974,16.5903477 27.2682625,16.999181 L30.2256752,15.501071 L36.253473,21.6125882 L34.7758851,24.6110761 C35.1791179,25.4122984 35.5219496,26.2577495 35.8010247,27.1321194 L38.942996,28.1947455 L38.942996,36.8363786 L35.8010247,37.9001386 C35.5230681,38.7745085 35.1791179,39.6188257 34.7758851,40.4211819 L36.253473,43.420804 L30.2267938,49.5289189 L27.2682625,48.0330771 C26.4780159,48.4419104 25.6441463,48.7883694 24.7817541,49.0724547 L23.7336845,52.2580645 Z" id="Path" fill="#54DA83"></path>
                <path d="M19.471498,31.3548387 C18.8395245,31.3548387 18.3261158,30.8331653 18.3261158,30.1935484 C18.3261158,29.5539315 18.8395245,29.0322581 19.471498,29.0322581 C20.1034715,29.0322581 20.6168802,29.5539315 20.6168802,30.1935484 L22.9076447,30.1935484 C22.9076447,28.6818297 21.9468211,27.4042968 20.6168802,26.9234501 L20.6168802,24.3870968 L18.3261158,24.3870968 L18.3261158,26.9234501 C16.996175,27.4042968 16.0353513,28.6818297 16.0353513,30.1935484 C16.0353513,32.1141003 17.577255,33.6774194 19.471498,33.6774194 C20.1034715,33.6774194 20.6168802,34.1990927 20.6168802,34.8387097 C20.6168802,35.4783266 20.1034715,36 19.471498,36 C18.8395245,36 18.3261158,35.4783266 18.3261158,34.8387097 L16.0353513,34.8387097 C16.0353513,36.3504284 16.996175,37.6279612 18.3261158,38.108808 L18.3261158,40.6451613 L20.6168802,40.6451613 L20.6168802,38.108808 C21.9468211,37.6279612 22.9076447,36.3504284 22.9076447,34.8387097 C22.9076447,32.9181577 21.365741,31.3548387 19.471498,31.3548387 Z" id="Path" fill="#000000"></path>
                <path d="M19.471498,45.2903226 C12.5248219,45.2903226 6.87229342,39.5592868 6.87229342,32.516129 C6.87229342,25.4729713 12.5248219,19.7419355 19.471498,19.7419355 C26.4181741,19.7419355 32.0707026,25.4729713 32.0707026,32.516129 C32.0707026,39.5592868 26.4181741,45.2903226 19.471498,45.2903226 Z M19.471498,22.0645161 C13.7870913,22.0645161 9.16305789,26.7539063 9.16305789,32.516129 C9.16305789,38.2783517 13.7870913,42.9677419 19.471498,42.9677419 C25.1559048,42.9677419 29.7799381,38.2783517 29.7799381,32.516129 C29.7799381,26.7539063 25.1559048,22.0645161 19.471498,22.0645161 Z" id="Shape" fill="#000000" fill-rule="nonzero"></path>
                <path d="M56.1237296,0 L56.1237296,2.32258065 L64.9730378,2.32258065 L63.9238497,3.48387097 C57.650533,10.422694 49.679836,15.6632435 40.8719136,18.6396169 L41.5967258,20.84312 C50.7737654,17.7408645 59.0777866,12.2808719 65.6134004,5.05286042 L66.4321697,4.14673635 L66.4321697,12.7741935 L68.7229342,12.7741935 L68.7229342,0 L56.1237296,0 Z" id="Path" fill="#000000"></path>
                <g id="Group" transform="translate(41.233760, 16.258065)" fill="#54DA83">
                    <polygon id="Path" points="22.9076447 0 29.7799381 0 29.7799381 27.8709677 22.9076447 27.8709677"></polygon>
                    <polygon id="Path" points="11.4538224 4.64516129 18.3261158 4.64516129 18.3261158 27.8709677 11.4538224 27.8709677"></polygon>
                    <polygon id="Path" points="0 9.29032258 6.87229342 9.29032258 6.87229342 27.8709677 0 27.8709677"></polygon>
                </g>
                <polygon id="Path" fill="#000000" points="41.2337605 49.9354839 43.524525 49.9354839 43.524525 52.2580645 41.2337605 52.2580645"></polygon>
                <polygon id="Path" fill="#000000" points="45.8152894 49.9354839 66.4321697 49.9354839 66.4321697 52.2580645 45.8152894 52.2580645"></polygon>
                <polygon id="Path" fill="#000000" points="41.2337605 54.5806452 43.524525 54.5806452 43.524525 56.9032258 41.2337605 56.9032258"></polygon>
                <polygon id="Path" fill="#000000" points="45.8152894 54.5806452 66.4321697 54.5806452 66.4321697 56.9032258 45.8152894 56.9032258"></polygon>
                <polygon id="Path" fill="#000000" points="41.2337605 59.2258065 43.524525 59.2258065 43.524525 61.5483871 41.2337605 61.5483871"></polygon>
                <polygon id="Path" fill="#000000" points="45.8152894 59.2258065 66.4321697 59.2258065 66.4321697 61.5483871 45.8152894 61.5483871"></polygon>
                <polygon id="Path" fill="#000000" points="41.2337605 63.8709677 43.524525 63.8709677 43.524525 66.1935484 41.2337605 66.1935484"></polygon>
                <polygon id="Path" fill="#000000" points="45.8152894 63.8709677 66.4321697 63.8709677 66.4321697 66.1935484 45.8152894 66.1935484"></polygon>
            </g>
        </g>
    </g>
</svg>