<?xml version="1.0" encoding="UTF-8"?>
<svg width="94px" height="89px" viewBox="0 0 94 89" version="1.1" xmlns="http://www.w3.org/2000/svg" xmlns:xlink="http://www.w3.org/1999/xlink">
    <!-- Generator: sketchtool 52.1 (67048) - http://www.bohemiancoding.com/sketch -->
    <title>9A3EBE90-8434-420F-A277-81CE7A014F1E</title>
    <desc>Created with sketchtool.</desc>
    <g id="Page-1" stroke="none" stroke-width="1" fill="none" fill-rule="evenodd">
        <g id="Thank-You" transform="translate(-204.000000, -126.000000)" fill="#54da83">
            <g id="check" transform="translate(204.000000, 126.000000)">
                <path d="M86.1980767,36.9747319 C84.0982135,36.9747319 82.3961533,38.6580622 82.3961533,40.7344119 L82.3961533,44.521178 C82.3904547,54.3990184 78.4951469,63.6835121 71.4278931,70.6640611 C64.3657865,77.6395201 54.9813852,81.4802763 45.0006471,81.4802763 C44.993294,81.4802763 44.9859409,81.4802763 44.9785878,81.4802763 C24.3582733,81.4686421 7.59208913,64.8700236 7.6038541,44.4786402 C7.60955275,34.6009816 11.5048605,25.3164879 18.5722982,18.3355753 C25.6344048,11.3601163 35.0189898,7.51936012 44.9995441,7.51936012 C45.0068972,7.51936012 45.0142503,7.51936012 45.0216035,7.51936012 C50.2923097,7.52226868 55.4060271,8.59952736 60.2204731,10.720778 C62.1388984,11.5660789 64.3858237,10.7133249 65.2406222,8.81676059 C66.0950531,6.92019633 65.2332691,4.69769133 63.3152115,3.85239047 C57.5216994,1.29958189 51.3684367,0.00345391747 45.0258315,0 C45.0162725,0 45.0089193,0 44.9993603,0 C32.9900841,0 21.6960813,4.62243229 13.1984646,13.0158153 C4.69423014,21.4157426 0.00699286334,32.5880749 7.41285137e-06,44.474641 C-0.00679420999,56.3608435 4.66720748,67.5384476 13.1618829,75.9481912 C21.6565584,84.3579349 32.9542377,88.9930922 44.9741759,89 C44.9835511,89 44.9910881,89 45.0006471,89 C57.0099233,89 68.3039261,84.3777495 76.8015428,75.9841847 C85.3057773,67.5840756 89.9930145,56.4117433 90,44.5233594 L90,40.7345937 C90,38.6580622 88.2979398,36.9747319 86.1980767,36.9747319 Z" id="Path"></path>
                <path d="M92.8912109,5.09405426 C91.4128254,3.63531525 89.0159629,3.63531525 87.5375774,5.09405426 L45.0916048,46.9809613 L35.4622396,37.4783856 C33.9840371,36.019466 31.5869916,36.019466 30.1087891,37.4783856 C28.6304036,38.9373053 28.6304036,41.3026083 30.1087891,42.761528 L42.4150626,54.9057651 C43.1541639,55.6353152 44.1231589,56 45.0919709,56 C46.0607829,56 47.0295949,55.6353152 47.7688792,54.9057651 L92.8912109,10.3771966 C94.3695964,8.91827696 94.3695964,6.55297391 92.8912109,5.09405426 Z" id="Path"></path>
            </g>
        </g>
    </g>
</svg>